<svg width="51" height="51" viewBox="0 0 51 51" fill="none" xmlns="http://www.w3.org/2000/svg">
<path d="M15.5551 3.26984C11.8967 8.31997 10.717 11.7364 10.3139 18.5902C9.9107 25.4441 13.7174 32.0361 24.0216 36.3296V44.393C20.6386 45.242 19.0906 45.836 17.1677 47.2152C15.2449 48.5944 17.1677 48.4247 17.1677 48.4247H34.0724C34.0724 48.4247 35.9953 48.5944 34.0724 47.2152C32.1496 45.836 30.6015 45.242 27.2186 44.393V36.3296C37.5227 32.0361 41.3295 25.4441 40.9263 18.5902C40.5231 11.7364 39.3434 8.31997 35.6851 3.26984H15.5551Z" fill="#CDD9EB"/>
<path d="M24.7955 19.0307C28.5243 15.2545 34.6143 13.3394 37.2937 15.4024C42.9457 19.7542 35.1609 32.3355 24.7955 32.3355C14.4301 32.3355 11.9943 21.8887 12.2973 19.837C12.6004 17.7854 19.6135 21.4446 24.7955 19.0307Z" fill="#D0AD92"/>
<path d="M26.3779 19.0304C21.569 15.6865 15.6111 13.4883 13.8797 15.4021C8.42621 21.43 15.8955 33.1415 26.2907 32.903C36.6858 32.6646 39.6837 22.2558 38.876 19.8368C38.0684 17.4177 31.5599 21.4443 26.3779 19.0304Z" fill="#EDA976"/>
</svg>
