<svg width="50" height="50" viewBox="0 0 50 50" fill="none" xmlns="http://www.w3.org/2000/svg">
<ellipse cx="19.7395" cy="26.4972" rx="13.4573" ry="14.2675" fill="#BE2A38"/>
<path d="M16.571 9.90154L17.1185 15.5722C17.132 15.7124 17.2412 15.8243 17.3811 15.8412L21.4381 16.3318C21.6056 16.3521 21.7568 16.2304 21.7728 16.0625L22.446 9.01665C22.4778 8.68358 22.023 8.55628 21.8773 8.8575L20.7378 11.2136C20.616 11.4654 20.2462 11.4282 20.177 11.1572L19.5844 8.83489C19.5045 8.52192 19.0543 8.53889 18.9982 8.85698L18.5689 11.2918C18.5193 11.5729 18.1422 11.6324 18.0084 11.3802L17.1347 9.73219C16.9808 9.44195 16.5395 9.57455 16.571 9.90154Z" fill="#BE2A38"/>
<ellipse cx="29.4543" cy="28.8582" rx="13.5971" ry="14.3898" transform="rotate(10 29.4543 28.8582)" fill="#D04F5C"/>
<ellipse cx="29.4539" cy="28.8582" rx="10.8068" ry="11.6935" transform="rotate(10 29.4539 28.8582)" fill="#E6CBCB"/>
<circle cx="27.5016" cy="20.4146" r="1" transform="rotate(10 27.5016 20.4146)" fill="#AE3F4A"/>
<circle cx="29.2086" cy="19.7002" r="1" transform="rotate(10 29.2086 19.7002)" fill="#AE3F4A"/>
<circle cx="28.9664" cy="21.0757" r="1" transform="rotate(10 28.9664 21.0757)" fill="#AE3F4A"/>
<circle cx="25.1158" cy="22.4275" r="1" transform="rotate(10 25.1158 22.4275)" fill="#AE3F4A"/>
<circle cx="23.61" cy="25.2083" r="1" transform="rotate(10 23.61 25.2083)" fill="#AE3F4A"/>
<circle cx="26.8229" cy="21.7131" r="1" transform="rotate(10 26.8229 21.7131)" fill="#9A3A44"/>
<circle cx="26.3434" cy="21.2256" r="1" transform="rotate(10 26.3434 21.2256)" fill="#AE3F4A"/>
<circle cx="25.318" cy="24.4939" r="1" transform="rotate(10 25.318 24.4939)" fill="#AE3F4A"/>
<circle cx="24.4371" cy="23.7263" r="1" transform="rotate(10 24.4371 23.7263)" fill="#9A3A44"/>
<circle cx="26.5807" cy="23.0886" r="1" transform="rotate(10 26.5807 23.0886)" fill="#B04F58"/>
<circle cx="25.0748" cy="25.8694" r="1" transform="rotate(10 25.0748 25.8694)" fill="#B04F58"/>
<circle cx="22.9782" cy="26.7012" r="1" transform="rotate(10 22.9782 26.7012)" fill="#9A3A44"/>
<circle cx="24.4703" cy="27.3909" r="1" transform="rotate(10 24.4703 27.3909)" fill="#AE3F4A"/>
<circle cx="26.3121" cy="27.1616" r="1" transform="rotate(10 26.3121 27.1616)" fill="#9A3A44"/>
<circle cx="26.8824" cy="25.2312" r="1" transform="rotate(10 26.8824 25.2312)" fill="#AE3F4A"/>
<circle cx="28.1373" cy="23.8699" r="1" transform="rotate(10 28.1373 23.8699)" fill="#AE3F4A"/>
<circle cx="28.3746" cy="22.5237" r="1" transform="rotate(10 28.3746 22.5237)" fill="#9A3A44"/>
<circle cx="27.7506" cy="27.9692" r="1" transform="rotate(10 27.7506 27.9692)" fill="#AE3F4A"/>
<circle cx="28.0289" cy="26.3904" r="1" transform="rotate(10 28.0289 26.3904)" fill="#9A3A44"/>
<circle cx="28.7076" cy="25.0918" r="1" transform="rotate(10 28.7076 25.0918)" fill="#AE3F4A"/>
<circle cx="1" cy="1" r="1" transform="matrix(-0.984808 -0.173648 -0.173648 0.984808 36.0039 20.8982)" fill="#AE3F4A"/>
<circle cx="1" cy="1" r="1" transform="matrix(-0.984808 -0.173648 -0.173648 0.984808 34.6436 19.6431)" fill="#AE3F4A"/>
<circle cx="1" cy="1" r="1" transform="matrix(-0.984808 -0.173648 -0.173648 0.984808 34.4004 21.0186)" fill="#AE3F4A"/>
<circle cx="1" cy="1" r="1" transform="matrix(-0.984808 -0.173648 -0.173648 0.984808 37.5566 23.606)" fill="#AE3F4A"/>
<circle cx="1" cy="1" r="1" transform="matrix(-0.984808 -0.173648 -0.173648 0.984808 38.0205 26.7339)" fill="#AE3F4A"/>
<circle cx="1" cy="1" r="1" transform="matrix(-0.984808 -0.173648 -0.173648 0.984808 36.1973 22.3506)" fill="#9A3A44"/>
<circle cx="1" cy="1" r="1" transform="matrix(-0.984808 -0.173648 -0.173648 0.984808 36.8145 22.0566)" fill="#AE3F4A"/>
<circle cx="1" cy="1" r="1" transform="matrix(-0.984808 -0.173648 -0.173648 0.984808 36.6611 25.4788)" fill="#AE3F4A"/>
<circle cx="1" cy="1" r="1" transform="matrix(-0.984808 -0.173648 -0.173648 0.984808 37.75 25.0581)" fill="#9A3A44"/>
<circle cx="1" cy="1" r="1" transform="matrix(0.984808 0.173648 0.173648 -0.984808 23.6006 36.7793)" fill="#AE3F4A"/>
<circle cx="1" cy="1" r="1" transform="matrix(0.984808 0.173648 0.173648 -0.984808 24.9609 38.0344)" fill="#AE3F4A"/>
<circle cx="1" cy="1" r="1" transform="matrix(0.984808 0.173648 0.173648 -0.984808 25.2031 36.6589)" fill="#AE3F4A"/>
<circle cx="1" cy="1" r="1" transform="matrix(0.984808 0.173648 0.173648 -0.984808 22.0469 34.0715)" fill="#AE3F4A"/>
<circle cx="1" cy="1" r="1" transform="matrix(0.984808 0.173648 0.173648 -0.984808 21.583 30.9436)" fill="#AE3F4A"/>
<circle cx="1" cy="1" r="1" transform="matrix(0.984808 0.173648 0.173648 -0.984808 23.4072 35.3269)" fill="#9A3A44"/>
<circle cx="1" cy="1" r="1" transform="matrix(0.984808 0.173648 0.173648 -0.984808 22.7891 35.6208)" fill="#AE3F4A"/>
<circle cx="1" cy="1" r="1" transform="matrix(0.984808 0.173648 0.173648 -0.984808 22.9434 32.1987)" fill="#AE3F4A"/>
<circle cx="1" cy="1" r="1" transform="matrix(0.984808 0.173648 0.173648 -0.984808 21.8535 32.6191)" fill="#9A3A44"/>
<circle cx="1" cy="1" r="1" transform="matrix(0.984808 0.173648 0.173648 -0.984808 23.6504 33.9514)" fill="#B04F58"/>
<circle cx="1" cy="1" r="1" transform="matrix(0.984808 0.173648 0.173648 -0.984808 23.1865 30.8232)" fill="#B04F58"/>
<circle cx="1" cy="1" r="1" transform="matrix(0.984808 0.173648 0.173648 -0.984808 21.5 29.3247)" fill="#9A3A44"/>
<circle cx="1" cy="1" r="1" transform="matrix(0.984808 0.173648 0.173648 -0.984808 23.1387 29.1868)" fill="#AE3F4A"/>
<circle cx="1" cy="1" r="1" transform="matrix(0.984808 0.173648 0.173648 -0.984808 24.79 30.0322)" fill="#9A3A44"/>
<circle cx="1" cy="1" r="1" transform="matrix(0.984808 0.173648 0.173648 -0.984808 24.666 32.0413)" fill="#AE3F4A"/>
<circle cx="1" cy="1" r="1" transform="matrix(0.984808 0.173648 0.173648 -0.984808 25.3799 33.7498)" fill="#AE3F4A"/>
<circle cx="1" cy="1" r="1" transform="matrix(0.984808 0.173648 0.173648 -0.984808 25.1426 35.0959)" fill="#9A3A44"/>
<circle cx="1" cy="1" r="1" transform="matrix(0.984808 0.173648 0.173648 -0.984808 26.4189 29.7654)" fill="#AE3F4A"/>
<circle cx="1" cy="1" r="1" transform="matrix(0.984808 0.173648 0.173648 -0.984808 26.1406 31.3442)" fill="#9A3A44"/>
<circle cx="1" cy="1" r="1" transform="matrix(0.984808 0.173648 0.173648 -0.984808 26.334 32.7966)" fill="#AE3F4A"/>
<circle cx="32.2279" cy="37.0837" r="1" transform="rotate(-170 32.2279 37.0837)" fill="#AE3F4A"/>
<circle cx="30.5199" cy="37.7981" r="1" transform="rotate(-170 30.5199 37.7981)" fill="#AE3F4A"/>
<circle cx="30.7621" cy="36.4221" r="1" transform="rotate(-170 30.7621 36.4221)" fill="#AE3F4A"/>
<circle cx="34.6136" cy="35.0703" r="1" transform="rotate(-170 34.6136 35.0703)" fill="#AE3F4A"/>
<circle cx="36.1195" cy="32.2895" r="1" transform="rotate(-170 36.1195 32.2895)" fill="#AE3F4A"/>
<circle cx="32.9056" cy="35.7847" r="1" transform="rotate(-170 32.9056 35.7847)" fill="#9A3A44"/>
<circle cx="33.3861" cy="36.2725" r="1" transform="rotate(-170 33.3861 36.2725)" fill="#AE3F4A"/>
<circle cx="34.4115" cy="33.0039" r="1" transform="rotate(-170 34.4115 33.0039)" fill="#AE3F4A"/>
<circle cx="35.2914" cy="33.772" r="1" transform="rotate(-170 35.2914 33.772)" fill="#9A3A44"/>
<circle cx="33.1478" cy="34.4094" r="1" transform="rotate(-170 33.1478 34.4094)" fill="#B04F58"/>
<circle cx="34.6537" cy="31.6287" r="1" transform="rotate(-170 34.6537 31.6287)" fill="#B04F58"/>
<circle cx="36.7513" cy="30.7971" r="1" transform="rotate(-170 36.7513 30.7971)" fill="#9A3A44"/>
<circle cx="35.2582" cy="30.1069" r="1" transform="rotate(-170 35.2582 30.1069)" fill="#AE3F4A"/>
<circle cx="33.4174" cy="30.3367" r="1" transform="rotate(-170 33.4174 30.3367)" fill="#9A3A44"/>
<circle cx="32.847" cy="32.2668" r="1" transform="rotate(-170 32.847 32.2668)" fill="#AE3F4A"/>
<circle cx="31.5912" cy="33.6282" r="1" transform="rotate(-170 31.5912 33.6282)" fill="#AE3F4A"/>
<circle cx="31.3539" cy="34.9741" r="1" transform="rotate(-170 31.3539 34.9741)" fill="#9A3A44"/>
<circle cx="31.9779" cy="29.5286" r="1" transform="rotate(-170 31.9779 29.5286)" fill="#AE3F4A"/>
<circle cx="31.6996" cy="31.1077" r="1" transform="rotate(-170 31.6996 31.1077)" fill="#9A3A44"/>
<circle cx="31.0218" cy="32.4062" r="1" transform="rotate(-170 31.0218 32.4062)" fill="#AE3F4A"/>
<circle cx="1" cy="1" r="1" transform="matrix(-0.984808 -0.173648 -0.173648 0.984808 35.9541 23.7261)" fill="#B04F58"/>
<circle cx="1" cy="1" r="1" transform="matrix(-0.984808 -0.173648 -0.173648 0.984808 36.418 26.8542)" fill="#B04F58"/>
<circle cx="1" cy="1" r="1" transform="matrix(-0.984808 -0.173648 -0.173648 0.984808 38.1045 28.3528)" fill="#9A3A44"/>
<circle cx="1" cy="1" r="1" transform="matrix(-0.984808 -0.173648 -0.173648 0.984808 36.4658 28.4905)" fill="#AE3F4A"/>
<circle cx="1" cy="1" r="1" transform="matrix(-0.984808 -0.173648 -0.173648 0.984808 34.8145 27.6453)" fill="#9A3A44"/>
<circle cx="1" cy="1" r="1" transform="matrix(-0.984808 -0.173648 -0.173648 0.984808 34.9385 25.6362)" fill="#AE3F4A"/>
<circle cx="1" cy="1" r="1" transform="matrix(-0.984808 -0.173648 -0.173648 0.984808 34.2236 23.9277)" fill="#AE3F4A"/>
<circle cx="1" cy="1" r="1" transform="matrix(-0.984808 -0.173648 -0.173648 0.984808 34.4609 22.5815)" fill="#9A3A44"/>
<circle cx="1" cy="1" r="1" transform="matrix(-0.984808 -0.173648 -0.173648 0.984808 33.1855 27.9121)" fill="#AE3F4A"/>
<circle cx="1" cy="1" r="1" transform="matrix(-0.984808 -0.173648 -0.173648 0.984808 33.4639 26.3333)" fill="#9A3A44"/>
<circle cx="1" cy="1" r="1" transform="matrix(-0.984808 -0.173648 -0.173648 0.984808 33.2705 24.8809)" fill="#AE3F4A"/>
<path d="M31.2006 12.4236L30.8931 16.4285C30.8824 16.5687 30.9704 16.6975 31.105 16.7385L34.032 17.6286C34.1934 17.6777 34.3636 17.5841 34.4085 17.4214L35.7481 12.5674C35.837 12.2453 35.4119 12.041 35.2159 12.3117L34.3498 13.5077C34.1861 13.7338 33.8294 13.6333 33.8078 13.355L33.7014 11.9902C33.6763 11.6686 33.2307 11.6078 33.1204 11.9109L32.6378 13.2368C32.5403 13.5047 32.1593 13.4984 32.0707 13.2275L31.7848 12.3533C31.6828 12.0413 31.2257 12.0963 31.2006 12.4236Z" fill="#D04F5C"/>
</svg>
