<svg width="50" height="50" viewBox="0 0 50 50" fill="none" xmlns="http://www.w3.org/2000/svg">
<path d="M8.76305 34.8941C10.4929 36.6354 12.5466 38.0167 14.8069 38.959C17.0671 39.9014 19.4896 40.3865 21.936 40.3865C24.3824 40.3865 26.8049 39.9014 29.0651 38.959C31.3254 38.0167 33.379 36.6354 35.1089 34.8941C36.8388 33.1528 38.2111 31.0856 39.1473 28.8104C40.0835 26.5353 40.5654 24.0968 40.5654 21.6343C40.5654 19.1717 40.0835 16.7332 39.1473 14.4581C38.2111 12.183 36.8388 10.1158 35.1089 8.37447L21.936 21.6343L8.76305 34.8941Z" fill="#377D59"/>
<path d="M10.468 33.1773C11.974 34.6932 13.7618 35.8957 15.7295 36.7161C17.6972 37.5366 19.8061 37.9588 21.9359 37.9588C24.0657 37.9588 26.1747 37.5366 28.1424 36.7161C30.1101 35.8957 31.8979 34.6932 33.4039 33.1773C34.9099 31.6614 36.1045 29.8617 36.9196 27.8811C37.7346 25.9004 38.1541 23.7776 38.1541 21.6337C38.1541 19.4899 37.7346 17.367 36.9196 15.3864C36.1045 13.4057 34.9099 11.606 33.4039 10.0901L21.9359 21.6337L10.468 33.1773Z" fill="#CAEDCC"/>
<path d="M12.1065 31.5282C13.3973 32.8275 14.9296 33.8582 16.6161 34.5613C18.3026 35.2645 20.1101 35.6264 21.9355 35.6264C23.761 35.6264 25.5685 35.2645 27.255 34.5613C28.9415 33.8582 30.4738 32.8275 31.7646 31.5282C33.0554 30.229 34.0793 28.6865 34.7778 26.9889C35.4764 25.2913 35.8359 23.4718 35.8359 21.6344C35.8359 19.7969 35.4764 17.9774 34.7778 16.2799C34.0793 14.5823 33.0554 13.0398 31.7646 11.7405L21.9355 21.6344L12.1065 31.5282Z" fill="#DD5257"/>
<path d="M19.3839 30.4592C19.1038 31.0898 18.435 31.4048 17.8901 31.1627C17.3452 30.9206 17.1306 30.2132 17.4107 29.5826C17.6908 28.952 18.9456 27.9026 19.2736 28.0484C19.6017 28.1941 19.6641 29.8287 19.3839 30.4592Z" fill="#3F2F28"/>
<path d="M25.1308 30.0444C25.2801 30.718 24.9292 31.3687 24.3471 31.4978C23.765 31.6268 23.172 31.1852 23.0227 30.5116C22.8734 29.8379 23.2593 28.2483 23.6097 28.1707C23.9602 28.093 24.9815 29.3707 25.1308 30.0444Z" fill="#3F2F28"/>
<path d="M30.1452 27.0341C30.6221 27.5327 30.6595 28.271 30.2286 28.6832C29.7977 29.0953 29.0618 29.0252 28.5849 28.5265C28.1079 28.0279 27.6137 26.4686 27.8731 26.2205C28.1325 25.9724 29.6683 26.5355 30.1452 27.0341Z" fill="#3F2F28"/>
<path d="M31.6459 21.5968C32.3264 21.7104 32.7986 22.2793 32.7004 22.8674C32.6022 23.4555 31.9709 23.8401 31.2903 23.7265C30.6098 23.6129 29.28 22.6604 29.3391 22.3063C29.3982 21.9522 30.9653 21.4832 31.6459 21.5968Z" fill="#3F2F28"/>
<path d="M30.3736 16.3099C31.0063 16.0345 31.712 16.2545 31.95 16.8012C32.1879 17.348 31.8679 18.0144 31.2352 18.2897C30.6025 18.5651 28.9685 18.4903 28.8252 18.1611C28.682 17.832 29.7409 16.5852 30.3736 16.3099Z" fill="#3F2F28"/>
</svg>
