<svg width="50" height="50" viewBox="0 0 50 50" fill="none" xmlns="http://www.w3.org/2000/svg">
<path d="M23.2461 26.3643L38.3154 13.3975" stroke="#8D5A3C" stroke-width="3" stroke-linecap="round" stroke-linejoin="round"/>
<rect x="10.0488" y="29.4446" width="17.8467" height="12.5771" rx="6.28857" transform="rotate(-40.7846 10.0488 29.4446)" fill="#B4764A"/>
<path fill-rule="evenodd" clip-rule="evenodd" d="M19.489 36.4536L12.7156 28.6022C12.9852 27.5739 13.5174 26.6045 14.3041 25.8028L22.4911 35.2927C21.5827 35.9534 20.5458 36.3377 19.489 36.4536Z" fill="#F7CF7A"/>
<path fill-rule="evenodd" clip-rule="evenodd" d="M23.8133 34.181L15.5977 24.658L17.8294 22.7326L26.045 32.2557L23.8133 34.181Z" fill="#F7CF7A"/>
<path fill-rule="evenodd" clip-rule="evenodd" d="M27.5136 30.9397L19.3467 21.4731C20.2499 20.8508 21.2719 20.4942 22.3099 20.3958L29.0138 28.1665C28.7643 29.1789 28.2617 30.1375 27.5136 30.9397Z" fill="#F7CF7A"/>
<path d="M28.0951 29.4955C22.9631 31.2795 19.2918 32.0549 13.3722 32.6718C13.0074 32.7098 12.8111 33.1082 13.0274 33.4044C13.6298 34.2297 14.7867 35.5935 16.107 36.0125C18.0433 36.6269 17.8565 40.0317 19.1557 39.6053C20.4549 39.1789 19.4891 36.3999 21.022 36.0125C22.842 35.5526 22.3478 39.7945 24.2154 39.6053C26.4468 39.3793 23.8448 35.8001 25.0792 33.9276C25.6402 33.0767 26.9038 32.0616 26.9038 32.0616L28.6308 30.3378C29.0107 29.9586 28.6022 29.3192 28.0951 29.4955Z" fill="#F5C242"/>
</svg>
