<svg width="51" height="51" viewBox="0 0 51 51" fill="none" xmlns="http://www.w3.org/2000/svg">
<path d="M15.5033 3.26984C11.845 8.31997 10.6653 11.7364 10.2621 18.5902C9.85894 25.4441 13.6657 32.0361 23.9698 36.3296V44.393C20.5869 45.242 19.0388 45.836 17.116 47.2152C15.1931 48.5944 17.116 48.4247 17.116 48.4247H34.0207C34.0207 48.4247 35.9436 48.5944 34.0207 47.2152C32.0978 45.836 30.5498 45.242 27.1668 44.393V36.3296C37.471 32.0361 41.2777 25.4441 40.8745 18.5902C40.4714 11.7364 39.2917 8.31997 35.6334 3.26984H15.5033Z" fill="#CDD9EB"/>
<path d="M24.7437 19.0307C28.4726 15.2545 34.5625 13.3394 37.2419 15.4024C42.8939 19.7542 35.1091 32.3355 24.7437 32.3355C14.3783 32.3355 11.9425 21.8887 12.2456 19.837C12.5486 17.7854 19.5617 21.4446 24.7437 19.0307Z" fill="#F4F3EA"/>
<path d="M26.3261 19.0304C21.5172 15.6865 15.5594 13.4883 13.8279 15.4021C8.37445 21.43 15.8438 33.1415 26.2389 32.903C36.634 32.6646 39.632 22.2558 38.8243 19.8368C38.0166 17.4177 31.5081 21.4443 26.3261 19.0304Z" fill="#FCFBE2"/>
</svg>
