<svg width="51" height="50" viewBox="0 0 51 50" fill="none" xmlns="http://www.w3.org/2000/svg">
<path d="M12.8004 35.186C12.8004 36.5726 12.0174 37.6111 12.8004 38.7366C14.3902 40.2845 15.4761 38.7353 17.003 39.3888C22.008 41.5306 29.1539 40.0287 33.959 35.186C38.8277 30.2792 40.4133 23.7998 37.9444 17.9402C37.4848 16.8494 39.1949 15.5196 37.4372 14.0273C36.1037 12.3738 35.1346 14.5294 33.5242 14.0273C27.9158 12.2783 22.8215 11.198 16.6737 17.9402C8.58682 27.2483 12.8003 34.1888 12.8004 35.186Z" fill="#F6C653"/>
<path d="M29.5081 11.1499C32.3043 11.6792 34.2792 13.6498 34.155 14.3057C34.0308 14.9617 31.4723 16.074 28.6761 15.5446C25.88 15.0153 23.946 12.8285 24.0293 12.3888C24.1125 11.9491 26.712 10.6205 29.5081 11.1499Z" fill="#75BD73"/>
</svg>
