<svg width="50" height="51" viewBox="0 0 50 51" fill="none" xmlns="http://www.w3.org/2000/svg">
<circle cx="16.9688" cy="17.0718" r="2.53906" fill="#F9D98F"/>
<circle cx="18.7178" cy="13.7202" r="2.53906" fill="#F9D98F"/>
<circle cx="21.2568" cy="17.0718" r="2.53906" fill="#F9D98F"/>
<circle cx="22.4609" cy="13.1108" r="2.53906" fill="#F9D98F"/>
<circle cx="25.4141" cy="13.1108" r="2.53906" fill="#F9D98F"/>
<circle cx="25" cy="17.0718" r="2.53906" fill="#F9D98F"/>
<circle cx="29.1562" cy="17.0718" r="2.53906" fill="#F9D98F"/>
<circle cx="33.0312" cy="17.0718" r="2.53906" fill="#F9D98F"/>
<circle cx="27.9531" cy="13.7202" r="2.53906" fill="#F9D98F"/>
<circle cx="31.6953" cy="13.7202" r="2.53906" fill="#F9D98F"/>
<circle cx="29.3008" cy="12.4902" r="2.53906" fill="#F9D98F"/>
<circle cx="26.0449" cy="11.1812" r="2.53906" fill="#F9D98F"/>
<circle cx="21.2568" cy="11.9937" r="2.53906" fill="#F9D98F"/>
<circle cx="24.0781" cy="11.1812" r="2.53906" fill="#F9D98F"/>
<path d="M14.4297 18.124H35.5704L33.4501 42.8677H16.9865L14.4297 18.124Z" fill="#D25339"/>
<path d="M18.7178 18.124H23.1634L23.5062 42.8677H20.1066L18.7178 18.124Z" fill="#E3E3E3"/>
<path d="M31.6953 18.124H27.2497L26.9069 42.8677H30.3065L31.6953 18.124Z" fill="#E3E3E3"/>
</svg>
