<svg width="50" height="50" viewBox="0 0 50 50" fill="none" xmlns="http://www.w3.org/2000/svg">
<path d="M15.0235 18.2765C6.77986 22.3115 8.11857 33.5701 14.393 38.8175C23.093 46.0934 33.5942 41.1913 35.0707 31.2158C35.9522 25.2597 36.1885 24.0883 37.5302 20.4469C38.8719 16.8054 37.087 13.9092 34.1719 11.9048C31.0872 9.78386 27.7613 9.66327 24.6061 12.526C21.1729 15.641 18.7767 16.4395 15.0235 18.2765Z" fill="#F4BA4E"/>
<path d="M37.9842 11.7455C36.4625 13.559 34.0554 14.0444 33.556 13.6253C33.0565 13.2063 33.1166 10.7514 34.6383 8.93791C36.16 7.12442 38.7318 6.77719 39.0665 7.05809C39.4013 7.33898 39.5059 9.932 37.9842 11.7455Z" fill="#2C6757"/>
</svg>
