<svg width="51" height="50" viewBox="0 0 51 50" fill="none" xmlns="http://www.w3.org/2000/svg">
<path d="M30.8546 21.5541C30.5692 25.2896 28.2516 28.6988 26.8058 30.2899V45.1969C31.7471 46.4603 32.7925 47.114 33.178 48.233H17.8223C18.2078 47.114 19.2534 46.4603 24.1948 45.1969V30.2905C22.749 28.6996 20.4309 25.2901 20.1454 21.5541C19.7405 16.2562 20.0974 9.06686 21.2351 1.76709H29.7649C30.9026 9.06686 31.2595 16.2562 30.8546 21.5541Z" fill="#C6D3EC"/>
<path d="M21.9634 21.5291C22.266 24.3869 23.8998 27.9794 25.4814 27.9794L25.4846 27.9794L25.4879 27.9794C27.2288 27.9794 28.799 23.9348 29.0423 21.5291C29.2074 19.8974 29.4545 15.9039 29.3402 12.826H21.8247C21.6416 15.8582 21.6607 18.6712 21.9634 21.5291Z" fill="#FAF8BE"/>
<circle cx="25.5385" cy="11.0785" r="0.6" fill="white"/>
<circle cx="28.1049" cy="9.17202" r="0.6" fill="white"/>
<circle cx="26.9047" cy="4.11929" r="0.6" fill="white"/>
</svg>
