<svg width="50" height="50" viewBox="0 0 50 50" fill="none" xmlns="http://www.w3.org/2000/svg">
<path d="M18.233 4.18762C15.8816 9.45839 14.896 14.7511 15.4103 19.6116C15.9834 23.5229 18.7038 25.6016 22.128 28.2182C22.6153 28.5905 23.1168 28.9737 23.6283 29.3746V42.7763C18.687 44.0397 17.6413 44.6934 17.2558 45.8124H32.6015C32.216 44.6934 31.1703 44.0397 26.229 42.7763V29.4869C26.7902 29.045 27.3397 28.6251 27.8723 28.2182C31.2966 25.6016 34.0169 23.5229 34.59 19.6116C35.1044 14.7511 34.1187 9.45839 31.7674 4.18762H18.233Z" fill="#CDD9EB"/>
<path d="M17.125 18.3204C17.125 20.0018 19.4159 23.5164 21.9818 25.4823C22.9286 26.3404 23.9391 26.9124 24.9402 26.8897C24.9878 26.8887 25.0357 26.8865 25.0838 26.8831C25.1318 26.8865 25.1797 26.8887 25.2273 26.8897C26.2284 26.9124 27.2389 26.3404 28.1858 25.4823C30.7516 23.5164 33.0425 20.0018 33.0425 18.3204H17.125Z" fill="#A52F4D"/>
</svg>
