<svg width="51" height="51" viewBox="0 0 51 51" fill="none" xmlns="http://www.w3.org/2000/svg">
<path d="M15.8617 3.26971C12.2034 8.31985 11.0237 11.7362 10.6205 18.5901C10.2173 25.444 14.0241 32.036 24.3282 36.3295V44.3929C20.9453 45.2419 19.3972 45.8358 17.4744 47.2151C15.5515 48.5943 17.4744 48.4246 17.4744 48.4246H34.3791C34.3791 48.4246 36.302 48.5943 34.3791 47.2151C32.4562 45.8358 30.9082 45.2419 27.5252 44.3929V36.3295C37.8294 32.036 41.6361 25.444 41.2329 18.5901C40.8298 11.7362 39.6501 8.31985 35.9918 3.26971H15.8617Z" fill="#CDD9EB"/>
<path d="M25.1021 19.0306C28.831 15.2544 34.9209 13.3393 37.6003 15.4023C43.2523 19.7541 35.4675 32.3354 25.1021 32.3354C14.7367 32.3354 12.3009 21.8886 12.604 19.8369C12.907 17.7853 19.9201 21.4444 25.1021 19.0306Z" fill="#90514E"/>
<path d="M26.6845 19.0303C21.8756 15.6863 15.9178 13.4882 14.1863 15.402C8.73285 21.4299 16.2022 33.1414 26.5973 32.9029C36.9924 32.6644 39.9904 22.2556 39.1827 19.8366C38.375 17.4176 31.8665 21.4441 26.6845 19.0303Z" fill="#B0352E"/>
</svg>
