<svg width="50" height="50" viewBox="0 0 50 50" fill="none" xmlns="http://www.w3.org/2000/svg">
<path d="M36.5948 34.1251C35.0722 35.6478 33.2965 36.8875 31.3691 37.7736C29.4418 38.6597 27.4005 39.1748 25.3618 39.2895C23.3231 39.4041 21.327 39.1161 19.4874 38.4419C17.6478 37.7677 16.0008 36.7204 14.6403 35.3599C13.2798 33.9995 12.2326 32.3524 11.5583 30.5128C10.8841 28.6732 10.5961 26.6771 10.7108 24.6384C10.8254 22.5998 11.3405 20.5585 12.2266 18.6311C13.1127 16.7038 14.3524 14.9281 15.8751 13.4054L26.2349 23.7653L36.5948 34.1251Z" fill="#996645"/>
<ellipse cx="26.2347" cy="23.7658" rx="14.651" ry="6.77855" transform="rotate(45 26.2347 23.7658)" fill="#DDDBD3"/>
<ellipse cx="26.249" cy="23.2422" rx="11.1521" ry="4.0148" transform="rotate(45 26.249 23.2422)" fill="#B5AD9A"/>
</svg>
