<svg width="50" height="50" viewBox="0 0 50 50" fill="none" xmlns="http://www.w3.org/2000/svg">
<path d="M28.6521 15.262C26.635 17.6658 23.4443 18.3092 22.7823 17.7537C22.1203 17.1983 22.1999 13.9443 24.217 11.5405C26.234 9.13667 29.643 8.6764 30.0867 9.04874C30.5304 9.42107 30.6691 12.8582 28.6521 15.262Z" fill="#2C6757"/>
<path d="M29.4641 42.8119C36.1315 42.8119 42.0397 35.9203 42.0397 28.35C42.0397 20.7797 38.8006 14.2276 32.2314 14.6427C27.3209 14.953 27.2104 17.4556 24.9039 17.4556C23.6207 17.4556 23.8698 15.3971 18.0203 15.3971C12.1709 15.3971 7.95996 19.2695 7.95996 26.8398C7.95996 34.4102 13.7459 42.8109 20.4132 42.8109C24.387 42.8109 24.0143 41.5012 25.0236 41.5012C26.0328 41.5012 25.9773 42.8109 29.4641 42.8119Z" fill="#C13E2E"/>
</svg>
