<svg width="50" height="50" viewBox="0 0 50 50" fill="none" xmlns="http://www.w3.org/2000/svg">
<path d="M26.9145 20.6335C25.1848 16.1806 24.9149 13.6836 26.1216 9.19922" stroke="#377D59" stroke-width="2.5" stroke-linecap="round"/>
<path d="M18.3104 15.54L20.7825 17.9561C20.9125 18.0832 21.082 18.1622 21.263 18.1801L29.3158 18.9754C29.5344 18.997 29.7524 18.9277 29.9184 18.7838L32.857 16.237C33.4166 15.752 33.0736 14.8325 32.333 14.8325H30.6665C30.1512 14.8325 29.7703 14.3525 29.8874 13.8507L30.0249 13.2615C30.1781 12.6046 29.4996 12.0645 28.8939 12.3612L25.6079 13.9708C25.3339 14.1049 25.0075 14.0716 24.7663 13.8849L23.1302 12.6182C22.6044 12.2111 21.8404 12.5859 21.8404 13.2507V13.8268C21.8404 14.3413 21.3618 14.722 20.8605 14.6063L19.0494 14.1884C18.2616 14.0066 17.7321 14.9749 18.3104 15.54Z" fill="#377D59"/>
<ellipse cx="24.3954" cy="36.5512" rx="4.04774" ry="4.2494" fill="#CE4D47"/>
<ellipse cx="17.7382" cy="20.6337" rx="4.04774" ry="4.2494" fill="#CE4D47"/>
<ellipse cx="22.0995" cy="19.5541" rx="4.04774" ry="4.2494" fill="#D35751"/>
<ellipse cx="27.6679" cy="19.5541" rx="4.04774" ry="4.2494" fill="#D35F5A"/>
<ellipse cx="16.2997" cy="26.0394" rx="4.04774" ry="4.2494" fill="#D35F5A"/>
<ellipse cx="21.786" cy="25.4276" rx="4.04774" ry="4.2494" fill="#CE4D47"/>
<ellipse cx="18.0497" cy="29.6766" rx="4.04774" ry="4.2494" fill="#CE4D47"/>
<ellipse cx="27.2694" cy="26.0394" rx="4.04774" ry="4.2494" fill="#D35F5A"/>
<ellipse cx="20.952" cy="33.3817" rx="4.04774" ry="4.2494" fill="#D35751"/>
<ellipse cx="31.7177" cy="30.2889" rx="4.04774" ry="4.2494" fill="#CE4D47"/>
<ellipse cx="33.7001" cy="24.8832" rx="4.04774" ry="4.2494" fill="#CE4D47"/>
<ellipse cx="29.0477" cy="33.9266" rx="4.04774" ry="4.2494" fill="#D35F5A"/>
<ellipse cx="31.7177" cy="20.6337" rx="4.04774" ry="4.2494" fill="#CE4D47"/>
<ellipse cx="27.2694" cy="30.2889" rx="4.04774" ry="4.2494" fill="#CE4D47"/>
<ellipse cx="22.0995" cy="28.0526" rx="4.04774" ry="4.2494" fill="#D35F5A"/>
</svg>
