<svg width="51" height="51" viewBox="0 0 51 51" fill="none" xmlns="http://www.w3.org/2000/svg">
<path d="M15.9213 3.1958C12.2629 8.24594 11.0832 11.6623 10.6801 18.5162C10.2769 25.3701 14.0837 31.9621 24.3878 36.2556V44.319C21.0048 45.168 19.4568 45.7619 17.5339 47.1411C15.6111 48.5204 17.5339 48.3506 17.5339 48.3506H34.4387C34.4387 48.3506 36.3615 48.5204 34.4387 47.1411C32.5158 45.7619 30.9678 45.168 27.5848 44.319V36.2556C37.8889 31.9621 41.6957 25.3701 41.2925 18.5162C40.8893 11.6623 39.7096 8.24594 36.0513 3.1958H15.9213Z" fill="#8397B5"/>
<path d="M25.1617 18.9567C28.8905 15.1805 34.9805 13.2653 37.6599 15.3284C43.3119 19.6801 35.5271 32.2614 25.1617 32.2614C14.7963 32.2614 12.3605 21.8147 12.6635 19.763C12.9666 17.7114 19.9797 21.3705 25.1617 18.9567Z" fill="#E3C88E"/>
<path d="M26.7441 18.9564C21.9352 15.6124 15.9774 13.4143 14.2459 15.3281C8.79242 21.3559 16.2617 33.0675 26.6569 32.829C37.052 32.5905 40.0499 22.1817 39.2423 19.7627C38.4346 17.3437 31.9261 21.3702 26.7441 18.9564Z" fill="#F7D07A"/>
</svg>
