<svg width="51" height="50" viewBox="0 0 51 50" fill="none" xmlns="http://www.w3.org/2000/svg">
<path d="M26.4425 22.2993C25.1274 27.7256 22.7195 31.5599 23.9654 37.4076C24.4212 39.5469 25.5397 41.2684 28.2437 41.0104C30.1938 40.8244 31.7343 38.9914 31.7343 37.1607C31.7343 35.3301 31.1652 29.0189 32.4098 23.5378L26.4425 22.2993Z" fill="#E4B48D"/>
<path d="M30.9445 9.00671C24.41 9.75065 17.8638 13.2543 17.4359 18.4705C17.0081 23.6866 42.6971 29.0122 43.3312 22.4116C43.7396 18.1602 37.7474 8.23221 30.9445 9.00671Z" fill="#774B35"/>
<path d="M20.4681 26.6235C21.4797 30.7976 23.3319 33.747 22.3735 38.2451C22.0229 39.8907 21.1626 41.2149 19.0825 41.0165C17.5825 40.8734 16.3975 39.4634 16.3975 38.0552C16.3975 36.6471 16.8353 31.7924 15.8779 27.5762L20.4681 26.6235Z" fill="#EEBD96"/>
<path d="M17.0053 16.3987C22.0317 16.9709 27.0672 19.666 27.3963 23.6784C27.7254 27.6908 7.96489 31.7873 7.47713 26.71C7.16297 23.4397 11.7723 15.8029 17.0053 16.3987Z" fill="#A36647"/>
</svg>
