<svg width="51" height="51" viewBox="0 0 51 51" fill="none" xmlns="http://www.w3.org/2000/svg">
<path d="M15.6527 3.1958C11.9944 8.24594 10.8147 11.6623 10.4115 18.5162C10.0084 25.3701 13.8151 31.9621 24.1192 36.2556V44.319C20.7363 45.168 19.1883 45.7619 17.2654 47.1411C15.3425 48.5204 17.2654 48.3506 17.2654 48.3506H34.1701C34.1701 48.3506 36.093 48.5204 34.1701 47.1411C32.2472 45.7619 30.6992 45.168 27.3162 44.319V36.2556C37.6204 31.9621 41.4271 25.3701 41.024 18.5162C40.6208 11.6623 39.4411 8.24594 35.7828 3.1958H15.6527Z" fill="#8397B5"/>
<path d="M24.8932 18.9567C28.622 15.1805 34.7119 13.2653 37.3913 15.3284C43.0433 19.6801 35.2585 32.2614 24.8931 32.2614C14.5277 32.2614 12.0919 21.8147 12.395 19.763C12.6981 17.7114 19.7111 21.3705 24.8932 18.9567Z" fill="#F4F3EA"/>
<path d="M26.4755 18.9564C21.6667 15.6124 15.7088 13.4143 13.9773 15.3281C8.52387 21.3559 15.9932 33.0675 26.3883 32.829C36.7834 32.5905 39.7814 22.1817 38.9737 19.7627C38.166 17.3437 31.6576 21.3702 26.4755 18.9564Z" fill="#FCFBE2"/>
</svg>
