<svg width="50" height="50" viewBox="0 0 50 50" fill="none" xmlns="http://www.w3.org/2000/svg">
<path d="M35.9857 30.3594C40.0543 23.6551 41.2211 16.2469 35.9857 14.1987C31.5953 12.481 29.0494 17.1108 27.3365 22.6204C24.5492 31.586 5.29767 40.1739 7.5338 41.0573C13.0777 43.2475 30.5699 39.2837 35.9857 30.3594Z" fill="#E95840"/>
<path d="M34.8962 14.8723C35.6919 12.6089 35.858 11.3347 35.2734 9.05322" stroke="#377D59" stroke-width="2.5" stroke-linecap="round"/>
<path d="M30.5232 15.713C31.1952 14.9265 32.2556 13.885 33.3174 13.6528C34.8806 13.311 35.9948 13.6344 37.3193 14.5323C38.1762 15.1132 38.8086 16.3094 39.212 17.2979C39.399 17.7563 38.8824 18.0849 38.5159 17.7521L37.4815 16.8126C37.2785 16.6282 36.9648 16.6418 36.7785 16.843L34.7262 19.0594C34.4223 19.3877 33.8733 19.1822 33.8596 18.735L33.7925 16.5424C33.7832 16.2397 33.5091 16.0147 33.2105 16.0645L30.9587 16.44C30.5256 16.5122 30.238 16.0468 30.5232 15.713Z" fill="#377D59"/>
</svg>
