<svg width="51" height="51" viewBox="0 0 51 51" fill="none" xmlns="http://www.w3.org/2000/svg">
<path d="M15.2748 3.35718C11.6165 8.40731 10.4368 11.8237 10.0336 18.6776C9.63043 25.5314 13.4372 32.1235 23.7413 36.417V44.4803C20.3584 45.3294 18.8103 45.9233 16.8875 47.3025C14.9646 48.6817 16.8875 48.512 16.8875 48.512H33.7922C33.7922 48.512 35.715 48.6817 33.7922 47.3025C31.8693 45.9233 30.3213 45.3294 26.9383 44.4803V36.417C37.2425 32.1235 41.0492 25.5314 40.646 18.6776C40.2429 11.8237 39.0632 8.40731 35.4048 3.35718H15.2748Z" fill="#8397B5"/>
<path d="M24.5152 19.118C28.2441 15.3419 34.334 13.4267 37.0134 15.4897C42.6654 19.8415 34.8806 32.4228 24.5152 32.4228C14.1498 32.4228 11.714 21.976 12.0171 19.9244C12.3201 17.8727 19.3332 21.5319 24.5152 19.118Z" fill="#D7AEA3"/>
<path d="M26.0976 19.1178C21.2887 15.7738 15.3309 13.5756 13.5994 15.4895C8.14594 21.5173 15.6152 33.2289 26.0104 32.9904C36.4055 32.7519 39.4034 22.3431 38.5958 19.9241C37.7881 17.5051 31.2796 21.5316 26.0976 19.1178Z" fill="#EDA28D"/>
</svg>
