<svg width="50" height="51" viewBox="0 0 50 51" fill="none" xmlns="http://www.w3.org/2000/svg">
<path d="M15.7571 13.1979C15.7376 12.6209 15.7279 12.3323 15.8341 12.1111C15.9275 11.9165 16.0813 11.7574 16.2726 11.6575C16.4901 11.5438 16.7788 11.5438 17.3562 11.5438H33.9426C34.52 11.5438 34.8087 11.5438 35.0263 11.6575C35.2175 11.7574 35.3714 11.9165 35.4648 12.1111C35.571 12.3323 35.5612 12.6209 35.5417 13.1979L34.7025 37.9979C34.6841 38.5408 34.675 38.8122 34.5635 39.0188C34.4654 39.2006 34.3134 39.3475 34.1284 39.4394C33.9182 39.5438 33.6466 39.5438 33.1034 39.5438H18.1954C17.6522 39.5438 17.3806 39.5438 17.1704 39.4394C16.9854 39.3475 16.8335 39.2006 16.7353 39.0188C16.6239 38.8122 16.6147 38.5408 16.5963 37.9979L15.7571 13.1979Z" fill="#8397B5"/>
<path d="M33.6893 25.7929C33.7041 25.3806 33.7116 25.1745 33.6432 24.9893C33.5855 24.8332 33.4749 24.6761 33.3473 24.5692C33.196 24.4425 33.0143 24.3847 32.6509 24.2692C30.1321 23.469 28.3403 23.5858 25.6119 24.6493C23.4096 25.8739 21.8785 26.0959 20.0233 25.5866C19.1012 25.3335 18.6402 25.207 18.3636 25.291C18.0996 25.3712 17.9276 25.5075 17.7892 25.7462C17.6442 25.9962 17.6598 26.4155 17.6911 27.254L18.0369 36.5294C18.0571 37.0705 18.0671 37.3411 18.1789 37.5469C18.2772 37.728 18.4291 37.8743 18.6137 37.9658C18.8235 38.0698 19.0943 38.0698 19.6358 38.0698H31.7039C32.246 38.0698 32.517 38.0698 32.727 37.9656C32.9118 37.874 33.0637 37.7274 33.1619 37.5461C33.2736 37.34 33.2833 37.0691 33.3028 36.5274L33.6893 25.7929Z" fill="#C17A1F"/>
<path d="M17.6032 25.7981C17.5864 25.3842 17.578 25.1772 17.6462 24.991C17.7037 24.8342 17.8148 24.6758 17.9428 24.5685C18.0947 24.4411 18.277 24.3835 18.6416 24.2683C21.1701 23.469 23.0083 23.5862 25.7357 24.6494C27.9593 25.8858 29.5101 25.716 31.396 24.9742C32.2215 24.6495 32.6342 24.4872 32.9333 24.554C33.2025 24.6142 33.4175 24.7665 33.5635 25.0006C33.7257 25.2606 33.7103 25.6793 33.6794 26.5168L33.3101 36.5288C33.2901 37.0701 33.2801 37.3408 33.1685 37.5466C33.0702 37.7278 32.9183 37.8742 32.7336 37.9658C32.5237 38.0698 32.2529 38.0698 31.7112 38.0698H19.6368C19.0969 38.0698 18.8269 38.0698 18.6175 37.9663C18.4331 37.8751 18.2813 37.7294 18.1828 37.5489C18.0709 37.3438 18.0599 37.074 18.0381 36.5346L17.6032 25.7981Z" fill="#D88A26"/>
<rect x="19.3789" y="27.0876" width="3.5" height="3.5" rx="0.4" transform="rotate(-11.0288 19.3789 27.0876)" fill="#EDEDED" fill-opacity="0.3"/>
<rect x="24.5723" y="31.4734" width="3.5" height="3.5" rx="0.4" transform="rotate(19.1877 24.5723 31.4734)" fill="#EDEDED" fill-opacity="0.3"/>
<rect x="28.7188" y="27.0876" width="3.5" height="3.5" rx="0.4" transform="rotate(7.39329 28.7188 27.0876)" fill="#EDEDED" fill-opacity="0.3"/>
</svg>
