<svg width="50" height="50" viewBox="0 0 50 50" fill="none" xmlns="http://www.w3.org/2000/svg">
<path d="M42.1524 15.1558C45.1525 19.0672 41.2445 24.2273 32.76 30.735C24.2755 37.2426 14.0467 42.9257 11.0466 39.0143C8.04651 35.1029 8.37791 26.0628 19.544 17.4984C30.7101 8.93387 39.1523 11.2444 42.1524 15.1558Z" fill="#E5A44F"/>
<path fill-rule="evenodd" clip-rule="evenodd" d="M12.1908 25.2244C12.6438 24.5132 13.159 23.7931 13.7413 23.0677C13.7764 23.108 13.8093 23.151 13.8397 23.1966C15.2305 25.2829 16.0121 26.3234 17.9215 27.88C18.4566 28.3161 18.5368 29.1035 18.1006 29.6386C17.6644 30.1737 16.877 30.2539 16.3419 29.8177C14.3837 28.2214 13.4245 27.0371 12.1908 25.2244ZM25.6526 13.7034C26.4492 13.3272 27.2253 13.0085 27.9796 12.7426C27.9923 12.7794 28.0035 12.8172 28.0129 12.8558C28.2607 13.8689 29.2184 15.6307 31.7154 17.5754C32.2601 17.9996 32.3577 18.785 31.9336 19.3297C31.5094 19.8744 30.724 19.972 30.1793 19.5478C27.5202 17.4769 26.1418 15.3803 25.6526 13.7034ZM20.4255 16.8403C20.5174 16.9628 20.5881 17.1044 20.6308 17.2611C20.8944 18.2287 21.16 18.9832 25.0474 22.8837C25.5347 23.3726 25.5334 24.1641 25.0444 24.6514C24.5554 25.1388 23.764 25.1374 23.2767 24.6485C19.8035 21.1636 18.8599 19.8632 18.3737 18.4297C18.7497 18.1188 19.1395 17.8083 19.5436 17.4984C19.8395 17.2714 20.1335 17.0521 20.4255 16.8403Z" fill="#EBBD61"/>
</svg>
