<svg width="51" height="51" viewBox="0 0 51 51" fill="none" xmlns="http://www.w3.org/2000/svg">
<path d="M28.8702 19.0392L32.7932 11.0322" stroke="#9F9351" stroke-width="2.5" stroke-linecap="round"/>
<path d="M27.3693 11.5168C25.7768 10.6159 25.0689 8.855 25.317 8.41644C25.5651 7.97788 27.4391 7.67771 29.0316 8.57865C30.6241 9.4796 31.2502 11.3851 31.0839 11.6791C30.9176 11.973 28.9618 12.4178 27.3693 11.5168Z" fill="#2C6757"/>
<path d="M27.2579 12.6442C28.1761 12.3449 28.7004 12.4014 29.3318 13.1509C29.4949 13.3446 29.7112 13.4904 29.9595 13.5401C31.7754 13.9032 32.9034 14.1685 34.0442 15.5622C34.1423 15.682 34.2639 15.7815 34.4008 15.854C35.4349 16.4017 35.608 16.8638 35.5458 17.7458C35.5779 18.7174 35.3849 19.3 35.0417 19.7796C34.5879 20.4139 34.9005 21.2674 35.2354 21.9717C35.2704 22.0453 35.3018 22.1253 35.3303 22.2126C35.3803 22.3659 35.4523 22.512 35.5546 22.6365C36.1081 23.3095 36.4152 23.9176 36.2723 24.9471C36.2201 25.3236 36.3409 25.7034 36.593 25.9879C37.0989 26.5587 37.1684 27.0558 36.8075 27.7802C36.6215 28.1535 36.6257 28.5947 36.8264 28.9603C37.2994 29.8216 37.2886 30.5459 36.7089 31.7473C36.6279 31.9151 36.59 32.1012 36.5985 32.2873C36.658 33.5954 36.3698 34.3566 35.4864 35.4293C35.357 35.5864 35.2754 35.7771 35.2439 35.9782C35.0334 37.3243 34.4456 37.9358 33.1229 38.6172C32.8971 38.7336 32.7256 38.93 32.6036 39.1527C32.2356 39.8242 31.6752 40.0948 30.6393 40.3191C30.3886 40.3734 30.1671 40.5171 30.0062 40.717C29.3949 41.4767 28.8276 41.7717 27.7062 41.5903C27.3606 41.5343 27.0068 41.6317 26.7386 41.8569C25.722 42.7105 24.7955 42.806 22.9163 41.8823C22.6641 41.7583 22.3734 41.7426 22.1016 41.8138C21.2487 42.0371 20.752 41.847 20.224 41.1858C20.0195 40.9298 19.723 40.7589 19.3959 40.7399C17.9964 40.6588 17.1591 40.3496 16.3269 39.0268C16.1795 38.7926 15.9528 38.6171 15.6874 38.5388C14.4426 38.1714 13.8651 37.6874 13.6328 36.4729C13.5779 36.1858 13.4221 35.9269 13.1918 35.747C12.3439 35.0844 12.0127 34.4179 12.0388 33.1701C12.0466 32.7953 11.8576 32.4513 11.5942 32.1845C11.0341 31.6171 11.1843 31.0361 11.4116 30.1956C11.4533 30.0413 11.456 29.8787 11.4239 29.7221C11.1403 28.3385 11.1821 27.407 12.1187 25.7503C12.2532 25.5126 12.2873 25.2329 12.2412 24.9636C12.0842 24.0469 12.355 23.4827 13.1023 22.7344C13.2647 22.5718 13.3729 22.3624 13.4141 22.1363C13.6813 20.6698 14.2616 20.1087 15.4691 19.5477C15.6472 19.4649 15.7989 19.3344 15.9145 19.1756C16.569 18.2761 17.1832 18.0852 18.1956 18.1425C18.5014 18.1598 18.8011 18.0524 19.0218 17.8402C19.6187 17.2662 20.1292 16.9554 21.1553 17.0974C21.5685 17.1545 21.984 17.0026 22.2593 16.6893C22.6391 16.2572 23.0314 15.993 23.6538 15.8198C24.0019 15.7229 24.2977 15.4832 24.4329 15.1482C24.9929 13.7609 25.5981 13.0757 27.2579 12.6442Z" fill="#94BB4C"/>
<path d="M26.439 18.605C25.2538 18.4724 24.9478 18.8826 24.5567 19.7916M21.7416 21.1358C20.752 20.803 20.4364 21.0147 20.0995 21.9199M17.1857 25.4715C16.5226 26.2643 16.4342 26.7528 16.9701 27.735M16.4526 32.2315C16.3998 33.4359 16.7397 33.8993 17.9862 34.2362M22.2582 26.2905C21.2894 26.7057 21.038 27.114 21.5227 28.3702M26.4253 24.1572C26.9977 25.4932 27.1123 26.2389 25.8113 27.5472M30.3384 19.9841C31.1247 20.7095 31.3271 21.1524 30.9693 22.0595M32.8333 25.0586C33.7293 26.459 33.7213 27.181 33.2084 28.4084M30.1851 28.4116C31.0011 29.7437 30.8068 30.3582 29.9283 31.343M32.828 33.3434C32.4075 35.0181 31.8927 35.3388 30.7261 35.4272M26.998 37.4234C26.0491 38.3219 25.3981 38.4115 24.0254 37.8344M25.0938 33.4353C24.2291 34.263 23.641 34.3049 22.4424 33.7649" stroke="#76A236" stroke-linecap="round" stroke-linejoin="round"/>
</svg>
