<svg width="50" height="50" viewBox="0 0 50 50" fill="none" xmlns="http://www.w3.org/2000/svg">
<path d="M26.2695 18.0639C29.1307 12.3745 36.1219 7.7947 37.3784 8.24971C38.6349 8.70472 38.8641 17.8177 35.8822 22.5893C33.2138 26.8592 26.4856 31.2089 25.0564 30.1884C23.6272 29.1679 23.4084 23.7533 26.2695 18.0639Z" fill="#377D59"/>
<path d="M16.2896 21.7568C14.2897 15.7107 15.9948 7.52873 17.205 6.962C18.4152 6.39528 25.0212 12.677 26.2867 18.1596C27.4191 23.0657 25.7373 30.899 24.0051 31.188C22.2728 31.4769 18.2895 27.803 16.2896 21.7568Z" fill="#75BD73"/>
<circle cx="31.5117" cy="32.5737" r="10.5" fill="#CF3F34"/>
<path d="M29.5937 26.6218C29.8199 25.8579 30.9018 25.8579 31.1279 26.6218L31.6501 28.3857C31.7154 28.6063 31.8725 28.7881 32.0813 28.8847L33.9449 29.7467C34.5637 30.0329 34.5637 30.9126 33.9449 31.1989L32.0813 32.0608C31.8725 32.1574 31.7154 32.3392 31.6501 32.5598L31.1279 34.3237C30.9018 35.0876 29.8199 35.0876 29.5937 34.3237L29.0716 32.5598C29.0063 32.3392 28.8492 32.1574 28.6403 32.0608L26.7768 31.1989C26.1579 30.9126 26.1579 30.0329 26.7768 29.7467L28.6403 28.8847C28.8492 28.7881 29.0063 28.6063 29.0716 28.3857L29.5937 26.6218Z" fill="#A8302D"/>
<circle cx="16.9141" cy="32.0737" r="11" fill="#D3493E"/>
<path d="M14.866 26.6217C15.0922 25.8579 16.1741 25.8579 16.4002 26.6217L16.5718 28.4898C16.6372 28.7104 16.9965 29.0951 17.2053 29.1917L19.2172 29.7466C19.836 30.0329 19.836 30.9125 19.2172 31.1988L16.9224 31.6741C16.7136 31.7707 16.4655 32.1554 16.4002 32.376V34.3237C16.1741 35.0876 15.0922 35.0876 14.866 34.3237L14.3439 32.5598C14.2786 32.3392 14.1215 32.1573 13.9126 32.0608L12.0491 31.1988C11.4302 30.9125 11.4302 30.0329 12.0491 29.7466L13.9126 28.8847C14.1215 28.7881 14.2786 28.6063 14.3439 28.3857L14.866 26.6217Z" fill="#A8302D"/>
</svg>
