<svg width="50" height="50" viewBox="0 0 50 50" fill="none" xmlns="http://www.w3.org/2000/svg">
<path d="M16.8682 13.9112L16.8594 13.8977L16.8701 13.857C17.0134 9.72628 19.2488 4.21899 19.2488 4.21899H30.7512C30.7512 4.21899 32.9866 9.72628 33.1299 13.857L33.1406 13.8977L33.1318 13.9112C33.3111 19.222 30.7204 22.149 26.3106 25.4583C26.3072 25.4608 26.3038 25.4634 26.3003 25.466V42.7449C31.2417 44.0082 32.2874 44.6619 32.6729 45.7809H17.3271C17.7126 44.6619 18.7583 44.0082 23.6997 42.7449V25.466C23.6962 25.4634 23.6928 25.4608 23.6894 25.4583C23.1412 25.0469 22.6211 24.6414 22.1309 24.2365C18.8178 21.4996 16.8725 18.7899 16.8595 14.466C16.859 14.284 16.8618 14.0991 16.8682 13.9112Z" fill="#CDD9EB"/>
<path d="M18.6426 16.6541C18.6527 16.6867 18.6629 16.7193 18.6733 16.752C19.7515 20.2016 23.2808 23.6798 24.925 23.6809C24.9498 23.6809 24.9745 23.6805 24.9993 23.6799C25.024 23.6805 25.0493 23.6809 25.074 23.6809C26.7182 23.6798 30.2475 20.2016 31.3258 16.752C31.3361 16.7193 31.3464 16.6867 31.3564 16.6541H18.6426Z" fill="#FAF8BE"/>
</svg>
