<svg width="50" height="50" viewBox="0 0 50 50" fill="none" xmlns="http://www.w3.org/2000/svg">
<path d="M37.7574 9.90238C35.0061 11.795 34.9146 11.9483 33.5123 13.3535M16.1152 36.2201L20.57 29.5571M33.5123 13.3535C32.8883 16.9556 32.1933 20.018 33.5123 22.5788M33.5123 13.3535C31.7594 14.7905 30.7253 15.7076 28.7017 17.5051M28.7017 17.5051C25.619 18.6954 23.8671 19.1681 20.57 18.0981M28.7017 17.5051C26.9946 19.3211 26.0704 20.4586 24.5501 23.0405M24.5501 23.0405C24.0998 26.4174 24.4004 29.2069 25.7363 31.8046M24.5501 23.0405L20.57 29.5571M20.57 29.5571C18.3318 29.8927 17.0637 30.0321 14.4619 29.0968" stroke="#377D59" stroke-width="2.5" stroke-linecap="round" stroke-linejoin="round"/>
<ellipse cx="16.6802" cy="35.8335" rx="2.48193" ry="1.64771" fill="#9C6C4B"/>
<path d="M28.4434 31.5612C28.4434 32.4712 27.4113 33.2089 26.1382 33.2089C24.8651 33.2089 23.833 32.4712 23.833 31.5612C23.833 30.6512 24.9854 29.7769 26.2585 29.7769C27.5316 29.7769 28.4434 30.6512 28.4434 31.5612Z" fill="#9C6C4B"/>
<path d="M36.1108 21.0619C36.1108 22.2053 34.9806 23.1323 33.5864 23.1323C32.1922 23.1323 30.9318 22.4668 30.9318 21.3234C30.9318 20.1799 32.062 19.2529 33.4562 19.2529C34.8504 19.2529 36.1108 19.9184 36.1108 21.0619Z" fill="#9C6C4B"/>
<path d="M23.1154 18.0763C23.1154 19.4384 22.1387 20.2373 20.9546 20.2373C19.7705 20.2373 18.8105 19.1331 18.8105 17.771C18.8105 16.4089 19.7705 15.3047 20.9546 15.3047C22.6186 15.3047 23.1154 16.7142 23.1154 18.0763Z" fill="#9C6C4B"/>
<path d="M22.114 14.159C22.7769 15.869 22.2853 18.9293 18.5915 19.086C14.7484 18.0536 12.6737 19.7855 12.0108 18.0755C11.3479 16.3655 13.2194 14.0454 16.1909 12.8935C19.1624 11.7416 21.4511 12.4489 22.114 14.159Z" fill="#D8D594"/>
<path d="M16.681 29.3613C16.681 30.5514 16.0538 31.4167 14.8696 31.4167C13.6855 31.4167 12.7256 30.452 12.7256 29.2618C12.7256 28.0717 13.6855 27.1069 14.8696 27.1069C16.0538 27.1069 16.681 28.1712 16.681 29.3613Z" fill="#9C6C4B"/>
<path d="M22.114 16.3938C22.7769 18.1038 22.2853 21.1642 18.5915 21.3209C14.7484 20.2885 12.6737 22.0204 12.0108 20.3104C11.3479 18.6003 13.2194 16.2803 16.1909 15.1284C19.1624 13.9765 21.4511 14.6838 22.114 16.3938Z" fill="#FEFCC6"/>
<path d="M33.8474 19.9938C32.1074 20.5735 30.0633 22.9035 32.2979 25.849C35.5436 28.1512 35.5324 30.8537 37.2723 30.274C39.0123 29.6943 39.6062 26.7733 38.5989 23.7497C37.5916 20.7262 35.5873 19.4141 33.8474 19.9938Z" fill="#D8D594"/>
<path d="M32.2702 20.931C30.5302 21.5107 28.4861 23.8408 30.7207 26.7862C33.9665 29.0884 33.9552 31.7909 35.6952 31.2113C37.4352 30.6316 38.0291 27.7105 37.0218 24.687C36.0144 21.6634 34.0102 20.3513 32.2702 20.931Z" fill="#FEFCC6"/>
<path d="M27.9236 30.1833C26.3661 30.2152 24.121 31.5902 25.1914 34.5425C27.2442 37.2277 26.5541 39.4171 28.1116 39.3852C29.6691 39.3534 30.8868 37.1337 30.8315 34.4272C30.7762 31.7208 29.4811 30.1515 27.9236 30.1833Z" fill="#D8D594"/>
<path d="M26.1687 30.9055C24.6113 30.9373 22.3661 32.3123 23.4366 35.2646C25.4893 37.9499 24.7992 40.1392 26.3567 40.1074C27.9142 40.0756 29.1319 37.8558 29.0767 35.1494C29.0214 32.443 27.7262 30.8737 26.1687 30.9055Z" fill="#FEFCC6"/>
<path d="M14.4942 25.724C15.498 26.8522 16.0001 29.3546 13.1957 30.5392C9.9338 30.8495 8.83208 32.7829 7.82828 31.6547C6.82448 30.5264 7.60008 28.1978 9.56063 26.4535C11.5212 24.7092 13.4904 24.5957 14.4942 25.724Z" fill="#D8D594"/>
<path d="M18.9956 35.8777C17.6956 35.0194 15.0667 34.8761 14.2712 37.914C14.4358 41.29 12.6244 42.7001 13.9244 43.5584C15.2245 44.4167 17.4874 43.2812 18.9789 41.0222C20.4704 38.7632 20.2956 36.736 18.9956 35.8777Z" fill="#D8D594"/>
<path d="M17.1411 35.4753C15.8411 34.617 13.2122 34.4737 12.4167 37.5117C12.5813 40.8876 10.7699 42.2978 12.07 43.1561C13.37 44.0144 15.6329 42.8789 17.1244 40.6199C18.6159 38.3608 18.4411 36.3336 17.1411 35.4753Z" fill="#FEFCC6"/>
<path d="M15.1368 27.4481C16.1406 28.5764 16.6427 31.0787 13.8383 32.2633C10.5764 32.5736 9.47466 34.507 8.47086 33.3788C7.46706 32.2506 8.24266 29.9219 10.2032 28.1776C12.1638 26.4333 14.133 26.3199 15.1368 27.4481Z" fill="#FEFCC6"/>
</svg>
