<svg width="51" height="50" viewBox="0 0 51 50" fill="none" xmlns="http://www.w3.org/2000/svg">
<path d="M36.8034 12.4205C31.1551 24.5537 22.9916 33.5354 11.0682 42.8037" stroke="#377D59" stroke-width="2.5" stroke-linecap="round" stroke-linejoin="round"/>
<path d="M12.754 34.2221C14.2741 36.2269 14.2089 38.8359 13.6568 39.2545C13.1047 39.6731 10.5751 39.0315 9.05502 37.0266C7.53497 35.0217 7.78216 32.2748 8.15225 31.9942C8.52233 31.7136 11.234 32.2172 12.754 34.2221Z" fill="#377D59"/>
<path d="M22.8488 31.1461C21.6312 33.09 21.2184 34.9463 19.7202 34.0079C18.222 33.0695 17.8962 30.7507 19.1138 28.8067C20.3313 26.8628 22.1545 25.8106 23.1859 26.4566C24.2173 27.1026 24.0664 29.2021 22.8488 31.1461Z" fill="#9D63C9"/>
<path d="M27.1146 35.5338C25.4003 37.137 23.2685 37.378 22.0411 36.0654C20.8137 34.7528 22.3403 33.8648 24.0547 32.2616C25.769 30.6585 27.8437 30.0914 28.6887 30.995C29.5337 31.8986 28.8289 33.9307 27.1146 35.5338Z" fill="#9D63C9"/>
<path d="M25.7569 32.8195C23.6135 35.3354 21.9335 35.9964 20.7454 34.9842C19.5573 33.972 19.245 32.4583 21.8053 29.453C23.561 27.3921 25.869 26.475 26.9602 27.4047C28.0514 28.3343 27.5126 30.7586 25.7569 32.8195Z" fill="#C49AE4"/>
<path d="M36.3206 12.1215C35.6218 14.1348 35.6334 15.9016 34.0818 15.3629C32.5301 14.8243 31.7535 12.792 32.4524 10.7787C33.1512 8.76541 34.5837 7.43389 35.6519 7.80469C36.7201 8.17549 37.0195 10.1082 36.3206 12.1215Z" fill="#9D63C9"/>
<path d="M41.0949 15.2097C39.8753 17.0175 37.9949 17.6785 36.6107 16.7448C35.2266 15.811 36.4247 14.6897 37.6442 12.8819C38.8637 11.0741 40.6248 10.1296 41.5777 10.7724C42.5305 11.4152 42.3144 13.4018 41.0949 15.2097Z" fill="#9D63C9"/>
<path d="M39.3017 13.0329C37.7081 16.0927 36.4991 16.7039 35.2129 16.034C33.9268 15.3642 33.4658 13.7967 35.024 10.805C36.186 8.57396 38.0855 7.26413 39.2668 7.87936C40.448 8.4946 40.4637 10.8019 39.3017 13.0329Z" fill="#C49AE4"/>
<path d="M30.7304 21.8767C29.8657 23.9195 29.756 25.7552 28.1816 25.0888C26.6072 24.4224 25.9408 22.2582 26.8055 20.2154C27.6701 18.1726 29.2497 16.8885 30.3336 17.3473C31.4174 17.806 31.5951 19.8339 30.7304 21.8767Z" fill="#9D63C9"/>
<path d="M35.4761 25.4133C34.0849 27.2067 32.0863 27.7636 30.7131 26.6984C29.3399 25.6332 30.6616 24.5512 32.0528 22.7578C33.444 20.9643 35.3382 20.1048 36.2835 20.8381C37.2288 21.5714 36.8673 23.6198 35.4761 25.4133Z" fill="#9D63C9"/>
<path d="M33.7639 23.0291C31.8978 26.097 30.6001 26.6484 29.3105 25.864C28.0209 25.0796 27.6502 23.42 29.4748 20.4202C30.8355 18.1833 32.8986 16.9539 34.083 17.6743C35.2674 18.3947 35.1246 20.7922 33.7639 23.0291Z" fill="#C49AE4"/>
</svg>
