<svg width="50" height="50" viewBox="0 0 50 50" fill="none" xmlns="http://www.w3.org/2000/svg">
<path d="M32.7111 10.2147L8.29139 22.744L7.45433 27.6479L12.3188 31.8606L36.0287 20.6599L36.7638 12.893C35.4982 10.1388 34.5668 9.77301 32.7111 10.2147Z" fill="#C0855A"/>
<path d="M37.1124 12.5304C26.9483 16.5016 14.8836 23.4392 14.8836 23.4392L18.3245 26.8721L15.6335 31.9428L40.8716 19.3385C43.4866 14.5463 39.8862 11.4467 37.1124 12.5304Z" fill="#C69971"/>
<path fill-rule="evenodd" clip-rule="evenodd" d="M11.5661 32.4629C13.9268 32.8658 17.5875 32.13 18.9755 28.343C19.9263 25.1666 17.8501 23.1755 15.5098 23.4155C14.7311 23.4953 14.1586 23.5857 13.661 24.19C13.0309 24.9551 13.0371 25.8559 13.5157 26.7239C13.8264 27.2875 14.4011 27.7418 14.7609 27.8032C15.1525 27.8701 15.6253 27.7386 16.4171 27.202C16.6795 27.0242 17.0367 27.0928 17.2144 27.3552C17.2972 27.4774 17.3266 27.6202 17.3075 27.7558C17.286 27.9113 17.201 28.0574 17.061 28.1524C16.2091 28.7299 15.4147 29.0795 14.5677 28.9349C13.848 28.812 13.456 27.8511 12.5408 27.6752C11.6605 27.506 10.9653 28.1899 10.2753 28.0447C9.48835 27.8791 8.87507 27.3543 8.25546 26.6931C8.03836 26.4618 8.0503 26.0987 8.28158 25.8818C8.51285 25.665 8.87615 25.6768 9.09281 25.908C9.68901 26.5437 9.84409 26.7675 10.2622 26.8556C10.3575 26.8756 10.7102 26.9522 10.8236 26.9515C11.1539 26.9491 11.3269 27.0014 11.8403 26.4892C12.3537 25.977 12.6939 24.7655 12.2313 23.9459C10.6093 21.0724 6.24726 22.5335 6.0795 26.2779C6.09942 29.9859 9.56624 32.1215 11.5661 32.4629Z" fill="#9D6D4A"/>
<path d="M34.815 18.6411L12.8516 35.1005V40.0753L18.3555 43.4096L39.8427 28.3791L39.2606 20.5992C37.5496 18.0973 36.5698 17.8934 34.815 18.6411Z" fill="#BB8258"/>
<path d="M39.5432 20.1833C30.1922 25.8081 19.4668 34.6767 19.4668 34.6767L23.4363 37.4817L21.6369 42.9329L44.3943 26.2618C46.1657 21.0978 42.0951 18.6483 39.5432 20.1833Z" fill="#D3A073"/>
<path fill-rule="evenodd" clip-rule="evenodd" d="M17.7144 44.13C20.1092 44.13 23.5939 42.7887 24.3249 38.8221C24.7277 35.531 22.3461 33.9177 20.0795 34.548C19.3253 34.7578 18.7762 34.9432 18.3874 35.6225C17.895 36.4828 18.0527 37.3697 18.6705 38.1448C19.0716 38.648 19.7145 38.9992 20.0795 38.9992C20.4769 38.9992 20.9208 38.79 21.611 38.1279C21.8397 37.9085 22.2034 37.916 22.4227 38.1448C22.5249 38.2513 22.5778 38.3871 22.5819 38.524C22.5868 38.6809 22.5276 38.8392 22.4056 38.9564C21.663 39.669 20.9388 40.1472 20.0795 40.1472C19.3494 40.1472 18.8013 39.2659 17.8695 39.2465C16.9733 39.2279 16.4031 40.019 15.6986 39.992C14.8949 39.9611 14.2021 39.547 13.4801 38.9995C13.2272 38.8081 13.1778 38.4481 13.3693 38.1954C13.5608 37.9428 13.9209 37.8932 14.1734 38.0847C14.8681 38.6111 15.0586 38.8056 15.4855 38.8221C15.5828 38.8258 15.9434 38.8419 16.0551 38.8221C16.3802 38.7642 16.5596 38.7866 16.9795 38.1954C17.3994 37.6041 17.531 36.3526 16.937 35.6225C14.8547 33.0629 10.8006 35.2371 11.2653 38.9564C11.9088 42.6081 15.6855 44.13 17.7144 44.13Z" fill="#936646"/>
</svg>
