<svg width="50" height="51" viewBox="0 0 50 51" fill="none" xmlns="http://www.w3.org/2000/svg">
<path d="M24.1874 20.5915C25.1336 16.3287 25.0302 13.7451 28.2714 11.2456" stroke="#805A4B" stroke-width="2.5" stroke-linecap="round"/>
<path d="M27.4043 16.5126C25.6634 15.2812 24.6156 15.4356 22.6847 16.5126C19.1432 15.2218 16.9228 14.9016 13.889 16.5126C10.0164 18.5689 8.73552 22.0229 8.7551 26.4075C8.78389 32.8542 13.1667 39.61 19.6098 39.3951C20.8306 39.3544 21.62 39.3521 22.6847 38.8231C24.6369 40.2152 25.6479 39.96 27.4043 38.8231C27.4043 38.8231 29.5667 39.4519 30.9796 39.3951C35.6007 39.2093 38.0459 35.7038 39.7036 31.3862C41.7533 26.0475 41.4715 20.0091 36.5572 17.0846C33.4795 15.2531 31.1936 15.3041 27.4043 16.5126Z" fill="#E99535"/>
<path d="M17.3708 27.5949C17.4559 22.3901 17.3708 15.9356 25.3904 15.6854C32.9155 15.4505 33.1878 22.885 32.9155 27.9469C32.6542 32.8036 32.4199 39.7979 25.3904 39.7979C18.3614 39.7979 17.2841 32.9021 17.3708 27.5949Z" fill="#F1A23F"/>
</svg>
