<svg width="50" height="51" viewBox="0 0 50 51" fill="none" xmlns="http://www.w3.org/2000/svg">
<path d="M13 12.8041C13 12.244 13 11.964 13.109 11.7501C13.2049 11.5619 13.3578 11.409 13.546 11.3131C13.7599 11.2041 14.0399 11.2041 14.6 11.2041H34.4C34.9601 11.2041 35.2401 11.2041 35.454 11.3131C35.6422 11.409 35.7951 11.5619 35.891 11.7501C36 11.964 36 12.244 36 12.8041V37.6041C36 38.1642 36 38.4442 35.891 38.6581C35.7951 38.8463 35.6422 38.9992 35.454 39.0951C35.2401 39.2041 34.9601 39.2041 34.4 39.2041H14.6C14.0399 39.2041 13.7599 39.2041 13.546 39.0951C13.3578 38.9992 13.2049 38.8463 13.109 38.6581C13 38.4442 13 38.1642 13 37.6041V12.8041Z" fill="#8397B5"/>
<path d="M34.4026 25.5361C34.4217 25.0964 34.4313 24.8766 34.3585 24.6843C34.2963 24.5202 34.1804 24.3621 34.0426 24.2534C33.8812 24.126 33.6799 24.072 33.2772 23.9639C30.1562 23.1261 27.9704 23.2311 24.6172 24.3096C21.7014 25.6475 19.7565 25.7887 17.2096 25.0871C16.3722 24.8564 15.9534 24.741 15.6756 24.8259C15.4198 24.9041 15.2332 25.0531 15.1002 25.2851C14.9558 25.5372 14.974 25.9397 15.0104 26.7446L15.4377 36.2023C15.4619 36.7394 15.4741 37.0079 15.5863 37.212C15.6851 37.3916 15.8367 37.5365 16.0207 37.6271C16.2296 37.7301 16.4984 37.7301 17.036 37.7301H32.3388C32.8772 37.7301 33.1463 37.7301 33.3555 37.6269C33.5395 37.5362 33.6912 37.391 33.7899 37.211C33.9021 37.0066 33.9138 36.7377 33.9373 36.1998L34.4026 25.5361Z" fill="#C5741F"/>
<path d="M14.8555 25.4827C14.8555 25.0608 14.8555 24.8499 14.9314 24.6663C14.9962 24.5096 15.1112 24.3594 15.2457 24.2559C15.4031 24.1348 15.5959 24.0828 15.9816 23.9787C19.1441 23.1249 21.3948 23.2248 24.7676 24.3097C27.736 25.6717 29.715 25.3272 32.3374 24.3917C33.081 24.1264 33.4529 23.9937 33.7402 24.0614C33.9944 24.1213 34.2087 24.2724 34.3506 24.4917C34.5109 24.7396 34.5109 25.1247 34.5109 25.895V36.1301C34.5109 36.6901 34.5109 36.9702 34.4019 37.1841C34.306 37.3722 34.153 37.5252 33.9649 37.6211C33.7509 37.7301 33.4709 37.7301 32.9109 37.7301H16.4555C15.8954 37.7301 15.6154 37.7301 15.4015 37.6211C15.2133 37.5252 15.0603 37.3722 14.9645 37.1841C14.8555 36.9702 14.8555 36.6901 14.8555 36.1301V25.4827Z" fill="#DF8423"/>
</svg>
