<svg width="50" height="50" viewBox="0 0 50 50" fill="none" xmlns="http://www.w3.org/2000/svg">
<path d="M16.9276 15.0361C20.1889 16.1153 23.0017 21.3984 23.0017 21.3984C20.1406 24.6108 18.4546 24.6928 15.286 24.2035C11.2606 23.5818 10.0357 20.5854 8.10082 16.6433C6.16594 12.7011 13.6013 13.9354 16.9276 15.0361Z" fill="#75BD73"/>
<path d="M27.1256 12.9713C28.6568 16.4056 26.456 22.5764 26.456 22.5764C21.7475 22.6298 20.4381 21.3261 18.498 18.4017C16.0333 14.6864 17.5546 11.4863 19.3177 7.01444C21.0808 2.54261 25.5638 9.46848 27.1256 12.9713Z" fill="#377D59"/>
<circle cx="16.3389" cy="27.7332" r="9.07812" fill="#565E90"/>
<circle cx="31.8086" cy="20.7061" r="9.79492" fill="#5F689F"/>
<circle cx="31.146" cy="34.426" r="10.4575" fill="#6E78B3"/>
<path d="M30.9597 14.8187C30.9568 13.882 32.1278 13.4558 32.7277 14.1752L33.5537 15.6745C33.7406 15.8986 34.1355 16.0868 34.4273 16.0909L35.9206 15.6745C36.8404 15.6873 37.2564 16.8304 36.5601 17.4314L35.9206 17.9446C35.6997 18.1352 35.077 19.1062 35.0779 19.398L35.0779 20.6324C35.0808 21.569 33.9098 21.9952 33.3099 21.2759L32.3768 20.157C32.19 19.9328 31.9145 19.8015 31.6228 19.7975L30.117 19.7765C29.1972 19.7637 28.7811 18.6206 29.4775 18.0196L30.6175 17.0356C30.8384 16.845 30.965 16.5674 30.9641 16.2756L30.9597 14.8187Z" fill="#4B5388"/>
<path d="M16.1188 22.8822C16.0856 22.1017 17.0759 21.7412 17.5522 22.3604L17.9114 22.8274C18.124 23.1039 18.4913 23.2108 18.8191 23.0915L19.4006 22.8798C20.1241 22.6165 20.7655 23.427 20.343 24.0706L19.9759 24.6298C19.7889 24.9146 19.8028 25.2866 20.0105 25.5566L20.407 26.0722C20.8807 26.6881 20.287 27.5496 19.5428 27.3261L18.9972 27.1623C18.6582 27.0605 18.2926 27.1936 18.0984 27.4894L17.7857 27.9657C17.3593 28.6152 16.3507 28.3369 16.3177 27.5606L16.2901 26.9107C16.2756 26.5703 16.0471 26.2765 15.7208 26.1785L15.0802 25.9861C14.3428 25.7647 14.3131 24.7315 15.0366 24.4682L15.6181 24.2565C15.9459 24.1372 16.1586 23.8193 16.1438 23.4708L16.1188 22.8822Z" fill="#4B5388"/>
<path d="M31.9409 31.5645C31.9077 30.784 32.8466 30.417 33.3229 31.0362L34.1363 32.3128C34.3489 32.5893 34.7162 32.6961 35.044 32.5768L36.2489 32.1383C36.9724 31.875 37.6138 32.6855 37.1913 33.3291L36.4567 34.448C36.2697 34.7328 36.2836 35.1047 36.4913 35.3748L37.0055 36.1411C37.4792 36.757 37.0024 37.6732 36.2489 37.5207L35.2424 37.3263C34.9034 37.2245 34.3305 37.0305 34.1363 37.3263L33.6721 38.6894C33.2456 39.3389 32.237 39.0606 32.204 38.2843L32.1476 36.9558C32.1331 36.6154 31.9046 36.3215 31.5783 36.2235L30.2964 35.8386C29.5591 35.6172 29.5294 34.584 30.2529 34.3207L31.4578 33.8821C31.7856 33.7628 31.9835 33.4967 31.9835 33.0964C31.9835 33.0964 31.9741 32.345 31.9409 31.5645Z" fill="#565E90"/>
</svg>
