<svg width="50" height="50" viewBox="0 0 50 50" fill="none" xmlns="http://www.w3.org/2000/svg">
<path d="M26.3365 23.1368C26.3397 20.2136 27.9863 19.1611 27.9863 16.3816C27.9863 11.582 24.454 7.69116 20.0964 7.69116C15.7388 7.69116 12.2064 11.582 12.2064 16.3816C12.2064 18.9239 13.5688 20.0934 13.5659 22.7938C13.5628 25.717 11.749 26.866 11.749 29.6457C11.749 34.445 15.2814 38.3359 19.639 38.3359C23.9966 38.3359 27.5289 34.445 27.5289 29.6457C27.5289 27.1034 26.3336 25.8372 26.3365 23.1368Z" fill="#DDC199"/>
<path d="M17.0517 13.7474C16.5323 14.866 16.5241 15.5054 17.0517 16.6245M17.0517 19.8286C17.4345 21.125 17.351 21.8765 17.0517 23.1634M16.6592 26.8252C16.2965 28.2597 16.3215 28.9455 16.6592 30.0293M20.2553 22.7057C20.2552 24.7984 20.2552 25.8452 20.2553 27.4137M20.2553 15.186V18.8478M23.3286 12.3743C23.984 13.9358 24.0841 14.7817 23.3286 16.1668M23.3286 20.9402C22.9215 22.6051 22.8487 23.5069 23.3286 24.9943M20.2553 31.0755V34.5411" stroke="#A99476" stroke-linecap="round" stroke-linejoin="round"/>
<path d="M36.8026 34.4235C34.2883 38.7785 29.4783 40.7087 26.0593 38.7347C22.6402 36.7607 21.9068 31.6301 24.4212 27.2751C26.9355 22.9201 35.6179 18.5261 37.1995 19.4392C38.7811 20.3524 39.317 30.0686 36.8026 34.4235Z" fill="#DFA469"/>
<path d="M28.7433 35.0728L30.9269 31.3777M32.2566 28.9224L32.8933 27.8406L33.53 26.7588L35.2398 23.9924M27.0635 31.3777C27.7824 28.4528 28.7402 27.1546 30.9269 25.1631M32.6062 34.065C34.7399 32.2132 35.3333 30.4679 35.7422 27.8862" stroke="#D28E57" stroke-linecap="round" stroke-linejoin="round"/>
</svg>
