<svg width="50" height="51" viewBox="0 0 50 51" fill="none" xmlns="http://www.w3.org/2000/svg">
<path d="M13 12.9522C13 12.3921 13 12.1121 13.109 11.8982C13.2049 11.71 13.3578 11.557 13.546 11.4612C13.7599 11.3522 14.0399 11.3522 14.6 11.3522H34.4C34.9601 11.3522 35.2401 11.3522 35.454 11.4612C35.6422 11.557 35.7951 11.71 35.891 11.8982C36 12.1121 36 12.3921 36 12.9522V37.7522C36 38.3122 36 38.5923 35.891 38.8062C35.7951 38.9943 35.6422 39.1473 35.454 39.2432C35.2401 39.3522 34.9601 39.3522 34.4 39.3522H14.6C14.0399 39.3522 13.7599 39.3522 13.546 39.2432C13.3578 39.1473 13.2049 38.9943 13.109 38.8062C13 38.5923 13 38.3122 13 37.7522V12.9522Z" fill="#CDD9EB"/>
<path d="M34.4026 25.6841C34.4217 25.2445 34.4313 25.0247 34.3585 24.8324C34.2963 24.6682 34.1804 24.5101 34.0426 24.4014C33.8812 24.2741 33.6799 24.22 33.2772 24.112C30.1562 23.2742 27.9704 23.3792 24.6172 24.4577C21.7014 25.7955 19.7565 25.9367 17.2096 25.2352C16.3722 25.0045 15.9534 24.8891 15.6756 24.974C15.4198 25.0522 15.2332 25.2011 15.1002 25.4332C14.9558 25.6853 14.974 26.0878 15.0104 26.8927L15.4377 36.3504C15.4619 36.8874 15.4741 37.156 15.5863 37.3601C15.6851 37.5397 15.8367 37.6846 16.0207 37.7752C16.2296 37.8781 16.4984 37.8781 17.036 37.8781H32.3388C32.8772 37.8781 33.1463 37.8781 33.3555 37.775C33.5395 37.6842 33.6912 37.539 33.7899 37.3591C33.9021 37.1547 33.9138 36.8857 33.9373 36.3479L34.4026 25.6841Z" fill="#CF8627"/>
<path d="M14.8555 25.6308C14.8555 25.2089 14.8555 24.998 14.9314 24.8144C14.9962 24.6577 15.1112 24.5074 15.2457 24.404C15.4031 24.2829 15.5959 24.2308 15.9816 24.1267C19.1441 23.273 21.3948 23.3729 24.7676 24.4577C27.736 25.8197 29.715 25.4753 32.3374 24.5398C33.081 24.2744 33.4529 24.1418 33.7402 24.2095C33.9944 24.2694 34.2087 24.4204 34.3506 24.6398C34.5109 24.8877 34.5109 25.2728 34.5109 26.0431V36.2782C34.5109 36.8382 34.5109 37.1182 34.4019 37.3322C34.306 37.5203 34.153 37.6733 33.9649 37.7692C33.7509 37.8782 33.4709 37.8782 32.9109 37.8782H16.4555C15.8954 37.8782 15.6154 37.8782 15.4015 37.7692C15.2133 37.6733 15.0603 37.5203 14.9645 37.3322C14.8555 37.1182 14.8555 36.8382 14.8555 36.2782V25.6308Z" fill="#EB9930"/>
</svg>
