<svg width="51" height="51" viewBox="0 0 51 51" fill="none" xmlns="http://www.w3.org/2000/svg">
<path d="M15.1429 2.77649C11.4846 7.82663 10.3049 11.243 9.90176 18.0969C9.49859 24.9507 13.3053 31.5428 23.6095 35.8363V43.8996C20.2265 44.7487 18.6785 45.3426 16.7556 46.7218C14.8327 48.101 16.7556 47.9313 16.7556 47.9313H33.6603C33.6603 47.9313 35.5832 48.101 33.6603 46.7218C31.7375 45.3426 30.1894 44.7487 26.8065 43.8996V35.8363C37.1106 31.5428 40.9174 24.9507 40.5142 18.0969C40.111 11.243 38.9313 7.82663 35.273 2.77649H15.1429Z" fill="#8397B5"/>
<path d="M24.3834 18.5374C28.1122 14.7612 34.2022 12.846 36.8816 14.9091C42.5336 19.2608 34.7488 31.8421 24.3834 31.8421C14.0179 31.8421 11.5822 21.3953 11.8852 19.3437C12.1883 17.292 19.2014 20.9512 24.3834 18.5374Z" fill="#A25765"/>
<path d="M25.9658 18.5371C21.1569 15.1931 15.199 12.9949 13.4676 14.9088C8.0141 20.9366 15.4834 32.6482 25.8785 32.4097C36.2737 32.1712 39.2716 21.7624 38.4639 19.3434C37.6563 16.9244 31.1478 20.9509 25.9658 18.5371Z" fill="#BE3B54"/>
</svg>
