<svg width="50" height="50" viewBox="0 0 50 50" fill="none" xmlns="http://www.w3.org/2000/svg">
<path d="M29.719 30.3548C28.8372 30.7802 28.4101 30.6904 27.7235 30.2301C24.4178 27.9962 22.5829 26.4189 19.3671 21.8738C18.916 20.9551 19.0118 20.5616 19.2424 19.8782L29.3975 8.10182C31.7766 5.72273 34.2403 8.10181 34.2403 8.10181L41.567 15.5132C41.567 15.5132 43.7417 18.3899 41.6825 20.3868L29.719 30.3548Z" fill="#C9C9C9"/>
<path d="M27.7847 28.7954C27.137 31.4172 26.5609 33.1381 24.7292 34.9693C23.4634 36.2347 21.6566 34.954 20.3017 33.7844C18.3721 32.1186 17.4733 31.2516 15.8118 29.2945C14.7108 27.9976 13.5335 26.1741 14.8141 25.0541C16.9614 23.1759 17.9689 22.7326 20.8126 21.8233C24.2786 23.9801 25.713 25.5808 27.7847 28.7954Z" fill="#EE7A64"/>
<ellipse cx="22.1578" cy="33.3768" rx="0.631836" ry="0.473877" transform="rotate(-135 22.1578 33.3768)" fill="#AD594A"/>
<ellipse cx="16.152" cy="27.3705" rx="0.631836" ry="0.473877" transform="rotate(-135 16.152 27.3705)" fill="#AD594A"/>
<ellipse cx="18.8199" cy="30.7086" rx="0.631836" ry="0.473877" transform="rotate(-135 18.8199 30.7086)" fill="#AD594A"/>
<ellipse cx="21.2643" cy="31.391" rx="0.631836" ry="0.473877" transform="rotate(-135 21.2643 31.391)" fill="#AD594A"/>
<ellipse cx="18.2623" cy="28.3886" rx="0.631836" ry="0.473877" transform="rotate(-135 18.2623 28.3886)" fill="#AD594A"/>
<circle cx="11.6348" cy="34.5196" r="1.14266" fill="#646464"/>
<circle cx="16.338" cy="38.3409" r="1.14266" fill="#646464"/>
<circle cx="11.6348" cy="39.211" r="1.14266" fill="#646464"/>
<circle cx="13.3604" cy="43.1773" r="1.14266" fill="#646464"/>
<circle cx="7.03915" cy="41.4967" r="1.14266" fill="#646464"/>
</svg>
