<svg width="51" height="50" viewBox="0 0 51 50" fill="none" xmlns="http://www.w3.org/2000/svg">
<path d="M37.2541 34.6447C35.6447 36.2541 33.7679 37.5644 31.7308 38.501C29.6937 39.4375 27.5362 39.9819 25.3814 40.1031C23.2267 40.2243 21.1169 39.9199 19.1725 39.2073C17.2282 38.4947 15.4873 37.3878 14.0494 35.9498C12.6114 34.5119 11.5045 32.771 10.7919 30.8267C10.0793 28.8823 9.77487 26.7725 9.89606 24.6178C10.0173 22.463 10.5617 20.3055 11.4982 18.2684C12.4348 16.2313 13.7451 14.3545 15.3545 12.7451L26.3043 23.6949L37.2541 34.6447Z" fill="#F39F44"/>
<ellipse cx="26.3046" cy="23.6956" rx="15.4854" ry="7.16455" transform="rotate(45 26.3046 23.6956)" fill="#F9DFD1"/>
<path d="M25.0719 21.3377L17.5326 14.1488C17.3484 13.9732 17.0483 14.0128 16.952 14.2484C16.3832 15.641 16.7497 17.5374 17.4577 19.1327C17.5 19.2281 17.5794 19.3017 17.677 19.3389L24.6533 22.0009C25.0613 22.1566 25.388 21.6391 25.0719 21.3377Z" fill="#EC705A"/>
<path d="M21.2155 25.1147C19.8633 23.946 19.1148 22.8717 18.5317 21.6733C18.3842 21.3702 18.6697 21.0472 18.9934 21.1416L25.4829 23.034C25.8552 23.1426 25.8707 23.6644 25.5054 23.7947L21.606 25.1863C21.4723 25.234 21.3229 25.2075 21.2155 25.1147Z" fill="#EC705A"/>
<path d="M25.591 29.6153C24.4478 28.822 23.7549 28.153 22.863 26.9896C22.7193 26.8022 22.7729 26.5319 22.9753 26.4103L26.3593 24.3775C26.6518 24.2018 27.0158 24.4494 26.9599 24.786L26.201 29.3528C26.1537 29.6379 25.8285 29.78 25.591 29.6153Z" fill="#EC705A"/>
<path d="M30.4804 33.0173C29.2351 32.5197 28.4676 32.0093 27.4992 30.9986C27.4215 30.9174 27.3829 30.8067 27.3916 30.6947L27.7504 26.082C27.7836 25.6554 28.3732 25.5718 28.5237 25.9724L30.9816 32.5145C31.101 32.8323 30.7956 33.1432 30.4804 33.0173Z" fill="#EC705A"/>
<path d="M36.4284 32.2996C35.9163 33.7915 35.1172 34.1059 33.2131 33.8236C33.0787 33.8037 32.9646 33.7146 32.9104 33.5899L29.6731 26.1455C29.4956 25.7374 30.0172 25.388 30.3271 25.7076L36.3369 31.9057C36.438 32.01 36.4755 32.1622 36.4284 32.2996Z" fill="#EC705A"/>
<path d="M34.2821 25.0052C35.0184 26.0691 35.5872 27.4853 36.0141 28.7236C36.148 29.1121 35.6754 29.4107 35.3751 29.1303L30.6117 24.6827C30.306 24.3973 30.5879 23.8935 30.991 24.0047L34.0653 24.8529C34.1531 24.8771 34.2302 24.9302 34.2821 25.0052Z" fill="#EC705A"/>
<path d="M30.4881 19.722C31.5187 20.8494 32.5635 21.9776 33.3806 23.1387C33.5878 23.4332 33.3112 23.8015 32.9643 23.705L29.5078 22.7438C29.2999 22.686 29.1753 22.4738 29.2262 22.2641L29.8007 19.8976C29.8765 19.5854 30.2714 19.4849 30.4881 19.722Z" fill="#EC705A"/>
<path d="M26.6178 16.2494C27.5801 16.8662 28.3083 17.4601 29.1162 18.3212C29.2183 18.4301 29.2491 18.5878 29.1976 18.7279L28.254 21.2966C28.1225 21.6545 27.6125 21.643 27.4972 21.2795L26.045 16.699C25.9344 16.3502 26.3097 16.052 26.6178 16.2494Z" fill="#EC705A"/>
<path d="M19.724 13.4236C21.6767 13.5913 23.3099 13.9615 24.6429 15.233C24.6915 15.2794 24.7268 15.3384 24.746 15.4029L26.1952 20.2555C26.3162 20.6607 25.8075 20.9521 25.5192 20.6426L19.4086 14.0837C19.1627 13.8198 19.3646 13.3927 19.724 13.4236Z" fill="#EC705A"/>
</svg>
