<svg width="51" height="50" viewBox="0 0 51 50" fill="none" xmlns="http://www.w3.org/2000/svg">
<path d="M31.2365 4.10034C31.2365 5.78275 31.373 6.5859 31.7996 8.08749C33.5681 12.0446 33.6164 14.7839 33.4931 16.3369C33.1212 21.0191 30.6172 23.3392 26.9029 26.1495V42.8637C31.8442 44.1271 32.8899 44.7808 33.2754 45.8997H17.9297C18.3152 44.7808 19.3608 44.1271 24.3022 42.8637V26.3042C20.4752 23.4233 17.8856 21.1048 17.5069 16.3369C17.3836 14.7839 17.4319 12.0446 19.2004 8.08749C19.627 6.5859 19.8777 5.86506 19.8777 4.10034H31.2365Z" fill="#CDD9EB"/>
<path d="M25.5604 24.3785C25.6759 24.3785 25.8 24.3565 25.931 24.3143C28.0035 23.7579 32.439 19.67 31.8092 15.249H19.253C18.6231 19.6713 23.0614 23.7603 25.1331 24.3148C25.2634 24.3567 25.3868 24.3785 25.5019 24.3785C25.5116 24.3785 25.5213 24.3784 25.5311 24.3782C25.541 24.3784 25.5507 24.3785 25.5604 24.3785Z" fill="#EDA976"/>
</svg>
