<svg width="50" height="50" viewBox="0 0 50 50" fill="none" xmlns="http://www.w3.org/2000/svg">
<path d="M16.5475 2.41919C14.5 8 10.9996 10 11 16.5C11.0004 23 15.5 28.5 23.4013 29.5L23.4013 43.5423C20.0184 44.3914 18.4703 44.9853 16.5475 46.3645C14.6246 47.7437 16.5475 47.574 16.5475 47.574H33.4522C33.4522 47.574 35.3751 47.7437 33.4522 46.3645C31.5293 44.9853 29.9813 44.3914 26.5983 43.5423V29.5C33.4522 28 38.4999 25 38.4999 16.5C38.4999 9.46912 36 8.5 33.4522 2.41919H16.5475Z" fill="#CDD9EB"/>
<path d="M24.2337 15.7735C27.281 12.5872 32.2579 10.9712 34.4475 12.712C39.0665 16.384 32.7046 27 24.2337 27C15.7628 27 13.7722 18.1851 14.0199 16.4539C14.2676 14.7227 19.9988 17.8103 24.2337 15.7735Z" fill="#EDA976" fill-opacity="0.6"/>
<path d="M25.2292 15.5734C21.1259 12.8197 16.0422 11.0096 14.5647 12.5856C9.91138 17.5493 16.2848 27.1934 25.1548 26.997C34.0248 26.8007 36.5829 18.2294 35.8937 16.2374C35.2045 14.2454 29.651 17.5611 25.2292 15.5734Z" fill="#EDA976"/>
</svg>
