<svg width="50" height="50" viewBox="0 0 50 50" fill="none" xmlns="http://www.w3.org/2000/svg">
<path d="M37.2541 34.6447C35.6447 36.2541 33.7679 37.5644 31.7308 38.501C29.6937 39.4375 27.5362 39.9819 25.3814 40.1031C23.2267 40.2243 21.1169 39.9199 19.1725 39.2073C17.2282 38.4947 15.4873 37.3878 14.0494 35.9498C12.6114 34.5119 11.5045 32.771 10.7919 30.8267C10.0793 28.8823 9.77487 26.7725 9.89606 24.6178C10.0173 22.463 10.5617 20.3055 11.4982 18.2684C12.4348 16.2313 13.7451 14.3545 15.3545 12.7451L26.3043 23.6949L37.2541 34.6447Z" fill="#A37653"/>
<ellipse cx="26.3046" cy="23.6956" rx="15.4854" ry="7.16455" transform="rotate(45 26.3046 23.6956)" fill="#80C479"/>
<ellipse cx="27.535" cy="23.1429" rx="4.08382" ry="2.00686" transform="rotate(45 27.535 23.1429)" fill="#F0E98F"/>
<ellipse cx="23.2406" cy="26.3286" rx="0.595215" ry="1.04663" transform="rotate(51.0154 23.2406 26.3286)" fill="#405028"/>
<ellipse cx="27.9137" cy="30.0834" rx="0.595215" ry="1.04663" transform="rotate(24.5735 27.9137 30.0834)" fill="#405028"/>
<ellipse cx="32.6861" cy="31.1003" rx="0.595215" ry="1.04663" transform="rotate(-14.9015 32.6861 31.1003)" fill="#405028"/>
<ellipse cx="34.8053" cy="28.1744" rx="0.463245" ry="0.814574" transform="rotate(-57.7822 34.8053 28.1744)" fill="#405028"/>
<ellipse cx="20.0823" cy="21.1587" rx="0.595215" ry="1.04663" transform="rotate(90 20.0823 21.1587)" fill="#405028"/>
<ellipse cx="19.8813" cy="16.4302" rx="0.595215" ry="1.04663" transform="rotate(125 19.8813 16.4302)" fill="#405028"/>
<ellipse cx="23.7125" cy="16.0443" rx="0.526117" ry="0.925128" transform="rotate(-25 23.7125 16.0443)" fill="#405028"/>
<ellipse cx="28.1354" cy="18.1414" rx="0.45" ry="0.791284" transform="rotate(2.94011 28.1354 18.1414)" fill="#405028"/>
<ellipse cx="31.4878" cy="21.4167" rx="0.45" ry="0.791284" transform="rotate(50.8505 31.4878 21.4167)" fill="#405028"/>
<ellipse cx="34.0484" cy="25.0967" rx="0.45" ry="0.791284" transform="rotate(78.5259 34.0484 25.0967)" fill="#405028"/>
</svg>
