<svg width="50" height="50" viewBox="0 0 50 50" fill="none" xmlns="http://www.w3.org/2000/svg">
<path d="M17.8115 23.5333C18.0878 17.4348 21.69 12.4134 25.8696 9.2501M25.8696 9.2501C26.7358 15.1672 27.0085 20.0664 30.6623 24.3093M25.8696 9.2501C27.4639 8.04344 28.4027 7.7301 29.6431 7.13816" stroke="#377D59" stroke-width="2.5" stroke-linecap="round" stroke-linejoin="round"/>
<path d="M27.4668 30.3728C27.4668 35.8956 22.9896 40.3728 17.4668 40.3728C11.9439 40.3728 7.4668 35.8956 7.4668 30.3728C7.4668 24.85 12.0478 21.4469 17.2832 23.1265C22.0463 21.2996 27.4668 24.85 27.4668 30.3728Z" fill="#C64A4C"/>
<path d="M41.3017 30.1208C41.7831 35.6226 37.7132 40.4729 32.2113 40.9543C26.7095 41.4356 21.8592 37.3657 21.3778 31.8639C20.8965 26.3621 25.1635 22.5727 30.5253 23.7896C35.1111 21.5545 40.8204 24.6189 41.3017 30.1208Z" fill="#A42D2F"/>
</svg>
