<svg width="50" height="51" viewBox="0 0 50 51" fill="none" xmlns="http://www.w3.org/2000/svg">
<path d="M13.065 13.2064C13.0424 12.6267 13.031 12.3368 13.1368 12.1144C13.2298 11.9188 13.3837 11.7588 13.5755 11.6582C13.7936 11.5438 14.0837 11.5438 14.6638 11.5438H34.3362C34.9163 11.5438 35.2064 11.5438 35.4245 11.6582C35.6163 11.7588 35.7702 11.9188 35.8632 12.1144C35.969 12.3368 35.9576 12.6267 35.935 13.2064L34.9649 38.0064C34.9438 38.5465 34.9332 38.8166 34.8214 39.022C34.7229 39.2028 34.5711 39.3488 34.3866 39.4401C34.177 39.5438 33.9067 39.5438 33.3661 39.5438H15.6339C15.0933 39.5438 14.823 39.5438 14.6134 39.4401C14.4289 39.3488 14.2771 39.2028 14.1786 39.022C14.0668 38.8166 14.0562 38.5465 14.0351 38.0064L13.065 13.2064Z" fill="#8397B5"/>
<path d="M34.4026 25.8758C34.4217 25.4362 34.4313 25.2164 34.3585 25.024C34.2963 24.8599 34.1804 24.7018 34.0426 24.5931C33.8812 24.4657 33.6799 24.4117 33.2772 24.3036C30.1562 23.4659 27.9704 23.5708 24.6172 24.6493C21.7014 25.9872 19.7565 26.1284 17.2096 25.4268C16.3722 25.1961 15.9534 25.0808 15.6756 25.1657C15.4198 25.2438 15.2332 25.3928 15.1002 25.6249C14.9558 25.8769 14.974 26.2794 15.0104 27.0844L15.4377 36.542C15.4619 37.0791 15.4741 37.3476 15.5863 37.5517C15.6851 37.7313 15.8367 37.8763 16.0207 37.9669C16.2296 38.0698 16.4984 38.0698 17.036 38.0698H32.3388C32.8772 38.0698 33.1463 38.0698 33.3555 37.9667C33.5395 37.8759 33.6912 37.7307 33.7899 37.5508C33.9021 37.3463 33.9138 37.0774 33.9373 36.5395L34.4026 25.8758Z" fill="#B5744C"/>
<path d="M14.916 25.8824C14.8943 25.4406 14.8835 25.2198 14.956 25.0262C15.0179 24.8612 15.1342 24.7018 15.2725 24.5925C15.4346 24.4644 15.6368 24.4104 16.0411 24.3024C19.1725 23.4659 21.416 23.5714 24.7676 24.6494C27.6953 25.9927 29.6605 25.6761 32.2298 24.7696C33.0068 24.4954 33.3953 24.3584 33.688 24.4322C33.9473 24.4977 34.1623 24.6571 34.3001 24.8862C34.4558 25.1449 34.4379 25.5456 34.4021 26.347L33.9464 36.5413C33.9224 37.0786 33.9104 37.3472 33.7982 37.5514C33.6994 37.7312 33.5478 37.8762 33.3638 37.9668C33.1548 38.0698 32.8859 38.0698 32.348 38.0698H17.0377C16.502 38.0698 16.2341 38.0698 16.0256 37.9674C15.842 37.8773 15.6906 37.733 15.5915 37.5541C15.479 37.3509 15.4659 37.0833 15.4396 36.5483L14.916 25.8824Z" fill="#CA8154"/>
<rect x="17.0859" y="28.3494" width="6" height="6" rx="0.6" transform="rotate(-11.0288 17.0859 28.3494)" fill="#EDEDED" fill-opacity="0.2"/>
<rect x="25.8086" y="29.0938" width="6" height="6" rx="0.6" transform="rotate(7.74729 25.8086 29.0938)" fill="#EDEDED" fill-opacity="0.2"/>
</svg>
