<svg width="50" height="51" viewBox="0 0 50 51" fill="none" xmlns="http://www.w3.org/2000/svg">
<path d="M13.065 13.0147C13.0424 12.435 13.031 12.1452 13.1368 11.9227C13.2298 11.7272 13.3837 11.5671 13.5755 11.4666C13.7936 11.3522 14.0837 11.3522 14.6638 11.3522H34.3362C34.9163 11.3522 35.2064 11.3522 35.4245 11.4666C35.6163 11.5671 35.7702 11.7272 35.8632 11.9227C35.969 12.1452 35.9576 12.435 35.935 13.0147L34.9649 37.8147C34.9438 38.3549 34.9332 38.625 34.8214 38.8304C34.7229 39.0112 34.5711 39.1572 34.3866 39.2484C34.177 39.3522 33.9067 39.3522 33.3661 39.3522H15.6339C15.0933 39.3522 14.823 39.3522 14.6134 39.2484C14.4289 39.1572 14.2771 39.0112 14.1786 38.8304C14.0668 38.625 14.0562 38.3549 14.0351 37.8147L13.065 13.0147Z" fill="#CDD9EB"/>
<path d="M34.4026 25.6841C34.4217 25.2445 34.4313 25.0247 34.3585 24.8324C34.2963 24.6682 34.1804 24.5101 34.0426 24.4014C33.8812 24.2741 33.6799 24.22 33.2772 24.112C30.1562 23.2742 27.9704 23.3792 24.6172 24.4577C21.7014 25.7955 19.7565 25.9367 17.2096 25.2352C16.3722 25.0045 15.9534 24.8891 15.6756 24.974C15.4198 25.0522 15.2332 25.2011 15.1002 25.4332C14.9558 25.6853 14.974 26.0878 15.0104 26.8927L15.4377 36.3504C15.4619 36.8874 15.4741 37.156 15.5863 37.3601C15.6851 37.5397 15.8367 37.6846 16.0207 37.7752C16.2296 37.8781 16.4984 37.8781 17.036 37.8781H32.3388C32.8772 37.8781 33.1463 37.8781 33.3555 37.775C33.5395 37.6842 33.6912 37.539 33.7899 37.3591C33.9021 37.1547 33.9138 36.8857 33.9373 36.3479L34.4026 25.6841Z" fill="#B9754B"/>
<path d="M14.916 25.6907C14.8943 25.249 14.8835 25.0281 14.956 24.8346C15.0179 24.6695 15.1342 24.5102 15.2725 24.4009C15.4346 24.2728 15.6368 24.2187 16.0411 24.1107C19.1725 23.2743 21.416 23.3797 24.7676 24.4577C27.6953 25.801 29.6605 25.4844 32.2298 24.5779C33.0068 24.3038 33.3953 24.1667 33.688 24.2406C33.9473 24.306 34.1623 24.4654 34.3001 24.6946C34.4558 24.9532 34.4379 25.3539 34.4021 26.1554L33.9464 36.3496C33.9224 36.8869 33.9104 37.1556 33.7982 37.3598C33.6994 37.5395 33.5478 37.6845 33.3638 37.7752C33.1548 37.8782 32.8859 37.8782 32.348 37.8782H17.0377C16.502 37.8782 16.2341 37.8782 16.0256 37.7758C15.842 37.6856 15.6906 37.5414 15.5915 37.3625C15.479 37.1592 15.4659 36.8917 15.4396 36.3566L14.916 25.6907Z" fill="#CA7F51"/>
<rect x="17.0859" y="28.1577" width="6" height="6" rx="0.6" transform="rotate(-11.0288 17.0859 28.1577)" fill="#EDEDED" fill-opacity="0.2"/>
<rect x="25.8086" y="28.9021" width="6" height="6" rx="0.6" transform="rotate(7.74729 25.8086 28.9021)" fill="#EDEDED" fill-opacity="0.2"/>
</svg>
