<svg width="51" height="51" viewBox="0 0 51 51" fill="none" xmlns="http://www.w3.org/2000/svg">
<path d="M15.6781 3.26978C12.0198 8.31991 10.8401 11.7363 10.4369 18.5902C10.0337 25.444 13.8405 32.0361 24.1446 36.3296V44.3929C20.7617 45.242 19.2136 45.8359 17.2908 47.2151C15.3679 48.5943 17.2908 48.4246 17.2908 48.4246H34.1955C34.1955 48.4246 36.1184 48.5943 34.1955 47.2151C32.2726 45.8359 30.7246 45.242 27.3416 44.3929V36.3296C37.6458 32.0361 41.4525 25.444 41.0494 18.5902C40.6462 11.7363 39.4665 8.31991 35.8082 3.26978H15.6781Z" fill="#CDD9EB"/>
<path d="M24.9186 19.0306C28.6474 15.2545 34.7373 13.3393 37.4167 15.4023C43.0687 19.7541 35.2839 32.3354 24.9185 32.3354C14.5531 32.3354 12.1173 21.8886 12.4204 19.837C12.7234 17.7853 19.7365 21.4445 24.9186 19.0306Z" fill="#6C4B41"/>
<path d="M26.5009 19.0304C21.692 15.6864 15.7342 13.4882 14.0027 15.4021C8.54926 21.4299 16.0186 33.1415 26.4137 32.903C36.8088 32.6645 39.8068 22.2557 38.9991 19.8367C38.1914 17.4177 31.6829 21.4442 26.5009 19.0304Z" fill="#853D28"/>
</svg>
