<svg width="50" height="51" viewBox="0 0 50 51" fill="none" xmlns="http://www.w3.org/2000/svg">
<path d="M13.065 13.4709C13.0424 12.8912 13.031 12.6013 13.1368 12.3789C13.2298 12.1834 13.3837 12.0233 13.5755 11.9227C13.7936 11.8083 14.0837 11.8083 14.6638 11.8083H34.3362C34.9163 11.8083 35.2064 11.8083 35.4245 11.9227C35.6163 12.0233 35.7702 12.1834 35.8632 12.3789C35.969 12.6013 35.9576 12.8912 35.935 13.4709L34.9649 38.2709C34.9438 38.8111 34.9332 39.0811 34.8214 39.2866C34.7229 39.4673 34.5711 39.6133 34.3866 39.7046C34.177 39.8083 33.9067 39.8083 33.3661 39.8083H15.6339C15.0933 39.8083 14.823 39.8083 14.6134 39.7046C14.4289 39.6133 14.2771 39.4673 14.1786 39.2866C14.0668 39.0811 14.0562 38.8111 14.0351 38.2709L13.065 13.4709Z" fill="#CDD9EB"/>
<path d="M34.4035 26.1403C34.4227 25.7007 34.4323 25.4809 34.3595 25.2886C34.2973 25.1244 34.1814 24.9663 34.0436 24.8576C33.8822 24.7302 33.6808 24.6762 33.2782 24.5681C30.1571 23.7304 27.9714 23.8353 24.6182 24.9139C21.7024 26.2517 19.7574 26.3929 17.2106 25.6913C16.3731 25.4606 15.9544 25.3453 15.6766 25.4302C15.4208 25.5084 15.2342 25.6573 15.1012 25.8894C14.9568 26.1415 14.975 26.5439 15.0113 27.3489L15.4387 36.8065C15.4629 37.3436 15.475 37.6121 15.5873 37.8162C15.6861 37.9959 15.8377 38.1408 16.0216 38.2314C16.2306 38.3343 16.4994 38.3343 17.037 38.3343H32.3398C32.8781 38.3343 33.1473 38.3343 33.3564 38.2312C33.5405 38.1404 33.6922 37.9952 33.7909 37.8153C33.903 37.6109 33.9148 37.3419 33.9382 36.8041L34.4035 26.1403Z" fill="#E7AD42" fill-opacity="0.6"/>
<path d="M14.916 26.1469C14.8943 25.7052 14.8835 25.4843 14.956 25.2908C15.0179 25.1257 15.1342 24.9663 15.2725 24.8571C15.4346 24.7289 15.6368 24.6749 16.0411 24.5669C19.1725 23.7305 21.416 23.8359 24.7676 24.9139C27.6953 26.2572 29.6605 25.9406 32.2298 25.0341C33.0068 24.76 33.3953 24.6229 33.688 24.6968C33.9473 24.7622 34.1623 24.9216 34.3001 25.1507C34.4558 25.4094 34.4379 25.8101 34.4021 26.6116L33.9464 36.8058C33.9224 37.3431 33.9104 37.6118 33.7982 37.816C33.6994 37.9957 33.5478 38.1407 33.3638 38.2314C33.1548 38.3343 32.8859 38.3343 32.348 38.3343H17.0377C16.502 38.3343 16.2341 38.3343 16.0256 38.2319C15.842 38.1418 15.6906 37.9976 15.5915 37.8187C15.479 37.6154 15.4659 37.3479 15.4396 36.8128L14.916 26.1469Z" fill="#E7AD42"/>
<rect x="17.0859" y="28.6139" width="6" height="6" rx="0.6" transform="rotate(-11.0288 17.0859 28.6139)" fill="#EDEDED" fill-opacity="0.2"/>
<rect x="25.8086" y="29.3583" width="6" height="6" rx="0.6" transform="rotate(7.74729 25.8086 29.3583)" fill="#EDEDED" fill-opacity="0.2"/>
</svg>
