<svg width="50" height="50" viewBox="0 0 50 50" fill="none" xmlns="http://www.w3.org/2000/svg">
<path d="M12.7601 17.1355C12.6581 15.9667 13.5793 14.9615 14.7525 14.9615H35.4335C36.6068 14.9615 37.528 15.9667 37.426 17.1355L35.3271 41.174C35.2369 42.2072 34.3719 43 33.3347 43H16.8514C15.8142 43 14.9491 42.2072 14.8589 41.174L12.7601 17.1355Z" fill="#D1D5DA"/>
<rect x="10.5" y="10.4615" width="29" height="4.5" rx="1" fill="#8C868D"/>
<path d="M12.7598 8.5C12.7598 7.67157 13.4313 7 14.2598 7H35.7403C36.5687 7 37.2403 7.67157 37.2403 8.5V10.4615H12.7598V8.5Z" fill="#8C868D"/>
<path d="M37.6177 14.9615H12.5723L14.1136 32.6154H36.0764L37.6177 14.9615Z" fill="#D95B6C"/>
<path d="M37.6177 14.9615H12.5723L13.1767 21.8846H37.0133L37.6177 14.9615Z" fill="#D1D5DA"/>
</svg>
