<svg width="50" height="50" viewBox="0 0 50 50" fill="none" xmlns="http://www.w3.org/2000/svg">
<path d="M29.6876 37.6173C23.1809 44.124 15.93 43.5789 10.5931 38.242C5.25616 32.905 4.95957 25.9027 11.4662 19.3961C16.9598 13.9025 25.3496 14.0596 30.6866 19.3965C35.0542 25.1368 36.1943 31.1106 29.6876 37.6173Z" fill="#E1A03B"/>
<path fill-rule="evenodd" clip-rule="evenodd" d="M33.8544 31.1455C34.0663 30.4409 34.1982 29.7422 34.2558 29.0483C34.3222 28.2554 34.2929 27.4692 34.1777 26.6892L32.1308 26.2878L31.9032 30.7629L33.8544 31.1455ZM33.6308 31.8132L31.8681 31.4675L31.6728 35.3105C32.5605 34.1284 33.204 32.9631 33.6308 31.8132ZM31.2099 30.6267L31.4374 26.1519L27.1239 25.3059L26.8964 29.781L31.2099 30.6267ZM26.8603 30.4856L31.1738 31.3315L30.9462 35.8062L26.6327 34.9604L26.8603 30.4856ZM26.5976 35.665L30.7236 36.4744C30.4101 36.8311 30.0732 37.1892 29.7138 37.5488C29.3964 37.8662 29.0771 38.1667 28.7568 38.4507C28.5429 38.6404 28.328 38.8225 28.1132 38.9973L27.9208 39.1516L27.7392 39.2939C27.6064 39.3967 27.4726 39.4968 27.3388 39.5942C27.1864 39.7048 27.0341 39.812 26.8818 39.9158C26.7655 39.9956 26.6484 40.0732 26.5312 40.1487L26.5038 40.1663L26.37 40.1401L26.5976 35.665ZM25.6757 40.0039L25.9032 35.5291L21.5917 34.6833L21.3642 39.1584L25.6757 40.0039ZM20.6698 39.0222L20.8974 34.5474L16.5859 33.7017L16.3583 38.1768L20.6698 39.0222ZM16.3222 38.8813L20.6337 39.727L20.5048 42.2729C19.5175 42.3455 18.54 42.2847 17.5829 42.0979C17.2997 42.0427 17.0185 41.9766 16.7392 41.8997C16.5517 41.8477 16.3642 41.7908 16.1777 41.7292L16.3222 38.8813ZM15.664 38.0405L15.8915 33.5654L11.578 32.7197L11.3505 37.1946L15.664 38.0405ZM11.3144 37.8994L15.6279 38.7454L15.4892 41.478C14.0029 40.8838 12.5839 39.9783 11.2695 38.792L11.3144 37.8994ZM10.6562 37.0583L10.8837 32.5835L6.88274 31.7988C7.28606 33.5547 8.13664 35.2412 9.39445 36.811L10.6562 37.0583ZM10.1327 37.6675L10.62 37.7632L10.6005 38.1555C10.4394 37.9944 10.2841 37.8315 10.1327 37.6675ZM21.329 39.8633L25.6044 40.7017C24.1405 41.5076 22.665 41.9983 21.2099 42.1985L21.329 39.8633ZM26.1669 30.3496L25.9394 34.8245L21.6269 33.9788L21.8544 29.5039L26.1669 30.3496ZM21.1601 29.3677L20.9325 33.8425L16.621 32.9971L16.8486 28.5222L21.1601 29.3677ZM16.1542 28.386L15.9267 32.8608L11.6142 32.0149L11.8417 27.5403L16.1542 28.386ZM11.1474 27.4041L10.9198 31.8789L6.74016 31.0591C6.59465 30.1284 6.57317 29.1807 6.68156 28.2227C6.74211 27.6809 6.84465 27.136 6.99016 26.5889L11.1474 27.4041ZM26.2021 29.6448L21.8905 28.7993L22.1181 24.3242L26.4296 25.1697L26.2021 29.6448ZM16.8847 27.8174L21.1962 28.6631L21.4238 24.188L17.1122 23.3425L16.8847 27.8174ZM16.1904 27.6814L11.8779 26.8354L12.1054 22.3603L16.4179 23.2063L16.1904 27.6814ZM11.1835 26.6995L11.4111 22.2241L9.34465 21.8191C8.35149 23.1816 7.6386 24.5537 7.19035 25.9163L11.1835 26.6995ZM32.3603 21.7798C33.1562 23.1533 33.7363 24.5425 34.0429 25.9509L32.1669 25.583L32.3603 21.7798ZM31.7011 20.9724L31.4736 25.447L27.1601 24.6011L27.3876 20.1267L31.7011 20.9724ZM26.6933 19.9905L26.4657 24.4651L22.1542 23.6194L22.3818 19.145L26.6933 19.9905ZM21.6874 19.0088L21.4599 23.4832L17.1484 22.6377L17.3759 18.1631L21.6874 19.0088ZM16.6816 18.0269L16.454 22.5015L12.1415 21.6558L12.2978 18.5801C12.5732 18.3433 12.8544 18.1191 13.1405 17.908C13.3534 17.7515 13.5693 17.6018 13.787 17.4592L16.6816 18.0269ZM11.5614 19.2583L11.4462 21.5195L9.81633 21.1997C10.0097 20.9556 10.2128 20.7119 10.4247 20.4687C10.7577 20.0869 11.1132 19.7065 11.4921 19.3276L11.5614 19.2583ZM31.3427 20.1904C31.1415 19.9023 30.9306 19.615 30.7128 19.3281C29.747 18.3618 28.6806 17.5654 27.5497 16.9416L27.4238 19.4219L31.3427 20.1904ZM26.7294 19.2856L26.8661 16.5894C26.3613 16.3469 25.8456 16.1374 25.3222 15.9612C24.8554 15.8042 24.3818 15.6738 23.9042 15.5698C23.6943 15.5242 23.4843 15.4836 23.2734 15.4482C23.0419 15.4094 22.8085 15.3767 22.5751 15.3503L22.4179 18.4402L26.7294 19.2856ZM21.7236 18.304L21.8769 15.29C20.4111 15.2021 18.9325 15.3586 17.498 15.7642L17.412 17.4585L21.7236 18.304ZM16.7177 17.3223L16.7851 15.9873C16.0663 16.2349 15.3622 16.5464 14.6796 16.9226L16.7177 17.3223Z" fill="#F4BA52"/>
<path d="M27.3712 21.9064C26.6654 21.8826 22.0487 9.45522 22.7329 8.99366C23.4172 8.53211 28.8377 10.8748 29.5599 14.5186C30.1123 17.3057 28.077 21.9302 27.3712 21.9064Z" fill="#489D66"/>
<path d="M27.227 21.7753C26.0326 20.6754 29.3337 6.07356 30.7652 6.63347C32.1968 7.19337 34.5625 12.428 33.0338 16.4214C31.8645 19.4758 28.4214 22.8753 27.227 21.7753Z" fill="#75BD73"/>
<path d="M30.8855 13.7849C28.5959 16.5833 26.7905 21.2084 27.3365 21.7794C27.8825 22.3503 33.3681 19.5462 35.7926 17.4616C38.2171 15.377 40.9974 9.51607 40.3492 8.74003C39.9693 8.28512 34.139 10.379 30.8855 13.7849Z" fill="#4E8D6D"/>
<path d="M27.2812 21.7192C27.6015 22.3642 42.4229 20.0208 42.615 19.1363C42.807 18.2518 37.0696 14.9835 32.9884 16.2591C29.8667 17.2348 26.9609 21.0741 27.2812 21.7192Z" fill="#75BD73"/>
<path d="M27.2013 21.732C27.1649 22.4109 40.4345 27.368 41.0031 26.7302C41.5717 26.0925 38.3741 20.7419 34.4274 19.895C31.4087 19.2471 27.2376 21.0531 27.2013 21.732Z" fill="#489D66"/>
</svg>
