<svg width="50" height="50" viewBox="0 0 50 50" fill="none" xmlns="http://www.w3.org/2000/svg">
<path d="M19 2.41919C19 2.41919 16.9006 7 16.5478 13C16.0775 21 16 27 23.4009 31.5V43.5423C20.0179 44.3914 18.4699 44.9853 16.547 46.3645C14.6241 47.7437 16.547 47.574 16.547 47.574H33.4517C33.4517 47.574 35.3746 47.7437 33.4517 46.3645C31.5288 44.9853 29.9808 44.3914 26.5979 43.5423V31.5C33.4517 27 33.9039 22.5 33.4517 13C33.1423 6.5 31 2.41919 31 2.41919H19Z" fill="#8397B5"/>
<path d="M25.0267 17.9356C26.8213 14.7953 29.8029 14.2402 31.0924 15.9558C33.8126 19.5748 30.0153 29 25.0267 29C20.0381 29 18.8659 20.3123 19.0117 18.6061C19.1576 16.9 22.5328 19.943 25.0267 17.9356Z" fill="#FAF8BE" fill-opacity="0.6"/>
<path d="M25.475 17.6409C22.9891 14.9036 19.8326 14.2762 18.9376 15.8428C16.1185 20.7771 20.0563 29.1919 25.4299 28.9967C30.8034 28.8014 32.3531 20.2811 31.9356 18.3009C31.5181 16.3208 28.1537 19.6168 25.475 17.6409Z" fill="#FAF8BE"/>
<circle cx="28.75" cy="9.75" r="0.75" fill="white"/>
<circle cx="25.75" cy="11.75" r="0.75" fill="white"/>
<circle cx="26.75" cy="5.75" r="0.75" fill="white"/>
</svg>
