<svg width="51" height="51" viewBox="0 0 51 51" fill="none" xmlns="http://www.w3.org/2000/svg">
<path d="M15.1019 3.26984C11.4436 8.31997 10.2639 11.7364 9.86074 18.5902C9.45757 25.4441 13.2643 32.0361 23.5685 36.3296V44.393C20.1855 45.242 18.6375 45.836 16.7146 47.2152C14.7917 48.5944 16.7146 48.4247 16.7146 48.4247H33.6193C33.6193 48.4247 35.5422 48.5944 33.6193 47.2152C31.6964 45.836 30.1484 45.242 26.7655 44.393V36.3296C37.0696 32.0361 40.8763 25.4441 40.4732 18.5902C40.07 11.7364 38.8903 8.31997 35.232 3.26984H15.1019Z" fill="#CDD9EB"/>
<path d="M24.3424 19.0307C28.0712 15.2545 34.1611 13.3394 36.8406 15.4024C42.4926 19.7542 34.7078 32.3355 24.3423 32.3355C13.9769 32.3355 11.5411 21.8887 11.8442 19.837C12.1473 17.7854 19.1603 21.4446 24.3424 19.0307Z" fill="#EAE9CE"/>
<path d="M25.9247 19.0304C21.1159 15.6865 15.158 13.4883 13.4266 15.4021C7.97309 21.43 15.4424 33.1415 25.8375 32.903C36.2327 32.6646 39.2306 22.2558 38.4229 19.8368C37.6152 17.4177 31.1068 21.4443 25.9247 19.0304Z" fill="#FAF8BE"/>
</svg>
