<svg width="50" height="50" viewBox="0 0 50 50" fill="none" xmlns="http://www.w3.org/2000/svg">
<path d="M22.8605 7.81201H27.1385C27.2355 10.3306 27.4264 11.7907 28.1924 14.2005C28.905 16.4425 29.4638 17.7558 30.7689 19.646C31.1195 20.2714 31.2192 20.7344 31.2959 21.6954V28.6633C31.2768 28.7778 31.2579 28.8909 31.2392 29.0027C30.7843 31.7259 30.4622 33.6539 30.5924 36.5909C30.6445 37.7662 30.7103 38.2305 30.8113 38.9436C30.8992 39.5636 31.0136 40.3717 31.1689 41.9984C31.2968 43.3376 30.3237 44.9413 28.7032 44.9413H21.2958C19.6754 44.9413 18.7022 43.3376 18.8301 41.9984C18.9854 40.3716 19.0999 39.5636 19.1877 38.9436C19.2887 38.2305 19.3545 37.7662 19.4066 36.5909C19.5368 33.6539 19.2147 31.7259 18.7598 29.0027L18.7597 29.0024C18.7411 28.8907 18.7222 28.7777 18.7031 28.6633V21.6954C18.7798 20.7344 18.8795 20.2714 19.2302 19.646C20.5352 17.7558 21.094 16.4425 21.8066 14.2005C22.5726 11.7907 22.7635 10.3306 22.8605 7.81201Z" fill="#D9D9D9" fill-opacity="0.8"/>
<path fill-rule="evenodd" clip-rule="evenodd" d="M28.3791 14.7764H21.6199C20.9889 16.6801 20.4194 17.9235 19.2302 19.6458C18.8795 20.2713 18.7798 20.7342 18.7031 21.6952V28.6632L18.7597 29.0023L18.7598 29.0025C19.2147 31.7257 19.5368 33.6538 19.4066 36.5908C19.3545 37.7661 19.2887 38.2304 19.1877 38.9435C19.0999 39.5635 18.9854 40.3715 18.8301 41.9983C18.7022 43.3375 19.6754 44.9412 21.2958 44.9412H28.7032C30.3237 44.9412 31.2968 43.3375 31.1689 41.9983C31.0137 40.3716 30.8992 39.5635 30.8113 38.9435L30.8113 38.9435C30.7103 38.2304 30.6445 37.7661 30.5924 36.5908C30.4622 33.6538 30.7843 31.7257 31.2392 29.0025L31.2392 29.0025L31.2959 28.6632V21.6952C31.2192 20.7342 31.1195 20.2713 30.7689 19.6458C29.5796 17.9235 29.0101 16.6801 28.3791 14.7764Z" fill="#6C2831"/>
<rect x="18.7031" y="21.7112" width="12.5928" height="6.96448" fill="#CA3C42"/>
<path d="M22.2422 7.101C22.2422 6.40861 22.2422 6.06241 22.3707 5.79528C22.4985 5.52955 22.7129 5.31517 22.9786 5.18734C23.2458 5.05884 23.592 5.05884 24.2844 5.05884H25.7148C26.4072 5.05884 26.7534 5.05884 27.0206 5.18734C27.2863 5.31517 27.5007 5.52955 27.6285 5.79528C27.757 6.06241 27.757 6.40861 27.757 7.101V7.101C27.757 7.36731 27.757 7.50046 27.7076 7.6032C27.6584 7.70541 27.576 7.78786 27.4738 7.83703C27.371 7.88645 27.2379 7.88645 26.9716 7.88645H23.0276C22.7613 7.88645 22.6282 7.88645 22.5254 7.83703C22.4232 7.78786 22.3408 7.70541 22.2916 7.6032C22.2422 7.50046 22.2422 7.36731 22.2422 7.101V7.101Z" fill="#CE6154"/>
</svg>
