<svg width="51" height="50" viewBox="0 0 51 50" fill="none" xmlns="http://www.w3.org/2000/svg">
<path d="M13.8663 21.1033C16.1189 22.7377 20.9243 22.0884 20.9243 22.0884C21.6835 18.6869 20.9399 17.5392 19.1191 15.6867C16.8058 13.3333 14.2556 13.9453 10.7475 14.5377C7.23947 15.1301 11.5688 19.4363 13.8663 21.1033Z" fill="#B3D8B6"/>
<path d="M34.5281 23.8564C32.2121 25.5368 27.2714 24.8692 27.2714 24.8692C26.4907 21.3719 27.2554 20.1919 29.1275 18.2873C31.5058 15.8676 34.1279 16.4968 37.7348 17.1059C41.3416 17.7149 36.8904 22.1425 34.5281 23.8564Z" fill="#B3D8B6"/>
<path d="M24.5465 33.3403V28.1216M26.8216 10.8798C26.0935 16.5399 23.4102 17.3925 24.0692 24.5255M24.5465 28.1216C27.1753 24.0313 28.7537 22.2614 31.9044 21.0343M24.5465 28.1216L24.0692 24.5255M24.0692 24.5255C21.6038 20.8636 20.5632 20.3003 16.9004 18.5215" stroke="#94B8A8" stroke-width="2.5" stroke-linecap="round" stroke-linejoin="round"/>
<path d="M8.34441 43.3276C7.49148 43.3223 6.76496 42.7138 6.48205 41.8605C6.07876 40.0755 8.02705 35.6612 12.9452 34.1994C15.285 31.2756 16.9517 30.9536 20.3223 31.8359C24.3675 29.6459 26.1703 30.028 29.0603 31.8359C33.0753 30.7882 34.6032 31.608 36.724 34.1994C41.607 35.2733 43.2046 39.9051 43.1022 41.3223C43.0362 42.2349 42.3438 43.3226 41.5396 43.3276H8.34441Z" fill="#AB6548"/>
<path d="M21.3287 35.6715C21.7297 34.1805 24.0658 33.5278 25.2312 35.0426M30.4688 36.5294C32.7645 35.3252 33.9982 35.9216 36.1174 38.1302M16.8697 38.1302C13.7823 37.3191 13.3923 38.2539 12.1719 39.9178" stroke="#7C4B36" stroke-width="1.4" stroke-linecap="round" stroke-linejoin="round"/>
</svg>
