<svg width="50" height="51" viewBox="0 0 50 51" fill="none" xmlns="http://www.w3.org/2000/svg">
<path d="M13.1875 13.3189C13.1226 12.7065 13.0901 12.4002 13.1895 12.1633C13.2768 11.9553 13.4319 11.7829 13.6296 11.6741C13.8547 11.5503 14.1627 11.5503 14.7786 11.5503H34.2318C34.8445 11.5503 35.1508 11.5503 35.3753 11.6733C35.5725 11.7813 35.7275 11.9526 35.8154 12.1596C35.9154 12.3952 35.8849 12.7001 35.8238 13.3097L33.3401 38.1097C33.2891 38.6187 33.2637 38.8731 33.1481 39.0654C33.0464 39.2347 32.8967 39.3701 32.7181 39.4545C32.5153 39.5503 32.2595 39.5503 31.7481 39.5503H17.4074C16.8986 39.5503 16.6442 39.5503 16.4421 39.4552C16.264 39.3715 16.1146 39.2371 16.0126 39.0688C15.8967 38.8778 15.8699 38.6249 15.8163 38.1189L13.1875 13.3189Z" fill="#CDD9EB"/>
<path d="M32.9683 26.027C33.0267 25.5703 33.0559 25.3419 32.9929 25.1359C32.9396 24.9619 32.8251 24.7873 32.6869 24.669C32.5232 24.5289 32.3175 24.469 31.906 24.3491C29.2316 23.5698 27.3123 23.6932 24.4019 24.7482C22.0289 25.9754 20.3805 26.1957 18.38 25.6823C17.4155 25.4348 16.9332 25.311 16.6502 25.4081C16.3823 25.4999 16.2078 25.6523 16.0807 25.9054C15.9465 26.1728 15.9979 26.6134 16.1008 27.4946L17.1814 36.7541C17.2398 37.2546 17.269 37.5048 17.3854 37.6935C17.4879 37.8598 17.6369 37.9924 17.8139 38.0749C18.0148 38.1687 18.2668 38.1687 18.7706 38.1687H30.0072C30.506 38.1687 30.7554 38.1687 30.955 38.0763C31.131 37.995 31.2795 37.8643 31.3825 37.7001C31.4994 37.5137 31.531 37.2664 31.5943 36.7716L32.9683 26.027Z" fill="#D4732D"/>
<path d="M15.874 26.0045C15.8261 25.5552 15.8022 25.3305 15.8674 25.1286C15.9224 24.9579 16.037 24.7872 16.174 24.6715C16.3361 24.5346 16.538 24.4759 16.9419 24.3585C19.6579 23.5688 21.6398 23.689 24.5752 24.7483C26.9975 25.9951 28.6805 25.8119 30.7411 25.0542C31.6026 24.7374 32.0333 24.5791 32.3371 24.6586C32.6093 24.7299 32.824 24.8972 32.9597 25.1437C33.1111 25.4188 33.0652 25.8533 32.9734 26.7224L31.9153 36.7368C31.8618 37.2429 31.8351 37.496 31.7193 37.687C31.6173 37.8554 31.4678 37.9898 31.2898 38.0736C31.0876 38.1687 30.8331 38.1687 30.3242 38.1687H18.6076C18.099 38.1687 17.8448 38.1687 17.6427 38.0737C17.4646 37.99 17.3152 37.8557 17.2132 37.6875C17.0973 37.4966 17.0704 37.2438 17.0166 36.7381L15.874 26.0045Z" fill="#EB7F30"/>
<rect x="17.0039" y="26.3156" width="4" height="4" rx="0.4" transform="rotate(-11.0288 17.0039 26.3156)" fill="#EDEDED" fill-opacity="0.3"/>
<rect x="21.8711" y="31.4799" width="4" height="4" rx="0.4" transform="rotate(19.1877 21.8711 31.4799)" fill="#EDEDED" fill-opacity="0.3"/>
<rect x="27.1074" y="27.0941" width="4" height="4" rx="0.4" transform="rotate(7.39329 27.1074 27.0941)" fill="#EDEDED" fill-opacity="0.3"/>
</svg>
