<svg width="50" height="50" viewBox="0 0 50 50" fill="none" xmlns="http://www.w3.org/2000/svg">
<path d="M13.1875 12.7687C13.1226 12.1562 13.0901 11.8499 13.1895 11.6131C13.2768 11.405 13.4319 11.2326 13.6296 11.1238C13.8547 11 14.1627 11 14.7786 11H34.2318C34.8445 11 35.1508 11 35.3753 11.123C35.5725 11.231 35.7275 11.4023 35.8154 11.6093C35.9154 11.845 35.8849 12.1498 35.8238 12.7594L33.3401 37.5594C33.2891 38.0684 33.2637 38.3228 33.1481 38.5151C33.0464 38.6844 32.8967 38.8198 32.7181 38.9042C32.5153 39 32.2595 39 31.7481 39H17.4074C16.8986 39 16.6442 39 16.4421 38.9049C16.264 38.8212 16.1146 38.6868 16.0126 38.5186C15.8967 38.3276 15.8699 38.0746 15.8163 37.5687L13.1875 12.7687Z" fill="#8397B5"/>
<path d="M32.9683 25.4767C33.0267 25.02 33.0559 24.7916 32.9929 24.5856C32.9396 24.4116 32.8251 24.237 32.6869 24.1187C32.5232 23.9786 32.3175 23.9187 31.906 23.7988C29.2316 23.0195 27.3123 23.1429 24.4019 24.1979C22.0289 25.4251 20.3805 25.6454 18.38 25.132C17.4155 24.8845 16.9332 24.7607 16.6502 24.8578C16.3823 24.9496 16.2078 25.102 16.0807 25.3551C15.9465 25.6225 15.9979 26.0631 16.1008 26.9443L17.1814 36.2038C17.2398 36.7043 17.269 36.9545 17.3854 37.1432C17.4879 37.3095 17.6369 37.4421 17.8139 37.5247C18.0148 37.6184 18.2668 37.6184 18.7706 37.6184H30.0072C30.506 37.6184 30.7554 37.6184 30.955 37.526C31.131 37.4447 31.2795 37.314 31.3825 37.1498C31.4994 36.9634 31.531 36.7161 31.5943 36.2213L32.9683 25.4767Z" fill="#D57835"/>
<path d="M15.874 25.4542C15.8261 25.0049 15.8022 24.7802 15.8674 24.5783C15.9224 24.4076 16.037 24.2369 16.174 24.1212C16.3361 23.9844 16.538 23.9256 16.9419 23.8082C19.6579 23.0185 21.6398 23.1387 24.5752 24.198C26.9975 25.4448 28.6805 25.2616 30.7411 24.5039C31.6026 24.1871 32.0333 24.0288 32.3371 24.1083C32.6093 24.1796 32.824 24.3469 32.9597 24.5934C33.1111 24.8685 33.0652 25.303 32.9734 26.1722L31.9153 36.1865C31.8618 36.6926 31.8351 36.9457 31.7193 37.1368C31.6173 37.3051 31.4678 37.4395 31.2898 37.5233C31.0876 37.6184 30.8331 37.6184 30.3242 37.6184H18.6076C18.099 37.6184 17.8448 37.6184 17.6427 37.5234C17.4646 37.4397 17.3152 37.3054 17.2132 37.1372C17.0973 36.9463 17.0704 36.6935 17.0166 36.1878L15.874 25.4542Z" fill="#F08C44"/>
<rect x="17.0039" y="25.7653" width="4" height="4" rx="0.4" transform="rotate(-11.0288 17.0039 25.7653)" fill="#EDEDED" fill-opacity="0.3"/>
<rect x="21.8711" y="30.9296" width="4" height="4" rx="0.4" transform="rotate(19.1877 21.8711 30.9296)" fill="#EDEDED" fill-opacity="0.3"/>
<rect x="27.1074" y="26.5438" width="4" height="4" rx="0.4" transform="rotate(7.39329 27.1074 26.5438)" fill="#EDEDED" fill-opacity="0.3"/>
</svg>
