<svg width="51" height="51" viewBox="0 0 51 51" fill="none" xmlns="http://www.w3.org/2000/svg">
<ellipse cx="24.644" cy="32.6281" rx="17.1929" ry="9.1269" fill="#D2D5DA"/>
<ellipse cx="24.644" cy="32.6281" rx="9.7915" ry="4.40986" fill="#BCC0C5"/>
<path fill-rule="evenodd" clip-rule="evenodd" d="M38.5743 21.3181L38.555 24.1849C38.4908 24.9182 38.36 25.6341 38.1681 26.3276C38.8587 26.1926 39.3955 26.0253 39.8077 25.8101C40.1553 25.6286 40.3834 25.4275 40.5409 25.2041C40.6988 24.9802 40.8293 24.6723 40.8927 24.2149C41.0208 23.291 40.7926 22.7035 40.3084 22.2456C39.9483 21.905 39.3899 21.5842 38.5743 21.3181ZM38.5917 18.7221L38.6009 17.3463C38.6009 17.3264 38.6012 17.3066 38.6016 17.2867C38.6022 17.2471 38.6029 17.2076 38.6009 17.168C38.4144 13.3283 32.2161 10.2449 24.6009 10.2449C16.9857 10.2449 10.7874 13.3283 10.6009 17.168C10.599 17.2076 10.5996 17.2471 10.6003 17.2867C10.6006 17.3066 10.6009 17.3264 10.6009 17.3463L10.6468 24.1849C11.2269 30.8131 17.2523 36.0258 24.6009 36.0258C30.0305 36.0258 34.7377 33.1802 37.0599 29.0205C38.547 28.8496 39.8993 28.5825 40.9648 28.0262C41.5995 27.6948 42.1579 27.2492 42.5841 26.6447C43.0101 26.0405 43.2607 25.3392 43.369 24.5582C43.5911 22.9558 43.1811 21.5215 42.0263 20.4292C41.1738 19.623 39.995 19.0805 38.5917 18.7221Z" fill="#D7DADE"/>
<ellipse cx="24.5947" cy="17.5945" rx="12.8486" ry="6.2798" fill="#BCC0C5"/>
<path fill-rule="evenodd" clip-rule="evenodd" d="M12.7275 20.0635C14.6326 17.7611 19.2501 16.1367 24.6438 16.1367C29.9464 16.1367 34.4988 17.7067 36.4612 19.9474C34.5562 22.2499 29.9387 23.8743 24.545 23.8743C19.2423 23.8743 14.69 22.3043 12.7275 20.0635Z" fill="#98B473"/>
</svg>
