<svg width="50" height="51" viewBox="0 0 50 51" fill="none" xmlns="http://www.w3.org/2000/svg">
<path d="M28.1284 9.84828C26.2417 10.3296 10.3164 24.6617 10.3164 24.6617L19.0812 34.1324L35.3045 15.8094C35.3045 11.1565 30.0152 9.36697 28.1284 9.84828Z" fill="#947462"/>
<path d="M21.673 28.8451C21.673 32.4479 18.7523 35.3686 15.1495 35.3686C11.5467 35.3686 8.62598 32.4479 8.62598 28.8451C8.62598 25.2423 11.5467 22.8252 15.1495 22.8252C18.7523 22.8252 21.673 25.2423 21.673 28.8451Z" fill="#EED7A5"/>
<path d="M32.971 16.4301L17.5195 30.5321L25.6086 40.5017C25.6086 40.5017 40.2293 25.2437 41.1566 23.2715C42.4264 20.5708 37.9611 13.8376 32.971 16.4301Z" fill="#A47D68"/>
<path d="M28.1965 35.2138C28.1965 38.8166 25.2758 41.7373 21.6729 41.7373C18.0701 41.7373 15.1494 38.8166 15.1494 35.2138C15.1494 31.6109 18.0701 29.3318 21.6729 29.3318C25.2758 29.3318 28.1965 31.6109 28.1965 35.2138Z" fill="#EED7A5"/>
<path d="M11.5977 29.3223C12.0641 26.6112 12.9644 25.6828 15.2359 25.7C16.0897 25.7064 17.8597 26.5943 18.1072 27.757M18.491 35.5267C18.5047 33.2224 19.1722 32.5228 21.4522 32.2539M24.8448 33.686C25.4736 35.9481 25.2054 36.985 23.4422 38.3614" stroke="#D9A676" stroke-linecap="round" stroke-linejoin="round"/>
<path d="M13.4356 30.4138C13.2522 29.6862 13.953 28.6327 14.8068 28.8282" stroke="#D9A676" stroke-linecap="round" stroke-linejoin="round"/>
<path d="M18.62 37.4113C19.2151 38.6491 19.9225 39.0363 21.6243 39.3106" stroke="#D9A676" stroke-linecap="round" stroke-linejoin="round"/>
<path d="M17.5195 22.1111C17.8947 21.8011 22.3128 17.6933 24.4749 15.6782" stroke="#856959" stroke-linecap="round" stroke-linejoin="round"/>
<path d="M28.293 33.1703C28.7049 32.827 33.3369 27.7692 35.7109 25.5383" stroke="#936C57" stroke-linecap="round" stroke-linejoin="round"/>
<path d="M30.1377 27.4334C30.5497 27.0902 35.2774 22.1533 37.6514 19.9224" stroke="#936C57" stroke-linecap="round" stroke-linejoin="round"/>
<path d="M24.4746 29.3319C24.8866 28.9887 29.4552 24.342 31.8291 22.1111" stroke="#936C57" stroke-linecap="round" stroke-linejoin="round"/>
<path d="M21.8105 21.9524C22.2225 21.6092 27.0732 17.0615 29.4472 14.8306" stroke="#856959" stroke-linecap="round" stroke-linejoin="round"/>
</svg>
