<svg width="50" height="50" viewBox="0 0 50 50" fill="none" xmlns="http://www.w3.org/2000/svg">
<path d="M9.30957 32.2749C9.30957 32.4544 9.40571 32.62 9.5615 32.709L25.0004 41.5313V24.7197L9.30957 15.7535V32.2749Z" fill="#D1D6DD"/>
<path d="M25.0004 24.7197L40.6905 15.7535V32.2749C40.6905 32.4543 40.5944 32.62 40.4386 32.709L25.0004 41.5313V24.7197Z" fill="#ADB7C5"/>
<path d="M25.0004 24.7197L9.30957 15.7535L24.7898 8.5665C24.9234 8.50451 25.0774 8.50451 25.211 8.56651L40.6905 15.7535L25.0004 24.7197Z" fill="#E6E9ED"/>
<path d="M9.5615 20.9409C9.40571 20.8519 9.30957 20.6862 9.30957 20.5068V15.7535L25.0004 24.7197V29.7632L9.5615 20.9409Z" fill="#D1D6DD"/>
<path d="M40.4387 20.9409C40.5945 20.8519 40.6907 20.6862 40.6906 20.5068L40.6905 15.7535L25.0004 24.7197V29.7632L40.4387 20.9409Z" fill="#ADB7C5"/>
</svg>
