<svg width="50" height="50" viewBox="0 0 50 50" fill="none" xmlns="http://www.w3.org/2000/svg">
<path d="M25.7042 15.5447C25.4536 12.0439 25.5496 10.1739 26.8429 7.32251" stroke="#377D59" stroke-width="2.5" stroke-linecap="round"/>
<path d="M32.9639 26.297C32.9639 34.925 30.2233 41.9194 20.6938 41.9194C13.9173 41.9194 8.42383 34.925 8.42383 26.297C8.42383 17.669 13.9173 10.6746 20.6938 10.6746C27.4704 10.6746 32.9639 17.669 32.9639 26.297Z" fill="#EC8E34"/>
<path d="M41.5757 27.0551C41.5757 35.6831 36.0822 42.6775 29.3057 42.6775C18.3651 42.6775 15.7461 36.8618 15.7461 26.6955C15.7461 16.5293 22.5291 11.4326 29.3057 11.4326C36.0822 11.4326 41.5757 18.427 41.5757 27.0551Z" fill="#F09E39"/>
</svg>
