<svg width="51" height="51" viewBox="0 0 51 51" fill="none" xmlns="http://www.w3.org/2000/svg">
<path d="M15.2513 3.1958C11.593 8.24594 10.4133 11.6623 10.0102 18.5162C9.60699 25.3701 13.4137 31.9621 23.7179 36.2556V44.319C20.3349 45.168 18.7869 45.7619 16.864 47.1411C14.9411 48.5204 16.864 48.3506 16.864 48.3506H33.7687C33.7687 48.3506 35.6916 48.5204 33.7687 47.1411C31.8459 45.7619 30.2978 45.168 26.9149 44.319V36.2556C37.219 31.9621 41.0258 25.3701 40.6226 18.5162C40.2194 11.6623 39.0397 8.24594 35.3814 3.1958H15.2513Z" fill="#8397B5"/>
<path d="M24.4918 18.9567C28.2206 15.1805 34.3106 13.2653 36.99 15.3284C42.642 19.6801 34.8572 32.2614 24.4918 32.2614C14.1263 32.2614 11.6906 21.8147 11.9936 19.763C12.2967 17.7114 19.3098 21.3705 24.4918 18.9567Z" fill="#EAE9CE"/>
<path d="M26.0742 18.9564C21.2653 15.6124 15.3074 13.4143 13.576 15.3281C8.1225 21.3559 15.5918 33.0675 25.9869 32.829C36.3821 32.5905 39.38 22.1817 38.5723 19.7627C37.7647 17.3437 31.2562 21.3702 26.0742 18.9564Z" fill="#FAF8BE"/>
</svg>
