<svg width="51" height="51" viewBox="0 0 51 51" fill="none" xmlns="http://www.w3.org/2000/svg">
<path d="M15.0844 3.34521C11.426 8.39535 10.2463 11.8117 9.84316 18.6656C9.44 25.5195 13.2467 32.1115 23.5509 36.405V44.4684C20.1679 45.3174 18.6199 45.9113 16.697 47.2906C14.7742 48.6698 16.697 48.5001 16.697 48.5001H33.6017C33.6017 48.5001 35.5246 48.6698 33.6017 47.2906C31.6789 45.9113 30.1308 45.3174 26.7479 44.4684V36.405C37.052 32.1115 40.8588 25.5195 40.4556 18.6656C40.0524 11.8117 38.8727 8.39535 35.2144 3.34521H15.0844Z" fill="#8397B5"/>
<path d="M24.3248 19.1061C28.0536 15.3299 34.1436 13.4148 36.823 15.4778C42.475 19.8296 34.6902 32.4109 24.3248 32.4109C13.9593 32.4109 11.5236 21.9641 11.8266 19.9124C12.1297 17.8608 19.1428 21.5199 24.3248 19.1061Z" fill="#8A4A5A"/>
<path d="M25.9072 19.1058C21.0983 15.7618 15.1404 13.5637 13.409 15.4775C7.95551 21.5054 15.4248 33.2169 25.8199 32.9784C36.2151 32.7399 39.213 22.3311 38.4053 19.9121C37.5977 17.4931 31.0892 21.5196 25.9072 19.1058Z" fill="#A52F4D"/>
</svg>
