<svg width="50" height="51" viewBox="0 0 50 51" fill="none" xmlns="http://www.w3.org/2000/svg">
<path d="M13.1875 13.3125C13.1226 12.7 13.0901 12.3938 13.1895 12.1569C13.2768 11.9488 13.4319 11.7764 13.6296 11.6676C13.8547 11.5438 14.1627 11.5438 14.7786 11.5438H34.2318C34.8445 11.5438 35.1508 11.5438 35.3753 11.6668C35.5725 11.7748 35.7275 11.9462 35.8154 12.1531C35.9154 12.3888 35.8849 12.6936 35.8238 13.3033L33.3401 38.1033C33.2891 38.6122 33.2637 38.8667 33.1481 39.0589C33.0464 39.2282 32.8967 39.3636 32.7181 39.448C32.5153 39.5438 32.2595 39.5438 31.7481 39.5438H17.4074C16.8986 39.5438 16.6442 39.5438 16.4421 39.4488C16.264 39.365 16.1146 39.2306 16.0126 39.0624C15.8967 38.8714 15.8699 38.6184 15.8163 38.1125L13.1875 13.3125Z" fill="#8397B5"/>
<path d="M32.9683 26.0205C33.0267 25.5638 33.0559 25.3354 32.9929 25.1295C32.9396 24.9555 32.8251 24.7808 32.6869 24.6625C32.5232 24.5225 32.3175 24.4625 31.906 24.3426C29.2316 23.5633 27.3123 23.6867 24.4019 24.7418C22.0289 25.9689 20.3805 26.1892 18.38 25.6759C17.4155 25.4283 16.9332 25.3046 16.6502 25.4016C16.3823 25.4934 16.2078 25.6458 16.0807 25.8989C15.9465 26.1663 15.9979 26.6069 16.1008 27.4882L17.1814 36.7477C17.2398 37.2481 17.269 37.4983 17.3854 37.6871C17.4879 37.8533 17.6369 37.9859 17.8139 38.0685C18.0148 38.1622 18.2668 38.1622 18.7706 38.1622H30.0072C30.506 38.1622 30.7554 38.1622 30.955 38.0699C31.131 37.9885 31.2795 37.8578 31.3825 37.6936C31.4994 37.5073 31.531 37.2599 31.5943 36.7651L32.9683 26.0205Z" fill="#E2D7C7"/>
<path d="M15.874 25.998C15.8261 25.5487 15.8022 25.324 15.8674 25.1221C15.9224 24.9515 16.037 24.7807 16.174 24.6651C16.3361 24.5282 16.538 24.4695 16.9419 24.352C19.6579 23.5623 21.6398 23.6825 24.5752 24.7418C26.9975 25.9886 28.6805 25.8054 30.7411 25.0477C31.6026 24.731 32.0333 24.5726 32.3371 24.6521C32.6093 24.7234 32.824 24.8907 32.9597 25.1372C33.1111 25.4123 33.0652 25.8469 32.9734 26.716L31.9153 36.7303C31.8618 37.2364 31.8351 37.4895 31.7193 37.6806C31.6173 37.8489 31.4678 37.9834 31.2898 38.0671C31.0876 38.1622 30.8331 38.1622 30.3242 38.1622H18.6076C18.099 38.1622 17.8448 38.1622 17.6427 38.0672C17.4646 37.9835 17.3152 37.8492 17.2132 37.6811C17.0973 37.4901 17.0704 37.2373 17.0166 36.7316L15.874 25.998Z" fill="#F2EEE8"/>
</svg>
