<svg width="51" height="50" viewBox="0 0 51 50" fill="none" xmlns="http://www.w3.org/2000/svg">
<path d="M18.733 4.18762C16.3816 9.45839 15.396 14.7511 15.9103 19.6116C16.4834 23.5229 19.2038 25.6016 22.628 28.2182C23.1153 28.5905 23.6168 28.9737 24.1283 29.3746V42.7763C19.187 44.0397 18.1413 44.6934 17.7558 45.8124H33.1015C32.716 44.6934 31.6703 44.0397 26.729 42.7763V29.4869C27.2902 29.045 27.8397 28.6251 28.3723 28.2182C31.7966 25.6016 34.5169 23.5229 35.09 19.6116C35.6044 14.7511 34.6187 9.45839 32.2674 4.18762H18.733Z" fill="#CDD9EB"/>
<path d="M17.625 18.5624C17.625 20.2437 19.9159 23.7583 22.4818 25.7243C23.4286 26.5823 24.4391 27.1543 25.4402 27.1317C25.4878 27.1306 25.5357 27.1284 25.5838 27.1251C25.6318 27.1284 25.6797 27.1306 25.7273 27.1317C26.7284 27.1543 27.7389 26.5823 28.6858 25.7243C31.2516 23.7583 33.5425 20.2437 33.5425 18.5624H17.625Z" fill="#E49A9D"/>
</svg>
