<svg width="51" height="51" viewBox="0 0 51 51" fill="none" xmlns="http://www.w3.org/2000/svg">
<path d="M15.266 3.1958C11.6077 8.24594 10.428 11.6623 10.0248 18.5162C9.62164 25.3701 13.4284 31.9621 23.7325 36.2556V44.319C20.3496 45.168 18.8015 45.7619 16.8787 47.1411C14.9558 48.5204 16.8787 48.3506 16.8787 48.3506H33.7834C33.7834 48.3506 35.7063 48.5204 33.7834 47.1411C31.8605 45.7619 30.3125 45.168 26.9295 44.319V36.2556C37.2337 31.9621 41.0404 25.3701 40.6372 18.5162C40.2341 11.6623 39.0544 8.24594 35.3961 3.1958H15.266Z" fill="#8397B5"/>
<path d="M24.5064 18.9567C28.2353 15.1805 34.3252 13.2653 37.0046 15.3284C42.6566 19.6801 34.8718 32.2614 24.5064 32.2614C14.141 32.2614 11.7052 21.8147 12.0083 19.763C12.3113 17.7114 19.3244 21.3705 24.5064 18.9567Z" fill="#E7DDA0"/>
<path d="M26.0888 18.9564C21.2799 15.6124 15.3221 13.4143 13.5906 15.3281C8.13715 21.3559 15.6065 33.0675 26.0016 32.829C36.3967 32.5905 39.3947 22.1817 38.587 19.7627C37.7793 17.3437 31.2708 21.3702 26.0888 18.9564Z" fill="#FAEB8D"/>
</svg>
