<svg width="50" height="51" viewBox="0 0 50 51" fill="none" xmlns="http://www.w3.org/2000/svg">
<path d="M13.1875 13.1208C13.1226 12.5084 13.0901 12.2021 13.1895 11.9652C13.2768 11.7572 13.4319 11.5847 13.6296 11.476C13.8547 11.3522 14.1627 11.3522 14.7786 11.3522H34.2318C34.8445 11.3522 35.1508 11.3522 35.3753 11.4752C35.5725 11.5832 35.7275 11.7545 35.8154 11.9615C35.9154 12.1971 35.8849 12.502 35.8238 13.1116L33.3401 37.9116C33.2891 38.4205 33.2637 38.675 33.1481 38.8673C33.0464 39.0366 32.8967 39.172 32.7181 39.2564C32.5153 39.3522 32.2595 39.3522 31.7481 39.3522H17.4074C16.8986 39.3522 16.6442 39.3522 16.4421 39.2571C16.264 39.1734 16.1146 39.039 16.0126 38.8707C15.8967 38.6797 15.8699 38.4268 15.8163 37.9208L13.1875 13.1208Z" fill="#CDD9EB"/>
<path d="M32.9683 25.8289C33.0267 25.3722 33.0559 25.1438 32.9929 24.9378C32.9396 24.7638 32.8251 24.5892 32.6869 24.4709C32.5232 24.3308 32.3175 24.2708 31.906 24.1509C29.2316 23.3716 27.3123 23.4951 24.4019 24.5501C22.0289 25.7772 20.3805 25.9976 18.38 25.4842C17.4155 25.2367 16.9332 25.1129 16.6502 25.2099C16.3823 25.3018 16.2078 25.4542 16.0807 25.7072C15.9465 25.9746 15.9979 26.4153 16.1008 27.2965L17.1814 36.556C17.2398 37.0565 17.269 37.3067 17.3854 37.4954C17.4879 37.6617 17.6369 37.7943 17.8139 37.8768C18.0148 37.9705 18.2668 37.9705 18.7706 37.9705H30.0072C30.506 37.9705 30.7554 37.9705 30.955 37.8782C31.131 37.7969 31.2795 37.6662 31.3825 37.502C31.4994 37.3156 31.531 37.0682 31.5943 36.5735L32.9683 25.8289Z" fill="#EDECD5"/>
<path d="M15.874 25.8064C15.8261 25.357 15.8022 25.1324 15.8674 24.9304C15.9224 24.7598 16.037 24.5891 16.174 24.4734C16.3361 24.3365 16.538 24.2778 16.9419 24.1604C19.6579 23.3706 21.6398 23.4909 24.5752 24.5501C26.9975 25.797 28.6805 25.6138 30.7411 24.8561C31.6026 24.5393 32.0333 24.3809 32.3371 24.4605C32.6093 24.5318 32.824 24.6991 32.9597 24.9456C33.1111 25.2207 33.0652 25.6552 32.9734 26.5243L31.9153 36.5387C31.8618 37.0448 31.8351 37.2979 31.7193 37.4889C31.6173 37.6572 31.4678 37.7917 31.2898 37.8755C31.0876 37.9706 30.8331 37.9706 30.3242 37.9706H18.6076C18.099 37.9706 17.8448 37.9706 17.6427 37.8756C17.4646 37.7919 17.3152 37.6576 17.2132 37.4894C17.0973 37.2985 17.0704 37.0456 17.0166 36.5399L15.874 25.8064Z" fill="#FCFBE2"/>
</svg>
