<svg width="50" height="50" viewBox="0 0 50 50" fill="none" xmlns="http://www.w3.org/2000/svg">
<rect x="31.3857" y="27.4591" width="7.00542" height="11.8623" rx="3" stroke="#DAE9F0" stroke-width="2"/>
<path d="M17.2501 20.6786L11.583 6.0175C13.2473 4.46725 14.1845 4.4796 15.9513 6.0175C17.5608 4.32345 18.4867 4.39456 20.2017 6.0175C21.8469 4.25337 22.7941 4.43133 24.511 6.0175C25.8057 4.56751 27.2311 4.33817 28.8204 6.0175C30.3668 4.46181 31.2271 4.5428 32.7756 6.0175C34.6232 4.3335 35.6169 4.36923 37.3211 6.0175L31.5949 20.6786H17.2501Z" fill="#DCDCDC"/>
<rect x="13.043" y="20.6782" width="22.8148" height="2.21762" rx="1" fill="#5798DC"/>
<path d="M15.9092 6.09253L18.9317 20.7692" stroke="#ACACAC" stroke-width="0.5" stroke-linecap="round"/>
<path d="M20.1455 6.10156L21.5672 20.7688" stroke="#ACACAC" stroke-width="0.5" stroke-linecap="round"/>
<path d="M24.3867 6.20728V20.8255" stroke="#ACACAC" stroke-width="0.5" stroke-linecap="round"/>
<path d="M32.7021 6.14111L29.8287 20.7688" stroke="#ACACAC" stroke-width="0.5" stroke-linecap="round"/>
<path d="M28.7363 6.2146L27.2315 20.7688" stroke="#ACACAC" stroke-width="0.5" stroke-linecap="round"/>
<path d="M14.7432 22.8959H34.0312V41.2398C34.0312 43.4489 32.2403 45.2398 30.0312 45.2398H18.7432C16.534 45.2398 14.7432 43.4489 14.7432 41.2398V22.8959Z" fill="#DAE9F0"/>
<path d="M16.8135 34.0677H32.2281V40.3746C32.2281 42.0315 30.885 43.3746 29.2281 43.3746H19.8135C18.1566 43.3746 16.8135 42.0315 16.8135 40.3746V34.0677Z" fill="#99623F"/>
<path d="M25.2502 31.0631C25.2502 31.54 24.8637 31.9265 24.3868 31.9265C23.91 31.9265 23.5234 31.54 23.5234 31.0631C23.5234 30.5863 24.0915 29.2811 24.3868 29.2811C24.6822 29.2811 25.2502 30.5863 25.2502 31.0631Z" fill="#99623F"/>
<path d="M25.2502 26.8192C25.2502 27.2961 24.8637 27.6826 24.3868 27.6826C23.91 27.6826 23.5234 27.2961 23.5234 26.8192C23.5234 26.3424 24.0915 25.0372 24.3868 25.0372C24.6822 25.0372 25.2502 26.3424 25.2502 26.8192Z" fill="#99623F"/>
<path d="M12.1108 8.91603C12.0209 8.59701 12.2606 8.2804 12.592 8.2804H36.2871C36.6186 8.2804 36.8584 8.59718 36.7683 8.91624L33.3758 20.9331C33.315 21.1485 33.1184 21.2972 32.8946 21.2972H15.9788C15.7549 21.2972 15.5583 21.1484 15.4976 20.9329L12.1108 8.91603Z" fill="#5798DC"/>
</svg>
