<svg width="50" height="50" viewBox="0 0 50 50" fill="none" xmlns="http://www.w3.org/2000/svg">
<path d="M9.30957 32.2749C9.30957 32.4544 9.40571 32.62 9.5615 32.709L25.0004 41.5313V24.7197L9.30957 15.7535V32.2749Z" fill="#84573D"/>
<path d="M25.0004 24.7197L40.6905 15.7535V32.2749C40.6905 32.4543 40.5944 32.62 40.4386 32.709L25.0004 41.5313V24.7197Z" fill="#774B35"/>
<path d="M25.0004 24.7197L9.30957 15.7535L24.7898 8.5665C24.9234 8.50451 25.0774 8.50451 25.211 8.56651L40.6905 15.7535L25.0004 24.7197Z" fill="#906149"/>
<ellipse cx="12.9133" cy="25.8109" rx="1.58449" ry="0.7698" transform="rotate(27.0223 12.9133 25.8109)" fill="#714630"/>
<ellipse cx="16.3357" cy="30.9349" rx="2.12725" ry="1.03349" transform="rotate(22.554 16.3357 30.9349)" fill="#714630"/>
<ellipse cx="31.1121" cy="28.1906" rx="1.17006" ry="0.568458" transform="rotate(-22.5701 31.1121 28.1906)" fill="#8D5D42"/>
<ellipse cx="37.8045" cy="21.3317" rx="1.17006" ry="0.568458" transform="rotate(-22.5701 37.8045 21.3317)" fill="#8D5D42"/>
<ellipse cx="35.1054" cy="29.7352" rx="1.65498" ry="0.804047" transform="rotate(-22.5701 35.1054 29.7352)" fill="#8D5D42"/>
<path d="M16.0986 24.1201L25.0005 28.9944V29.9779L16.0986 25.0428V24.1201Z" fill="#714630"/>
<path d="M19.627 32.9199L25.0006 35.8257V36.7023L19.627 33.8426V32.9199Z" fill="#714630"/>
<path d="M40.6904 29.7354L31.6797 34.6365V35.5001L40.6904 30.658V29.7354Z" fill="#8D5D42"/>
</svg>
