<svg width="51" height="51" viewBox="0 0 51 51" fill="none" xmlns="http://www.w3.org/2000/svg">
<path d="M15.8275 3.19574C12.1692 8.24588 10.9895 11.6623 10.5863 18.5161C10.1832 25.37 13.9899 31.962 24.294 36.2555V44.3189C20.9111 45.1679 19.3631 45.7619 17.4402 47.1411C15.5173 48.5203 17.4402 48.3506 17.4402 48.3506H34.3449C34.3449 48.3506 36.2678 48.5203 34.3449 47.1411C32.422 45.7619 30.874 45.1679 27.491 44.3189V36.2555C37.7952 31.962 41.6019 25.37 41.1988 18.5161C40.7956 11.6623 39.6159 8.24588 35.9576 3.19574H15.8275Z" fill="#8397B5"/>
<path d="M25.068 18.9566C28.7968 15.1804 34.8867 13.2653 37.5662 15.3283C43.2182 19.6801 35.4334 32.2614 25.0679 32.2614C14.7025 32.2614 12.2667 21.8146 12.5698 19.7629C12.8729 17.7113 19.8859 21.3705 25.068 18.9566Z" fill="#6C4B41"/>
<path d="M26.6503 18.9563C21.8415 15.6124 15.8836 13.4142 14.1521 15.328C8.69867 21.3559 16.168 33.0674 26.5631 32.8289C36.9582 32.5905 39.9562 22.1817 39.1485 19.7627C38.3408 17.3436 31.8324 21.3702 26.6503 18.9563Z" fill="#853D28"/>
</svg>
