<svg width="50" height="51" viewBox="0 0 50 51" fill="none" xmlns="http://www.w3.org/2000/svg">
<path d="M14.1395 32.2758C13.0181 30.0857 13.8506 27.4185 14.5918 27.0389C15.333 26.6594 17.9838 27.5431 19.1052 29.7332C20.2266 31.9233 19.1497 34.7157 18.6529 34.9701C18.1561 35.2244 15.261 34.4659 14.1395 32.2758Z" fill="#F7D277"/>
<path d="M16.2722 26.2768C15.6365 23.8998 17.0115 21.4674 17.816 21.2523C18.6204 21.0372 21.026 22.4587 21.6616 24.8357C22.2972 27.2127 20.657 29.716 20.1178 29.8602C19.5786 30.0044 16.9078 28.6539 16.2722 26.2768Z" fill="#FAC84E"/>
<path d="M23.6803 14.3408C24.2025 11.9363 26.5379 10.4023 27.3516 10.579C28.1654 10.7558 29.6542 13.1202 29.132 15.5247C28.6098 17.9292 26.0061 19.4049 25.4607 19.2864C24.9152 19.168 23.1581 16.7453 23.6803 14.3408Z" fill="#FAC84E"/>
<path d="M19.2824 20.2859C18.923 17.8517 20.5674 15.5927 21.3912 15.471C22.2149 15.3494 24.442 17.0369 24.8014 19.471C25.1608 21.9052 23.2448 24.2043 22.6927 24.2859C22.1405 24.3674 19.6418 22.72 19.2824 20.2859Z" fill="#F7D277"/>
<path d="M27.2257 32.1019C24.7882 32.4376 22.5356 30.7012 22.4179 29.8465C22.3001 28.9918 23.9995 26.7111 26.4371 26.3754C28.8746 26.0397 31.166 28.0579 31.2449 28.6308C31.3238 29.2037 29.6632 31.7662 27.2257 32.1019Z" fill="#F7D277"/>
<path d="M29.6701 27.1203C27.2235 27.3816 25.0248 25.5774 24.9332 24.7195C24.8416 23.8615 26.6097 21.6337 29.0563 21.3725C31.5029 21.1112 33.7318 23.1983 33.7932 23.7733C33.8546 24.3484 32.1167 26.859 29.6701 27.1203Z" fill="#FAC84E"/>
<path d="M33.4371 22.0942C30.9775 22.1607 28.9287 20.1879 28.9054 19.3254C28.8821 18.4629 30.8212 16.3823 33.2808 16.3158C35.7404 16.2492 37.7969 18.5064 37.8125 19.0845C37.8282 19.6626 35.8967 22.0276 33.4371 22.0942Z" fill="#F7D277"/>
<path d="M24.9113 37.1747C22.4525 37.2654 20.3844 35.3129 20.3526 34.4507C20.3208 33.5884 22.2394 31.4888 24.6982 31.3981C27.1571 31.3074 29.2356 33.5442 29.2569 34.1222C29.2783 34.7001 27.3702 37.084 24.9113 37.1747Z" fill="#FAC84E"/>
<path d="M16.709 42.5686C20.1982 30.1069 24.9011 21.0206 29.7368 16.9775" stroke="#E1A051" stroke-width="2" stroke-linecap="round"/>
<path d="M30.7894 11.7578C32.5155 10.0043 35.3092 9.9555 35.9026 10.5397C36.496 11.1238 36.4912 13.918 34.7651 15.6715C33.0389 17.425 30.0496 17.2812 29.6518 16.8896C29.254 16.498 29.0632 13.5113 30.7894 11.7578Z" fill="#F7D277"/>
</svg>
