<svg width="51" height="50" viewBox="0 0 51 50" fill="none" xmlns="http://www.w3.org/2000/svg">
<path d="M25.543 42.7297V27.6709" stroke="#377D59" stroke-width="2.5" stroke-linecap="round" stroke-linejoin="round"/>
<path d="M32.3095 36.6161C29.9541 37.9721 27.1671 37.5472 26.7937 36.8986C26.4202 36.2499 27.4521 33.6264 29.8075 32.2703C32.1629 30.9143 35.0729 31.553 35.3233 31.9878C35.5736 32.4226 34.6648 35.26 32.3095 36.6161Z" fill="#377D59"/>
<path d="M20.4398 32.8093C23.0318 33.6268 24.604 35.9668 24.3789 36.6806C24.1537 37.3944 21.5235 38.4091 18.9315 37.5915C16.3395 36.774 14.8415 34.1986 14.9924 33.7202C15.1433 33.2417 17.8478 31.9918 20.4398 32.8093Z" fill="#377D59"/>
<path d="M18.4567 18.4537C17.502 25.3567 26.3803 27.659 32.2344 25.6705C34.1044 13.8669 30.4415 10.4477 18.8157 7.78711C18.8157 7.78711 19.4114 11.5507 18.4567 18.4537Z" fill="#84261F"/>
<path d="M32.4261 17.9366C33.5725 24.3801 24.5025 27.1419 18.6485 25.1534C16.7784 13.3498 20.4413 9.93056 32.0672 7.27002C32.0672 7.27002 31.2797 11.4931 32.4261 17.9366Z" fill="#9B3831"/>
<path d="M16.0348 19.733C15.3235 26.5364 23.9584 28.9383 29.8125 26.9498C31.6825 15.1462 28.0196 11.7269 16.3938 9.06641C16.3938 9.06641 16.7462 12.9296 16.0348 19.733Z" fill="#A73328"/>
<path d="M35.1058 19.818C36.1186 26.2767 27.1822 29.0232 21.3281 27.0348C19.4581 15.2312 23.121 11.8119 34.7468 9.15137C34.7468 9.15137 34.0929 13.3592 35.1058 19.818Z" fill="#BB3B32"/>
</svg>
