<svg width="50" height="50" viewBox="0 0 50 50" fill="none" xmlns="http://www.w3.org/2000/svg">
<path d="M26.5337 21.0774C24.804 16.6244 24.5341 14.1275 25.7407 9.64307" stroke="#377D59" stroke-width="2.5" stroke-linecap="round"/>
<path d="M42.126 26.0138C42.126 33.9353 34.4582 40.357 24.9995 40.357C15.5408 40.357 7.87305 33.9353 7.87305 26.0138C7.87305 14.566 12.7786 12.3665 24.9995 12.9164C37.3861 12.023 42.126 13.535 42.126 26.0138Z" fill="#DD5257"/>
<path d="M17.7573 12.6221C18.8429 12.4796 20.0406 12.3328 21.0225 12.2388C24.0642 11.9477 25.7842 11.6204 28.8345 11.7992C29.9441 11.8642 31.3224 12.0638 32.4998 12.2629C33.043 12.3548 33.0343 13.0919 32.4913 13.1849L30.6197 13.5054C30.3326 13.5546 30.1481 13.8378 30.2193 14.1203L31.1436 17.7905C31.2627 18.2634 30.7034 18.6096 30.3332 18.2921L26.2115 14.7571C26.023 14.5954 25.7443 14.5966 25.5572 14.7599L21.9837 17.8794C21.6147 18.2015 21.0507 17.856 21.17 17.3809L21.8049 14.8525C21.8755 14.5715 21.6933 14.2896 21.4082 14.2385L17.739 13.581C17.1816 13.4811 17.1958 12.6958 17.7573 12.6221Z" fill="#377D59"/>
</svg>
