<svg width="51" height="50" viewBox="0 0 51 50" fill="none" xmlns="http://www.w3.org/2000/svg">
<ellipse cx="24.644" cy="31.6281" rx="17.1929" ry="9.1269" fill="#DDD1D7"/>
<ellipse cx="24.644" cy="31.6281" rx="9.7915" ry="4.40986" fill="#CEBFC6"/>
<path fill-rule="evenodd" clip-rule="evenodd" d="M38.5743 20.3181L38.555 23.1849C38.4908 23.9182 38.36 24.6341 38.1681 25.3276C38.8587 25.1926 39.3955 25.0253 39.8077 24.8101C40.1553 24.6286 40.3834 24.4275 40.5409 24.2041C40.6988 23.9802 40.8293 23.6723 40.8927 23.2149C41.0208 22.291 40.7926 21.7035 40.3084 21.2456C39.9483 20.905 39.3899 20.5842 38.5743 20.3181ZM38.5917 17.7221L38.6009 16.3463C38.6009 16.3264 38.6012 16.3066 38.6016 16.2867C38.6022 16.2471 38.6029 16.2076 38.6009 16.168C38.4144 12.3283 32.2161 9.24487 24.6009 9.24487C16.9857 9.24487 10.7874 12.3283 10.6009 16.168C10.599 16.2076 10.5996 16.2471 10.6003 16.2867C10.6006 16.3066 10.6009 16.3264 10.6009 16.3463L10.6468 23.1849C11.2269 29.8131 17.2523 35.0258 24.6009 35.0258C30.0305 35.0258 34.7377 32.1802 37.0599 28.0205C38.547 27.8496 39.8993 27.5825 40.9648 27.0262C41.5995 26.6948 42.1579 26.2492 42.5841 25.6447C43.0101 25.0405 43.2607 24.3392 43.369 23.5582C43.5911 21.9558 43.1811 20.5215 42.0263 19.4292C41.1738 18.623 39.995 18.0805 38.5917 17.7221Z" fill="#EBE3E7"/>
<ellipse cx="24.5947" cy="16.5945" rx="12.8486" ry="6.2798" fill="#DDD1D7"/>
<path fill-rule="evenodd" clip-rule="evenodd" d="M12.7275 19.0635C14.6326 16.7611 19.2501 15.1367 24.6438 15.1367C29.9464 15.1367 34.4988 16.7067 36.4612 18.9474C34.5562 21.2499 29.9387 22.8743 24.545 22.8743C19.2423 22.8743 14.69 21.3043 12.7275 19.0635Z" fill="#CF9F81"/>
</svg>
