<svg width="50" height="50" viewBox="0 0 50 50" fill="none" xmlns="http://www.w3.org/2000/svg">
<path fill-rule="evenodd" clip-rule="evenodd" d="M15.5541 35.9513C14.5064 33.9223 14.4875 33.0839 14.0271 30.4893C13.3607 26.7332 13.829 23.1817 15.0731 22.5568C15.741 22.2213 16.4967 22.7974 17.1565 23.9843C17.2027 21.4576 17.6394 19.5339 18.3188 19.2658C18.8575 19.0531 19.4291 19.9289 19.8761 21.4594C20.1694 18.8064 20.8014 16.8082 21.4927 16.6189C22.0573 16.4643 22.5269 17.5528 22.7762 19.332C23.2828 16.3801 24.1277 14.1489 24.8602 14.0315C25.4768 13.9328 25.8523 15.3575 25.8881 17.5336C26.6352 14.4376 27.6736 12.1227 28.3995 12.091C28.9349 12.0676 29.1735 13.2921 29.0969 15.1729C30.7159 12.3041 32.3425 10.3746 32.9756 10.6734C33.6366 10.9853 32.9918 13.6218 31.5304 16.8083C33.3196 15.4804 34.7325 14.9038 35.0759 15.4783C35.4376 16.0833 34.5129 17.7983 32.8732 19.7568C34.1651 19.069 35.0882 18.8654 35.2921 19.3176C35.5622 19.9168 34.4952 21.5021 32.7278 23.2791C33.9327 22.8042 34.7618 22.7408 34.9123 23.2025C35.1571 23.9534 33.5281 25.852 31.1091 27.7371C32.9739 27.0235 34.31 26.9027 34.4574 27.5457C34.6252 28.2779 33.2031 29.7893 31.0449 31.2992C32.5225 31.0345 33.542 31.2662 33.6856 32.0384C33.938 33.3951 31.3909 35.9066 27.9964 37.6479C25.4341 38.9623 22.2095 39.5373 22.2095 39.5373C22.2095 39.5373 19.3407 39.8699 18.2889 39.3032C17.1133 38.6697 16.2641 37.3265 15.5541 35.9513Z" fill="#D1EAA7"/>
<path d="M20.2334 38.6057C23.0644 31.0679 24.6692 26.8317 28.71 18.605" stroke="#9CD045" stroke-width="1.5" stroke-linecap="round" stroke-linejoin="round"/>
<path fill-rule="evenodd" clip-rule="evenodd" d="M14.3007 38.5554C12.416 37.2661 12.0016 36.5371 10.3656 34.4713C7.9973 31.4807 6.72494 28.1321 7.52373 26.9918C7.95256 26.3797 8.89115 26.5284 10.035 27.2603C8.87715 25.0141 8.34914 23.1134 8.82002 22.5551C9.19345 22.1123 10.112 22.6122 11.2316 23.7475C10.2313 21.2728 9.83985 19.2139 10.3587 18.7193C10.7823 18.3155 11.7121 19.051 12.7755 20.499C11.8213 17.66 11.5067 15.295 12.096 14.8443C12.592 14.4649 13.5982 15.541 14.662 17.4397C13.8511 14.3598 13.6672 11.8293 14.2912 11.4571C14.7516 11.1826 15.5424 12.1474 16.3671 13.8394C16.4316 10.5459 16.9483 8.07578 17.6473 8.03851C18.3773 7.99959 19.0601 10.6264 19.2851 14.1249C20.2303 12.1072 21.2007 10.9294 21.7755 11.2722C22.3809 11.6333 22.3804 13.5817 21.8659 16.0836C22.6769 14.8653 23.3929 14.2482 23.7869 14.5496C24.309 14.9489 24.1216 16.8507 23.4086 19.2534C24.2441 18.2638 24.9439 17.8147 25.2954 18.1498C25.867 18.6947 25.3335 21.1388 24.0982 23.9457C25.4013 22.433 26.5203 21.6929 26.955 22.1891C27.4501 22.754 26.9151 24.7592 25.7313 27.1121C26.9066 26.1782 27.914 25.8986 28.4067 26.5103C29.2724 27.5849 28.2214 31.0041 26.059 34.1471C24.4268 36.5197 21.8608 38.5554 21.8608 38.5554C21.8608 38.5554 19.4931 40.209 18.2982 40.209C16.9628 40.209 15.5781 39.4292 14.3007 38.5554Z" fill="#91BF53"/>
<path d="M17.7253 38.9216C16.9615 31.1658 17.0302 26.1264 17.7253 16.272" stroke="#648932" stroke-width="1.5" stroke-linecap="round" stroke-linejoin="round"/>
</svg>
