<svg width="50" height="51" viewBox="0 0 50 51" fill="none" xmlns="http://www.w3.org/2000/svg">
<path d="M14.9359 2.77649C11.2776 7.82663 10.0979 11.243 9.69473 18.0969C9.29156 24.9507 13.0983 31.5428 23.4024 35.8363V43.8996C20.0195 44.7487 18.4715 45.3426 16.5486 46.7218C14.6257 48.101 16.5486 47.9313 16.5486 47.9313H33.4533C33.4533 47.9313 35.3762 48.101 33.4533 46.7218C31.5304 45.3426 29.9824 44.7487 26.5994 43.8996V35.8363C36.9036 31.5428 40.7103 24.9507 40.3072 18.0969C39.904 11.243 38.7243 7.82663 35.066 2.77649H14.9359Z" fill="#8397B5"/>
<path d="M24.1764 18.5374C27.9052 14.7612 33.9951 12.846 36.6746 14.9091C42.3266 19.2608 34.5417 31.8421 24.1763 31.8421C13.8109 31.8421 11.3751 21.3953 11.6782 19.3437C11.9813 17.292 18.9943 20.9512 24.1764 18.5374Z" fill="#BFA369"/>
<path d="M25.7587 18.5371C20.9499 15.1931 14.992 12.9949 13.2605 14.9088C7.80707 20.9366 15.2764 32.6482 25.6715 32.4097C36.0666 32.1712 39.0646 21.7624 38.2569 19.3434C37.4492 16.9244 30.9408 20.9509 25.7587 18.5371Z" fill="#D9AD4E"/>
</svg>
