<svg width="50" height="51" viewBox="0 0 50 51" fill="none" xmlns="http://www.w3.org/2000/svg">
<path d="M24.1874 20.5915C25.1336 16.3287 25.0302 13.7451 28.2714 11.2456" stroke="#2C6757" stroke-width="2.5" stroke-linecap="round"/>
<path d="M25.1754 26.363C25.1754 34.1107 26.2371 39.6918 30.4219 39.6918C34.6068 39.6918 39.6307 32.7515 39.6307 25.0038C39.6307 17.2561 36.9377 14.8621 32.7528 14.8621C28.5679 14.8621 25.1754 18.6153 25.1754 26.363Z" fill="#B53230"/>
<path d="M24.8246 26.0131C24.8246 33.7608 23.7629 39.342 19.5781 39.342C15.3932 39.342 10.3693 32.4017 10.3693 24.654C10.3693 16.9063 13.0623 14.5122 17.2472 14.5122C21.4321 14.5122 24.8246 18.2654 24.8246 26.0131Z" fill="#B53230"/>
<path d="M32.4028 26.0131C32.4028 33.7608 29.0103 40.0416 24.8254 40.0416C20.6405 40.0416 17.248 33.7608 17.248 26.0131C17.248 14.5122 20.6405 14.5122 24.8254 14.5122C29.0103 14.5122 32.4028 14.5122 32.4028 26.0131Z" fill="#D24837"/>
</svg>
