<svg width="51" height="51" viewBox="0 0 51 51" fill="none" xmlns="http://www.w3.org/2000/svg">
<path d="M15.3383 2.85046C11.6799 7.9006 10.5002 11.317 10.0971 18.1709C9.6939 25.0247 13.5006 31.6167 23.8048 35.9103V43.9736C20.4218 44.8227 18.8738 45.4166 16.9509 46.7958C15.0281 48.175 16.9509 48.0053 16.9509 48.0053H33.8556C33.8556 48.0053 35.7785 48.175 33.8556 46.7958C31.9328 45.4166 30.3847 44.8227 27.0018 43.9736V35.9103C37.3059 31.6167 41.1127 25.0247 40.7095 18.1709C40.3063 11.317 39.1266 7.9006 35.4683 2.85046H15.3383Z" fill="#CDD9EB"/>
<path d="M24.5787 18.6113C28.3075 14.8351 34.3975 12.92 37.0769 14.983C42.7289 19.3348 34.9441 31.9161 24.5787 31.9161C14.2133 31.9161 11.7775 21.4693 12.0805 19.4177C12.3836 17.366 19.3967 21.0252 24.5787 18.6113Z" fill="#D2ACAD"/>
<path d="M26.1611 18.611C21.3522 15.2671 15.3943 13.0689 13.6629 14.9827C8.20941 21.0106 15.6787 32.7222 26.0739 32.4837C36.469 32.2452 39.4669 21.8364 38.6592 19.4174C37.8516 16.9984 31.3431 21.0249 26.1611 18.611Z" fill="#E49A9D"/>
</svg>
