<svg width="51" height="51" viewBox="0 0 51 51" fill="none" xmlns="http://www.w3.org/2000/svg">
<path d="M15.4877 2.77643C11.8294 7.82656 10.6497 11.243 10.2465 18.0968C9.84332 24.9507 13.6501 31.5427 23.9542 35.8362V43.8996C20.5712 44.7486 19.0232 45.3426 17.1003 46.7218C15.1775 48.101 17.1003 47.9313 17.1003 47.9313H34.0051C34.0051 47.9313 35.9279 48.101 34.0051 46.7218C32.0822 45.3426 30.5342 44.7486 27.1512 43.8996V35.8362C37.4553 31.5427 41.2621 24.9507 40.8589 18.0968C40.4558 11.243 39.2761 7.82656 35.6177 2.77643H15.4877Z" fill="#8397B5"/>
<path d="M24.7281 18.5373C28.457 14.7611 34.5469 12.846 37.2263 14.909C42.8783 19.2608 35.0935 31.8421 24.7281 31.8421C14.3627 31.8421 11.9269 21.3953 12.23 19.3436C12.533 17.292 19.5461 20.9511 24.7281 18.5373Z" fill="#D2ACAD"/>
<path d="M26.3105 18.537C21.5016 15.193 15.5438 12.9949 13.8123 14.9087C8.35883 20.9366 15.8281 32.6481 26.2233 32.4096C36.6184 32.1712 39.6163 21.7624 38.8087 19.3433C38.001 16.9243 31.4925 20.9509 26.3105 18.537Z" fill="#E49A9D"/>
</svg>
