<svg width="51" height="51" viewBox="0 0 51 51" fill="none" xmlns="http://www.w3.org/2000/svg">
<path d="M23.8811 25.5938L23.9193 25.6453V39.1413C18.9779 40.4046 17.9323 41.0583 17.5468 42.1773H32.953C32.5675 41.0583 31.5219 40.4046 26.5805 39.1413V25.6453L26.6183 25.5941C30.8215 23.2093 33.3197 20.8168 33.6268 17.6848C33.9363 14.5285 32.9528 11.4684 31.2212 8.17188H19.2786C17.547 11.4684 16.5634 14.5285 16.8729 17.6848C17.18 20.8167 19.6781 23.2092 23.8811 25.5938Z" fill="#C6D3EC"/>
<path fill-rule="evenodd" clip-rule="evenodd" d="M18.4297 17.2544H19.1251H31.62H32.3154C32.1409 20.3784 27.5515 24.0281 25.385 24.0558L25.3848 24.056C25.3807 24.056 25.3767 24.056 25.3726 24.0559C25.3685 24.056 25.3644 24.056 25.3603 24.056L25.3602 24.0558C23.1936 24.0281 18.6042 20.3784 18.4297 17.2544Z" fill="#853D28"/>
</svg>
