<svg width="51" height="50" viewBox="0 0 51 50" fill="none" xmlns="http://www.w3.org/2000/svg">
<path d="M16.124 26.1846V14.6904L31.7534 23.0588V35.3931L16.124 26.1846Z" fill="#FCC75C"/>
<path d="M43.6304 28.1551L43.9111 16.228L31.7533 23.0588V35.3932L43.6304 28.1551Z" fill="#EDAC3B"/>
<path d="M31.7346 23.3832L16.0898 14.673L29.0079 8.84375L43.906 16.2337L31.7346 23.3832Z" fill="#FBDF93"/>
<path d="M11.3477 29.0806V17.084L26.9771 25.9548V38.2891L11.3477 29.0806Z" fill="#FCC75C"/>
<path d="M26.9775 38.2888V26.0233L30.5481 23.8867V36.0051L26.9775 38.2888Z" fill="#EDAC3B"/>
<path d="M15.3322 15.272L11.3477 17.0575L26.974 26.0604L30.6026 23.9418L15.3322 15.272Z" fill="#FBDF93"/>
<path d="M6.49609 31.9478V19.9512L22.1255 28.822V41.1563L6.49609 31.9478Z" fill="#FCC75C"/>
<path d="M22.126 41.156V28.8905L25.6966 26.7539V38.8723L22.126 41.156Z" fill="#EDAC3B"/>
<path d="M10.4806 18.1392L6.49609 19.9247L22.1224 28.9276L25.751 26.8089L10.4806 18.1392Z" fill="#FBDF93"/>
</svg>
