<svg width="50" height="51" viewBox="0 0 50 51" fill="none" xmlns="http://www.w3.org/2000/svg">
<path d="M13.065 13.2188C13.0424 12.6391 13.031 12.3493 13.1368 12.1268C13.2298 11.9313 13.3837 11.7712 13.5755 11.6707C13.7936 11.5563 14.0837 11.5563 14.6638 11.5563H34.3362C34.9163 11.5563 35.2064 11.5563 35.4245 11.6707C35.6163 11.7712 35.7702 11.9313 35.8632 12.1268C35.969 12.3493 35.9576 12.6391 35.935 13.2188L34.9649 38.0188C34.9438 38.559 34.9332 38.8291 34.8214 39.0345C34.7229 39.2153 34.5711 39.3613 34.3866 39.4525C34.177 39.5563 33.9067 39.5563 33.3661 39.5563H15.6339C15.0933 39.5563 14.823 39.5563 14.6134 39.4525C14.4289 39.3613 14.2771 39.2153 14.1786 39.0345C14.0668 38.8291 14.0562 38.559 14.0351 38.0188L13.065 13.2188Z" fill="#CDD9EB"/>
<path d="M34.4026 25.8882C34.4217 25.4486 34.4313 25.2288 34.3585 25.0365C34.2963 24.8723 34.1804 24.7142 34.0426 24.6055C33.8812 24.4782 33.6799 24.4241 33.2772 24.3161C30.1562 23.4783 27.9704 23.5833 24.6172 24.6618C21.7014 25.9996 19.7565 26.1408 17.2096 25.4393C16.3722 25.2086 15.9534 25.0932 15.6756 25.1781C15.4198 25.2563 15.2332 25.4052 15.1002 25.6373C14.9558 25.8894 14.974 26.2919 15.0104 27.0968L15.4377 36.5545C15.4619 37.0915 15.4741 37.3601 15.5863 37.5642C15.6851 37.7438 15.8367 37.8887 16.0207 37.9793C16.2296 38.0822 16.4984 38.0822 17.036 38.0822H32.3388C32.8772 38.0822 33.1463 38.0822 33.3555 37.9791C33.5395 37.8883 33.6912 37.7431 33.7899 37.5632C33.9021 37.3588 33.9138 37.0898 33.9373 36.552L34.4026 25.8882Z" fill="#D2892C"/>
<path d="M14.916 25.8948C14.8943 25.4531 14.8835 25.2322 14.956 25.0387C15.0179 24.8736 15.1342 24.7143 15.2725 24.605C15.4346 24.4769 15.6368 24.4229 16.0411 24.3148C19.1725 23.4784 21.416 23.5838 24.7676 24.6618C27.6953 26.0051 29.6605 25.6885 32.2298 24.782C33.0068 24.5079 33.3953 24.3708 33.688 24.4447C33.9473 24.5101 34.1623 24.6695 34.3001 24.8987C34.4558 25.1573 34.4379 25.558 34.4021 26.3595L33.9464 36.5537C33.9224 37.091 33.9104 37.3597 33.7982 37.5639C33.6994 37.7436 33.5478 37.8886 33.3638 37.9793C33.1548 38.0823 32.8859 38.0823 32.348 38.0823H17.0377C16.502 38.0823 16.2341 38.0823 16.0256 37.9799C15.842 37.8897 15.6906 37.7455 15.5915 37.5666C15.479 37.3633 15.4659 37.0958 15.4396 36.5607L14.916 25.8948Z" fill="#EB9930"/>
</svg>
