<svg width="50" height="50" viewBox="0 0 50 50" fill="none" xmlns="http://www.w3.org/2000/svg">
<path d="M17.3406 22.351C18.671 20.3483 19.9684 16.1958 19.1548 10.4604H25.3084V22.351V30.3177V33.8101V35.8053V38.4913V39.5109C24.8414 39.5187 24.5628 39.5248 24.4058 39.5293C23.8801 39.5443 24.7161 39.5417 24.4058 39.5293C24.2864 39.5245 23.9975 39.5182 23.3963 39.5109H19.1548C19.2787 37.9824 19.4922 37.5857 21.0462 36.6855C22.0325 36.1141 22.3086 35.6474 22.3086 34.3568C22.3086 33.0661 19.155 32.5611 17.6063 29.9739C16.0577 27.3866 16.0102 24.3538 17.3406 22.351Z" fill="#8397B5"/>
<path d="M33.1642 23.1872C32.2202 21.0366 30.203 16.1958 31.0165 10.4604H24.863V22.351V30.3177V33.8101V35.8053V38.4913V39.5109C25.33 39.5187 25.6086 39.5248 25.7656 39.5293C26.2913 39.5443 25.4553 39.5417 25.7656 39.5293C25.885 39.5245 26.1739 39.5182 26.775 39.5109H31.0165C30.8927 37.9824 30.6792 37.5857 29.1251 36.6855C28.1388 36.1141 27.8773 35.3341 27.8773 34.4744C27.8773 33.6147 30.3716 32.8038 31.9274 30.7358C33.4832 28.6678 34.1082 25.3377 33.1642 23.1872Z" fill="#8397B5"/>
<path d="M24.4501 25.1249C26.5617 22.9865 30.0104 21.9019 31.5277 23.0702C34.7284 25.5346 30.3199 32.6593 24.45 32.6593C18.5802 32.6593 17.2008 26.7434 17.3724 25.5815C17.544 24.4197 21.5155 26.4919 24.4501 25.1249Z" fill="#CD782C" fill-opacity="0.6"/>
<path d="M25.3466 25.1248C22.6234 23.2311 19.2495 21.9863 18.2689 23.0701C15.1807 26.4836 19.4105 33.1158 25.2972 32.9808C31.1839 32.8457 32.8817 26.9513 32.4243 25.5814C31.9669 24.2115 28.2812 26.4917 25.3466 25.1248Z" fill="#CD782C"/>
</svg>
