<svg width="51" height="50" viewBox="0 0 51 50" fill="none" xmlns="http://www.w3.org/2000/svg">
<path d="M25.8379 19.916L26.4658 9.61744" stroke="#805A4B" stroke-width="2.5" stroke-linecap="round"/>
<path d="M20.8835 13.7988C18.4253 13.906 16.3632 12.4021 16.3337 11.7252C16.3042 11.0482 18.2276 9.37056 20.6858 9.26339C23.144 9.15621 25.2158 10.8833 25.2356 11.3371C25.2554 11.7908 23.3417 13.6917 20.8835 13.7988Z" fill="#2C6757"/>
<path d="M24.1322 15.4621C25.2267 14.3094 27.077 14.3094 28.1715 15.4621V15.4621C28.8711 16.1989 29.9235 16.494 30.9028 16.2234V16.2234C32.3836 15.8143 33.9125 16.6972 34.2984 18.1842L34.3924 18.5465C34.6361 19.4858 35.3527 20.2296 36.2822 20.5083L36.5334 20.5836C37.9436 21.0064 38.7785 22.4565 38.4361 23.8884L38.2868 24.5128C38.073 25.407 38.3157 26.3491 38.9351 27.0285L39.3363 27.4686C40.3022 28.5283 40.3022 30.1492 39.3363 31.2089L38.9351 31.649C38.3157 32.3284 38.073 33.2705 38.2868 34.1647L38.4361 34.7891C38.7785 36.221 37.9436 37.6711 36.5334 38.0939L36.2822 38.1692C35.3527 38.4479 34.6361 39.1917 34.3924 40.131L34.2984 40.4933C33.9125 41.9803 32.3836 42.8632 30.9028 42.4541V42.4541C29.9235 42.1835 28.8711 42.4786 28.1715 43.2154V43.2154C27.077 44.3681 25.2267 44.3681 24.1322 43.2154V43.2154C23.4326 42.4786 22.3802 42.1835 21.4009 42.4541V42.4541C19.9201 42.8632 18.3912 41.9803 18.0053 40.4933L17.9113 40.131C17.6676 39.1917 16.951 38.4479 16.0215 38.1692L15.7703 38.0939C14.3601 37.6711 13.5252 36.221 13.8676 34.7891L14.0169 34.1647C14.2307 33.2705 13.988 32.3284 13.3686 31.649L12.9674 31.2089C12.0015 30.1492 12.0015 28.5283 12.9674 27.4686L13.3686 27.0285C13.988 26.3491 14.2307 25.407 14.0169 24.5128L13.8676 23.8884C13.5252 22.4565 14.3601 21.0064 15.7703 20.5836L16.0215 20.5083C16.951 20.2296 17.6676 19.4858 17.9113 18.5465L18.0053 18.1842C18.3912 16.6972 19.9201 15.8143 21.4009 16.2234V16.2234C22.3802 16.494 23.4326 16.1989 24.1322 15.4621V15.4621Z" fill="#DE5F5A"/>
<path d="M20.0801 22.6973L19.8008 24.0759" stroke="#F87E7A" stroke-width="1.5" stroke-linecap="round"/>
<path d="M24.4189 19.7424L24.1396 21.1211" stroke="#F87E7A" stroke-width="1.5" stroke-linecap="round"/>
<path d="M29.543 21.1211L29.2637 22.4997" stroke="#F87E7A" stroke-width="1.5" stroke-linecap="round"/>
<path d="M18.6475 29.3484L18.3682 30.727" stroke="#F87E7A" stroke-width="1.5" stroke-linecap="round"/>
<path d="M23.8516 27.3477L23.5723 28.7263" stroke="#F87E7A" stroke-width="1.5" stroke-linecap="round"/>
<path d="M30.1582 27.9697L29.8789 29.3484" stroke="#F87E7A" stroke-width="1.5" stroke-linecap="round"/>
<path d="M35.0195 25.969L34.7402 27.3476" stroke="#F87E7A" stroke-width="1.5" stroke-linecap="round"/>
<path d="M21.7607 36.5256L21.4814 37.9043" stroke="#F87E7A" stroke-width="1.5" stroke-linecap="round"/>
<path d="M26.4316 32.7231L26.1523 34.1018" stroke="#F87E7A" stroke-width="1.5" stroke-linecap="round"/>
<path d="M31.4453 35.8364L31.166 37.2151" stroke="#F87E7A" stroke-width="1.5" stroke-linecap="round"/>
</svg>
