<svg width="50" height="51" viewBox="0 0 50 51" fill="none" xmlns="http://www.w3.org/2000/svg">
<path d="M20.4855 16.8615C14.1097 19.9668 10.04 35.9683 12.1486 38.1125C14.2572 40.2566 30.7837 36.8049 33.8896 29.4493C35.3725 25.9375 34.9904 23.1748 32.0914 19.9677C29.1925 16.7606 25.3418 14.4963 20.4855 16.8615Z" fill="#ED9E44"/>
<path d="M27.7135 15.2131C27.9085 12.7603 29.6539 10.8982 30.3294 10.9519C31.0049 11.0056 32.434 13.1202 32.2389 15.573C32.0439 18.0258 30.0758 19.8702 29.623 19.8342C29.1702 19.7982 27.5184 17.6659 27.7135 15.2131Z" fill="#2C6757"/>
<path d="M30.9648 14.9664C32.6811 13.2033 35.2134 12.8846 35.6989 13.3572C36.1845 13.8299 35.9342 16.3698 34.2179 18.133C32.5016 19.8961 29.8093 20.059 29.4838 19.7422C29.1584 19.4254 29.2486 16.7296 30.9648 14.9664Z" fill="#2C6757"/>
<path d="M33.2308 16.5207C35.6659 16.1678 37.8683 17.4576 37.9655 18.1282C38.0626 18.7988 36.3169 20.6607 33.8818 21.0135C31.4467 21.3663 29.2123 19.8554 29.1472 19.4059C29.082 18.9564 30.7957 16.8735 33.2308 16.5207Z" fill="#2C6757"/>
</svg>
