<svg width="51" height="50" viewBox="0 0 51 50" fill="none" xmlns="http://www.w3.org/2000/svg">
<path d="M30.036 7.05899C30.817 6.27794 32.0834 6.27794 32.8644 7.05899L43.8142 18.0088C44.5953 18.7898 44.5953 20.0562 43.8142 20.8372L31.5533 33.0981L17.7751 19.3198L30.036 7.05899Z" fill="#714726"/>
<path d="M17.541 19.0867L31.7857 33.3313L21.9429 43.1742C21.1618 43.9552 19.8955 43.9552 19.1145 43.1742L7.69821 31.7579C6.91716 30.9769 6.91716 29.7105 7.69821 28.9295L17.541 19.0867Z" fill="#C6433C"/>
<path d="M17.542 19.0864L31.7863 33.3308L16.4032 27.1931L17.542 19.0864Z" fill="#D9D9D9"/>
<path d="M27.5684 12.6211L31.748 16.801L34.9281 13.6209" stroke="#432914" stroke-linecap="round" stroke-linejoin="round"/>
<path d="M27.5684 12.6211L31.748 16.801L34.9281 13.6209" stroke="#432914" stroke-linecap="round" stroke-linejoin="round"/>
<path d="M33.7646 18.7625L37.9443 22.9424L41.1244 19.7623" stroke="#432914" stroke-linecap="round" stroke-linejoin="round"/>
<path d="M33.7646 18.7625L37.9443 22.9424L41.1244 19.7623" stroke="#432914" stroke-linecap="round" stroke-linejoin="round"/>
<path d="M22.1934 18.1687L26.373 22.3486L29.5531 19.1686" stroke="#432914" stroke-linecap="round" stroke-linejoin="round"/>
<path d="M22.1934 18.1687L26.373 22.3486L29.5531 19.1686" stroke="#432914" stroke-linecap="round" stroke-linejoin="round"/>
<path d="M28.0547 24.1252L32.2344 28.3052L35.4145 25.1251" stroke="#432914" stroke-linecap="round" stroke-linejoin="round"/>
<path d="M28.0547 24.1252L32.2344 28.3052L35.4145 25.1251" stroke="#432914" stroke-linecap="round" stroke-linejoin="round"/>
</svg>
