<svg width="50" height="50" viewBox="0 0 50 50" fill="none" xmlns="http://www.w3.org/2000/svg">
<path d="M34.0493 30.3281C36.5036 34.6989 35.2626 40.0563 33.8878 40.8282C32.513 41.6002 27.2928 39.871 24.8385 35.5001C22.3842 31.1292 24.0784 25.5174 24.9999 24.9999C25.9215 24.4825 31.5949 25.9572 34.0493 30.3281Z" fill="#58A257"/>
<path d="M25.1606 14.4999C27.6149 18.8708 26.374 24.2281 24.9991 25.0001C23.6243 25.7721 18.4041 24.0428 15.9498 19.672C13.4955 15.3011 15.1897 9.68926 16.1112 9.1718C17.0328 8.65434 22.7063 10.1291 25.1606 14.4999Z" fill="#58A257"/>
<path d="M14.4999 24.8384C18.8708 22.3841 24.2281 23.6251 25.0001 24.9999C25.7721 26.3747 24.0428 31.5949 19.672 34.0492C15.3011 36.5035 9.68926 34.8093 9.1718 33.8878C8.65434 32.9662 10.1291 27.2928 14.4999 24.8384Z" fill="#58A257"/>
<path d="M30.3281 15.9507C34.6989 13.4964 40.0563 14.7374 40.8282 16.1122C41.6002 17.487 39.871 22.7072 35.5001 25.1615C31.1292 27.6158 25.5174 25.9216 24.9999 25.0001C24.4825 24.0785 25.9572 18.4051 30.3281 15.9507Z" fill="#58A257"/>
<path d="M28.6286 31.235C28.6286 34.6785 26.0834 37.47 25.0003 37.47C23.9172 37.47 21.3721 34.6785 21.3721 31.235C21.3721 27.7915 24.2743 25 25.0003 25C25.7263 25 28.6286 27.7915 28.6286 31.235Z" fill="#6CC46A"/>
<path d="M28.6286 18.765C28.6286 22.2085 26.0834 25 25.0003 25C23.9172 25 21.3721 22.2085 21.3721 18.765C21.3721 15.3215 24.2743 12.53 25.0003 12.53C25.7263 12.53 28.6286 15.3215 28.6286 18.765Z" fill="#6CC46A"/>
<path d="M18.7653 21.3719C22.2088 21.3719 25.0002 23.9171 25.0002 25.0002C25.0002 26.0833 22.2088 28.6284 18.7653 28.6284C15.3218 28.6284 12.5303 25.7262 12.5303 25.0002C12.5303 24.2742 15.3218 21.3719 18.7653 21.3719Z" fill="#6CC46A"/>
<path d="M31.235 21.3719C34.6785 21.3719 37.47 23.9171 37.47 25.0002C37.47 26.0833 34.6785 28.6284 31.235 28.6284C27.7915 28.6284 25 25.7262 25 25.0002C25 24.2742 27.7915 21.3719 31.235 21.3719Z" fill="#6CC46A"/>
</svg>
