<svg width="50" height="51" viewBox="0 0 50 51" fill="none" xmlns="http://www.w3.org/2000/svg">
<path d="M15.7571 12.7482C15.7376 12.1712 15.7279 11.8826 15.8341 11.6613C15.9275 11.4668 16.0813 11.3077 16.2726 11.2078C16.4901 11.0941 16.7788 11.0941 17.3562 11.0941H33.9426C34.52 11.0941 34.8087 11.0941 35.0263 11.2078C35.2175 11.3077 35.3714 11.4668 35.4648 11.6613C35.571 11.8826 35.5612 12.1712 35.5417 12.7482L34.7025 37.5482C34.6841 38.0911 34.675 38.3625 34.5635 38.5691C34.4654 38.7508 34.3134 38.8978 34.1284 38.9897C33.9182 39.0941 33.6466 39.0941 33.1034 39.0941H18.1954C17.6522 39.0941 17.3806 39.0941 17.1704 38.9897C16.9854 38.8978 16.8335 38.7508 16.7353 38.5691C16.6239 38.3625 16.6147 38.0911 16.5963 37.5482L15.7571 12.7482Z" fill="#CDD9EB"/>
<path d="M33.6893 25.3432C33.7041 24.9309 33.7116 24.7248 33.6432 24.5396C33.5855 24.3835 33.4749 24.2264 33.3473 24.1195C33.196 23.9928 33.0143 23.935 32.6509 23.8195C30.1321 23.0192 28.3403 23.1361 25.6119 24.1996C23.4096 25.4242 21.8785 25.6462 20.0233 25.1369C19.1012 24.8838 18.6402 24.7573 18.3636 24.8413C18.0996 24.9215 17.9276 25.0578 17.7892 25.2964C17.6442 25.5465 17.6598 25.9658 17.6911 26.8043L18.0369 36.0797C18.0571 36.6208 18.0671 36.8913 18.1789 37.0972C18.2772 37.2783 18.4291 37.4246 18.6137 37.5161C18.8235 37.6201 19.0943 37.6201 19.6358 37.6201H31.7039C32.246 37.6201 32.517 37.6201 32.727 37.5159C32.9118 37.4243 33.0637 37.2777 33.1619 37.0964C33.2736 36.8903 33.2833 36.6194 33.3028 36.0776L33.6893 25.3432Z" fill="#D2892C"/>
<path d="M17.6032 25.3484C17.5864 24.9345 17.578 24.7275 17.6462 24.5413C17.7037 24.3844 17.8148 24.2261 17.9428 24.1188C18.0947 23.9914 18.277 23.9338 18.6416 23.8186C21.1701 23.0193 23.0083 23.1365 25.7357 24.1997C27.9593 25.4361 29.5101 25.2662 31.396 24.5245C32.2215 24.1998 32.6342 24.0375 32.9333 24.1043C33.2025 24.1645 33.4175 24.3168 33.5635 24.5509C33.7257 24.8108 33.7103 25.2296 33.6794 26.0671L33.3101 36.0791C33.2901 36.6204 33.2801 36.891 33.1685 37.0969C33.0702 37.2781 32.9183 37.4245 32.7336 37.5161C32.5237 37.6201 32.2529 37.6201 31.7112 37.6201H19.6368C19.0969 37.6201 18.8269 37.6201 18.6175 37.5166C18.4331 37.4254 18.2813 37.2797 18.1828 37.0992C18.0709 36.8941 18.0599 36.6243 18.0381 36.0849L17.6032 25.3484Z" fill="#EB9930"/>
<rect x="19.3789" y="26.6379" width="3.5" height="3.5" rx="0.4" transform="rotate(-11.0288 19.3789 26.6379)" fill="#EDEDED" fill-opacity="0.3"/>
<rect x="24.5723" y="31.0237" width="3.5" height="3.5" rx="0.4" transform="rotate(19.1877 24.5723 31.0237)" fill="#EDEDED" fill-opacity="0.3"/>
<rect x="28.7188" y="26.6379" width="3.5" height="3.5" rx="0.4" transform="rotate(7.39329 28.7188 26.6379)" fill="#EDEDED" fill-opacity="0.3"/>
</svg>
