<svg width="51" height="51" viewBox="0 0 51 51" fill="none" xmlns="http://www.w3.org/2000/svg">
<path d="M15.0111 3.19568C11.3528 8.24581 10.1731 11.6622 9.76992 18.5161C9.36675 25.3699 13.1735 31.962 23.4776 36.2555V44.3188C20.0947 45.1679 18.5467 45.7618 16.6238 47.141C14.7009 48.5202 16.6238 48.3505 16.6238 48.3505H33.5285C33.5285 48.3505 35.4514 48.5202 33.5285 47.141C31.6056 45.7618 30.0576 45.1679 26.6746 44.3188V36.2555C36.9788 31.962 40.7855 25.3699 40.3824 18.5161C39.9792 11.6622 38.7995 8.24581 35.1412 3.19568H15.0111Z" fill="#8397B5"/>
<path d="M24.2516 18.9565C27.9804 15.1804 34.0703 13.2652 36.7497 15.3282C42.4017 19.68 34.6169 32.2613 24.2515 32.2613C13.8861 32.2613 11.4503 21.8145 11.7534 19.7629C12.0565 17.7112 19.0695 21.3704 24.2516 18.9565Z" fill="#90514E"/>
<path d="M25.8339 18.9563C21.0251 15.6123 15.0672 13.4141 13.3357 15.328C7.88227 21.3558 15.3516 33.0674 25.7467 32.8289C36.1418 32.5904 39.1398 22.1816 38.3321 19.7626C37.5244 17.3436 31.016 21.3701 25.8339 18.9563Z" fill="#B0352E"/>
</svg>
