<svg width="50" height="50" viewBox="0 0 50 50" fill="none" xmlns="http://www.w3.org/2000/svg">
<path d="M17.5723 38.0053C19.0554 41.7419 20.9992 43.2175 24.3671 43.3229C27.5662 43.4231 29.8792 41.8075 31.2884 38.9338C32.7261 36.0021 31.5536 31.6655 29.9956 28.9311C30.0772 30.9257 30.4032 32.3245 29.185 33.8423C29.0154 31.7539 27.6115 30.8384 26.9837 30.24C25.4368 28.7657 25.0804 27.5258 26.4346 24.7957C21.6617 26.6593 20.4685 27.7324 20.1045 32.73C19.2888 32.1216 19.066 31.4861 19.0073 29.9446C17.1817 33.056 16.9329 34.8238 17.5723 38.0053Z" fill="#E3765F"/>
<path d="M21.0781 40.3273C21.5972 41.905 22.5959 42.8657 24.2252 43.1881C25.1431 43.3698 25.7434 43.3043 26.6093 42.9497C28.6518 42.1132 28.825 40.7653 29.1548 38.4365C28.498 39.7226 28.0526 39.9567 27.1338 40.3273C28.0526 37.0682 24.2252 36.5603 24.2252 32.9365C23.2636 34.6848 22.7421 35.6782 23.0331 38.1815C22.124 38.1785 21.8794 37.7023 21.6027 36.5603C20.8653 38.0402 20.6139 38.9164 21.0781 40.3273Z" fill="#F8D370"/>
<path d="M14.6944 23.2023C16.3728 25.1372 16.0263 26.7558 14.6944 28.1622C12.9391 30.0155 9.89778 29.0143 8.49326 26.096C4.53645 22.8037 3.76162 20.8511 7.11593 17.0024C7.22467 12.6326 7.36819 11.4927 12.1047 10.2364C13.9878 7.99924 15.1011 6.52562 19.3068 8.42905C22.8707 7.37836 25.6921 7.36867 27.7827 10.9404C30.0312 10.3803 30.6184 10.418 32.5255 12.1058C34.4063 11.2529 35.0334 11.6062 36.0493 12.5937C39.5305 10.612 41.9688 11.845 41.9736 14.247C41.978 16.4159 39.7174 17.5534 37.1515 17.0024C34.877 19.1456 33.3151 18.9852 30.5 17.8646C28.2769 18.7474 26.9344 18.8935 24.6139 17.0024C23.3358 17.6788 22.7809 17.508 21.8584 17.0024C20.2733 19.2347 19.6356 20.6738 14.6944 20.4467C15.2225 21.5213 15.2742 22.1271 14.6944 23.2023Z" fill="#C6C6C6"/>
<path d="M34.1445 3.70513C32.5143 3.06623 30.6842 3.9166 30.1709 5.78204C30.5077 7.23524 30.9039 7.84317 32.6091 7.94924C33.689 9.00103 34.4597 9.04058 35.9503 8.40074C37.7836 8.51052 39.1585 8.17671 38.8399 6.95592C38.3968 5.25806 37.361 5.37389 36.1613 6.03848C36.1613 4.89509 35.1452 4.0973 34.1445 3.70513Z" fill="#C6C6C6"/>
</svg>
