<svg width="51" height="51" viewBox="0 0 51 51" fill="none" xmlns="http://www.w3.org/2000/svg">
<path d="M15.7045 3.1958C12.0462 8.24594 10.8664 11.6623 10.4633 18.5162C10.0601 25.3701 13.8669 31.9621 24.171 36.2556V44.319C20.788 45.168 19.24 45.7619 17.3171 47.1411C15.3943 48.5204 17.3171 48.3506 17.3171 48.3506H34.2219C34.2219 48.3506 36.1447 48.5204 34.2219 47.1411C32.299 45.7619 30.751 45.168 27.368 44.319V36.2556C37.6721 31.9621 41.4789 25.3701 41.0757 18.5162C40.6726 11.6623 39.4929 8.24594 35.8345 3.1958H15.7045Z" fill="#8397B5"/>
<path d="M24.9449 18.9567C28.6737 15.1805 34.7637 13.2653 37.4431 15.3284C43.0951 19.6801 35.3103 32.2614 24.9449 32.2614C14.5795 32.2614 12.1437 21.8147 12.4468 19.763C12.7498 17.7114 19.7629 21.3705 24.9449 18.9567Z" fill="#D0AD92"/>
<path d="M26.5273 18.9564C21.7184 15.6124 15.7606 13.4143 14.0291 15.3281C8.57562 21.3559 16.0449 33.0675 26.4401 32.829C36.8352 32.5905 39.8331 22.1817 39.0255 19.7627C38.2178 17.3437 31.7093 21.3702 26.5273 18.9564Z" fill="#EDA976"/>
</svg>
