<svg width="50" height="50" viewBox="0 0 50 50" fill="none" xmlns="http://www.w3.org/2000/svg">
<path fill-rule="evenodd" clip-rule="evenodd" d="M23.3723 45.4298V33.1499V32.6308C22.9122 28.4542 22.3088 26.8279 21.7874 25.1956C21.4851 24.2492 21.1822 23.3008 20.8898 21.8522C20.6666 20.7464 20.4723 19.9383 20.2237 18.9049C19.328 15.1811 18.628 12.2709 19.2176 2H19.5822H29.7738H30.1641C30.7537 12.2709 30.0537 15.1811 29.158 18.9049C28.9423 19.802 28.7151 20.7464 28.4919 21.8522C28.1995 23.3008 27.8966 24.2492 27.5943 25.1956C27.0729 26.8279 26.4067 28.3692 26 32.5L25.9838 33.4416V45.4298C30.9251 46.6932 31.9703 47.3469 32.3557 48.4659H17C17.3855 47.3469 18.4309 46.6932 23.3723 45.4298Z" fill="#8397B5"/>
<path d="M29 13.9044C28.1677 19.5612 25.5399 28 24.5 28C23.4601 28 21.8561 18.7811 21.3266 13.8464C22.8674 14.7648 23.7694 14.7557 24.8923 13.8464C26.3968 12.3766 28.5 12.4044 29 13.9044Z" fill="#FAF8BE" fill-opacity="0.6"/>
<circle cx="25.6" cy="11.5043" r="0.6" fill="white"/>
<circle cx="27.8578" cy="9.67568" r="0.6" fill="white"/>
<circle cx="25.0004" cy="6.6" r="0.6" fill="white"/>
<path d="M20.5 13.9999C20.6738 19.5578 23.4601 28 24.5 28C25.5399 28 28.4704 18.8387 29 13.9041C27.4592 14.8224 26.1229 14.9092 25 13.9999C24.1081 12.5578 20.5003 12.4999 20.5 13.9999Z" fill="#FAF8BE"/>
</svg>
