<svg width="50" height="50" viewBox="0 0 50 50" fill="none" xmlns="http://www.w3.org/2000/svg">
<path d="M14.9349 2.41919C11.2766 7.46933 10.0969 10.8857 9.69375 17.7396C9.29058 24.5934 13.0973 31.1855 23.4015 35.479V43.5423C20.0185 44.3914 18.4705 44.9853 16.5476 46.3645C14.6247 47.7437 16.5476 47.574 16.5476 47.574H33.4523C33.4523 47.574 35.3752 47.7437 33.4523 46.3645C31.5295 44.9853 29.9814 44.3914 26.5985 43.5423V35.479C36.9026 31.1855 40.7094 24.5934 40.3062 17.7396C39.903 10.8857 38.7233 7.46933 35.065 2.41919H14.9349Z" fill="#CDD9EB"/>
<path d="M24.1754 18.1801C27.9042 14.4039 33.9942 12.4887 36.6736 14.5518C42.3256 18.9035 34.5408 31.4848 24.1754 31.4848C13.8099 31.4848 11.3742 21.038 11.6772 18.9864C11.9803 16.9347 18.9934 20.5939 24.1754 18.1801Z" fill="#EDA976" fill-opacity="0.6"/>
<path d="M25.7577 18.1798C20.9489 14.8358 14.991 12.6376 13.2596 14.5515C7.80609 20.5793 15.2754 32.2909 25.6705 32.0524C36.0657 31.8139 39.0636 21.4051 38.2559 18.9861C37.4482 16.5671 30.9398 20.5936 25.7577 18.1798Z" fill="#EDA976"/>
</svg>
