<svg width="50" height="51" viewBox="0 0 50 51" fill="none" xmlns="http://www.w3.org/2000/svg">
<path d="M13.9372 12.9662C13.9914 12.4651 14.0185 12.2145 14.1344 12.024C14.2362 11.8568 14.3866 11.7218 14.5637 11.6386C14.7657 11.5438 15.0182 11.5438 15.5233 11.5438H33.5037C34.0001 11.5438 34.2483 11.5438 34.4483 11.6365C34.6235 11.7178 34.7738 11.8505 34.8761 12.0143C34.9928 12.2013 35.0234 12.4464 35.0844 12.9364C36.2613 22.3789 36.1246 28.3328 35.0626 38.1199C35.0081 38.6222 34.9809 38.8734 34.8649 39.0639C34.7631 39.2311 34.6129 39.3659 34.4356 39.4491C34.2337 39.5438 33.981 39.5438 33.4754 39.5438H15.5205C15.0163 39.5438 14.7642 39.5438 14.5625 39.4492C14.3855 39.3662 14.235 39.2313 14.1333 39.0645C14.0173 38.8742 13.9899 38.6242 13.9351 38.1243C12.8741 28.4358 12.9082 22.4797 13.9372 12.9662Z" fill="#8397B5"/>
<path d="M34.4035 25.8758C34.4227 25.4362 34.4323 25.2164 34.3595 25.024C34.2973 24.8599 34.1814 24.7018 34.0436 24.5931C33.8822 24.4657 33.6808 24.4117 33.2782 24.3036C30.1571 23.4659 27.9714 23.5708 24.6182 24.6493C21.7024 25.9872 19.7574 26.1284 17.2106 25.4268C16.3731 25.1961 15.9544 25.0808 15.6766 25.1657C15.4208 25.2438 15.2342 25.3928 15.1012 25.6249C14.9568 25.8769 14.975 26.2794 15.0113 27.0844L15.4387 36.542C15.4629 37.0791 15.475 37.3476 15.5873 37.5517C15.6861 37.7313 15.8377 37.8763 16.0216 37.9669C16.2306 38.0698 16.4994 38.0698 17.037 38.0698H32.3398C32.8781 38.0698 33.1473 38.0698 33.3564 37.9667C33.5405 37.8759 33.6922 37.7307 33.7909 37.5508C33.903 37.3463 33.9148 37.0774 33.9382 36.5395L34.4035 25.8758Z" fill="#D2AB55"/>
<path d="M14.4796 25.7682C14.49 25.3741 14.4953 25.1771 14.5731 24.9986C14.6384 24.8488 14.7566 24.6988 14.8871 24.6003C15.0425 24.483 15.2261 24.4337 15.5934 24.3351C18.8415 23.4634 21.373 23.5575 24.7676 24.6494C27.7549 26.02 29.7401 25.6625 32.3873 24.7136C33.1147 24.4528 33.4784 24.3224 33.7653 24.3892C34.0168 24.4477 34.2348 24.6002 34.376 24.8165C34.537 25.0631 34.5391 25.4362 34.5432 26.1824C34.5636 29.8572 34.4004 32.6137 33.977 36.645C33.9244 37.1461 33.8981 37.3966 33.7823 37.5878C33.6807 37.7555 33.5301 37.8911 33.3527 37.9746C33.1504 38.0698 32.8972 38.0698 32.3907 38.0698H16.9074C16.4134 38.0698 16.1663 38.0698 15.968 37.979C15.7932 37.8989 15.6454 37.7705 15.5418 37.6084C15.4244 37.4247 15.39 37.1796 15.3213 36.6896C14.7468 32.5922 14.3712 29.8461 14.4796 25.7682Z" fill="#E3BE6E"/>
<rect x="17.0039" y="26.3091" width="4" height="4" rx="0.4" transform="rotate(-11.0288 17.0039 26.3091)" fill="#EDEDED" fill-opacity="0.5"/>
<rect x="21.8711" y="31.4734" width="4" height="4" rx="0.4" transform="rotate(19.1877 21.8711 31.4734)" fill="#EDEDED" fill-opacity="0.5"/>
<rect x="27.1074" y="27.0876" width="4" height="4" rx="0.4" transform="rotate(7.39329 27.1074 27.0876)" fill="#EDEDED" fill-opacity="0.5"/>
</svg>
