<svg width="50" height="51" viewBox="0 0 50 51" fill="none" xmlns="http://www.w3.org/2000/svg">
<path d="M13.9372 12.7745C13.9914 12.2734 14.0185 12.0229 14.1344 11.8323C14.2362 11.6652 14.3866 11.5301 14.5637 11.447C14.7657 11.3522 15.0182 11.3522 15.5233 11.3522H33.5037C34.0001 11.3522 34.2483 11.3522 34.4483 11.4449C34.6235 11.5261 34.7738 11.6588 34.8761 11.8227C34.9928 12.0097 35.0234 12.2547 35.0844 12.7448C36.2613 22.1872 36.1246 28.1412 35.0626 37.9283C35.0081 38.4306 34.9809 38.6817 34.8649 38.8722C34.7631 39.0395 34.6129 39.1742 34.4356 39.2574C34.2337 39.3522 33.981 39.3522 33.4754 39.3522H15.5205C15.0163 39.3522 14.7642 39.3522 14.5625 39.2576C14.3855 39.1746 14.235 39.0397 14.1333 38.8728C14.0173 38.6826 13.9899 38.4326 13.9351 37.9327C12.8741 28.2442 12.9082 22.288 13.9372 12.7745Z" fill="#CDD9EB"/>
<path d="M34.4035 25.6841C34.4227 25.2445 34.4323 25.0247 34.3595 24.8324C34.2973 24.6682 34.1814 24.5101 34.0436 24.4014C33.8822 24.2741 33.6808 24.22 33.2782 24.112C30.1571 23.2742 27.9714 23.3792 24.6182 24.4577C21.7024 25.7955 19.7574 25.9367 17.2106 25.2352C16.3731 25.0045 15.9544 24.8891 15.6766 24.974C15.4208 25.0522 15.2342 25.2011 15.1012 25.4332C14.9568 25.6853 14.975 26.0878 15.0113 26.8927L15.4387 36.3504C15.4629 36.8874 15.475 37.156 15.5873 37.3601C15.6861 37.5397 15.8377 37.6846 16.0216 37.7752C16.2306 37.8781 16.4994 37.8781 17.037 37.8781H32.3398C32.8781 37.8781 33.1473 37.8781 33.3564 37.775C33.5405 37.6842 33.6922 37.539 33.7909 37.3591C33.903 37.1547 33.9148 36.8857 33.9382 36.3479L34.4035 25.6841Z" fill="#E0BD70"/>
<path d="M14.4796 25.5765C14.49 25.1825 14.4953 24.9855 14.5731 24.807C14.6384 24.6571 14.7566 24.5072 14.8871 24.4086C15.0425 24.2913 15.2261 24.242 15.5934 24.1434C18.8415 23.2717 21.373 23.3659 24.7676 24.4577C27.7549 25.8284 29.7401 25.4709 32.3873 24.5219C33.1147 24.2612 33.4784 24.1308 33.7653 24.1975C34.0168 24.256 34.2348 24.4086 34.376 24.6248C34.537 24.8714 34.5391 25.2445 34.5432 25.9908C34.5636 29.6656 34.4004 32.4221 33.977 36.4534C33.9244 36.9544 33.8981 37.2049 33.7823 37.3962C33.6807 37.5639 33.5301 37.6995 33.3527 37.783C33.1504 37.8782 32.8972 37.8782 32.3907 37.8782H16.9074C16.4134 37.8782 16.1663 37.8782 15.968 37.7874C15.7932 37.7073 15.6454 37.5788 15.5418 37.4168C15.4244 37.233 15.39 36.988 15.3213 36.498C14.7468 32.4005 14.3712 29.6545 14.4796 25.5765Z" fill="#F7D07A"/>
<rect x="17.0039" y="26.1174" width="4" height="4" rx="0.4" transform="rotate(-11.0288 17.0039 26.1174)" fill="#EDEDED" fill-opacity="0.5"/>
<rect x="21.8711" y="31.2817" width="4" height="4" rx="0.4" transform="rotate(19.1877 21.8711 31.2817)" fill="#EDEDED" fill-opacity="0.5"/>
<rect x="27.1074" y="26.896" width="4" height="4" rx="0.4" transform="rotate(7.39329 27.1074 26.896)" fill="#EDEDED" fill-opacity="0.5"/>
</svg>
