<svg width="50" height="50" viewBox="0 0 50 50" fill="none" xmlns="http://www.w3.org/2000/svg">
<path d="M13.065 12.6625C13.0424 12.0828 13.031 11.793 13.1368 11.5706C13.2298 11.375 13.3837 11.2149 13.5755 11.1144C13.7936 11 14.0837 11 14.6638 11H34.3362C34.9163 11 35.2064 11 35.4245 11.1144C35.6163 11.2149 35.7702 11.375 35.8632 11.5706C35.969 11.793 35.9576 12.0828 35.935 12.6625L34.9649 37.4625C34.9438 38.0027 34.9332 38.2728 34.8214 38.4782C34.7229 38.659 34.5711 38.805 34.3866 38.8963C34.177 39 33.9067 39 33.3661 39H15.6339C15.0933 39 14.823 39 14.6134 38.8963C14.4289 38.805 14.2771 38.659 14.1786 38.4782C14.0668 38.2728 14.0562 38.0027 14.0351 37.4625L13.065 12.6625Z" fill="#CDD9EB"/>
<path d="M34.4035 25.332C34.4227 24.8923 34.4323 24.6725 34.3595 24.4802C34.2973 24.3161 34.1814 24.158 34.0436 24.0493C33.8822 23.9219 33.6808 23.8679 33.2782 23.7598C30.1571 22.922 27.9714 23.027 24.6182 24.1055C21.7024 25.4434 19.7574 25.5846 17.2106 24.883C16.3731 24.6523 15.9544 24.5369 15.6766 24.6218C15.4208 24.7 15.2342 24.849 15.1012 25.081C14.9568 25.3331 14.975 25.7356 15.0113 26.5405L15.4387 35.9982C15.4629 36.5353 15.475 36.8038 15.5873 37.0079C15.6861 37.1875 15.8377 37.3324 16.0216 37.423C16.2306 37.526 16.4994 37.526 17.037 37.526H32.3398C32.8781 37.526 33.1473 37.526 33.3564 37.4228C33.5405 37.3321 33.6922 37.1869 33.7909 37.0069C33.903 36.8025 33.9148 36.5336 33.9382 35.9957L34.4035 25.332Z" fill="#F9BF69" fill-opacity="0.6"/>
<path d="M14.916 25.3385C14.8943 24.8968 14.8835 24.676 14.956 24.4824C15.0179 24.3174 15.1342 24.158 15.2725 24.0487C15.4346 23.9206 15.6368 23.8666 16.0411 23.7586C19.1725 22.9221 21.416 23.0275 24.7676 24.1056C27.6953 25.4489 29.6605 25.1323 32.2298 24.2258C33.0068 23.9516 33.3953 23.8145 33.688 23.8884C33.9473 23.9538 34.1623 24.1133 34.3001 24.3424C34.4558 24.6011 34.4379 25.0018 34.4021 25.8032L33.9464 35.9974C33.9224 36.5348 33.9104 36.8034 33.7982 37.0076C33.6994 37.1873 33.5478 37.3324 33.3638 37.423C33.1548 37.526 32.8859 37.526 32.348 37.526H17.0377C16.502 37.526 16.2341 37.526 16.0256 37.4236C15.842 37.3334 15.6906 37.1892 15.5915 37.0103C15.479 36.8071 15.4659 36.5395 15.4396 36.0044L14.916 25.3385Z" fill="#F9BF69"/>
</svg>
