<svg width="50" height="50" viewBox="0 0 50 50" fill="none" xmlns="http://www.w3.org/2000/svg">
<path d="M29.0017 14.4873C26.9846 16.8911 23.7939 17.5346 23.1319 16.9791C22.47 16.4236 22.5495 13.1696 24.5666 10.7658C26.5836 8.36201 29.9926 7.90175 30.4363 8.27408C30.88 8.64641 31.0187 12.0835 29.0017 14.4873Z" fill="#377D59"/>
<path d="M26.3155 27.8505C26.3155 36.4785 27.2951 43.5867 23.9482 43.5867C20.6013 43.5867 8.72941 36.3876 8.77356 27.8505C8.81094 20.623 11.8672 14.3853 18.6437 14.3853C25.4203 14.3853 26.3155 19.2225 26.3155 27.8505Z" fill="#FBA2A6"/>
<path d="M41.2258 27.5871C41.3471 36.7204 30.9415 43.5867 24.165 43.5867C23.1854 43.5867 21.2266 38.4969 21.2266 28.3307C21.2266 18.1644 24.3614 14.5621 31.1379 14.5621C37.9145 14.5621 41.1297 20.3554 41.2258 27.5871Z" fill="#FF9195"/>
</svg>
