<svg width="50" height="50" viewBox="0 0 50 50" fill="none" xmlns="http://www.w3.org/2000/svg">
<rect x="10.6406" y="13.0574" width="28.7186" height="4.03854" rx="1.5" fill="#666E77"/>
<path d="M12.875 17.0959H37.1248L37.1237 17.1034L35.0331 32.4739L14.9666 32.4739L12.875 17.0959Z" fill="#DF6D78"/>
<path d="M37.1248 17.0959H12.875L13.1881 19.3981H36.8116L37.1237 17.1034L37.1248 17.0959Z" fill="#D95B6C"/>
<path fill-rule="evenodd" clip-rule="evenodd" d="M18.3982 33.0746C17.1611 33.0746 16.4559 34.4878 17.1996 35.4763L17.8526 36.3444C18.136 36.7211 18.5799 36.9427 19.0513 36.9427H30.9502C31.4216 36.9427 31.8655 36.7211 32.1489 36.3444L32.802 35.4763C33.5457 34.4878 32.8404 33.0746 31.6033 33.0746H18.3982Z" fill="#E48992"/>
<path d="M32.7359 35.5637H17.2649L14.9404 32.4739H35.0604L32.7359 35.5637Z" fill="#E48992"/>
</svg>
