<svg width="50" height="51" viewBox="0 0 50 51" fill="none" xmlns="http://www.w3.org/2000/svg">
<path d="M13.9372 12.614C13.9914 12.1129 14.0185 11.8624 14.1344 11.6718C14.2362 11.5046 14.3866 11.3696 14.5637 11.2864C14.7657 11.1917 15.0182 11.1917 15.5233 11.1917H33.5037C34.0001 11.1917 34.2483 11.1917 34.4483 11.2844C34.6235 11.3656 34.7738 11.4983 34.8761 11.6621C34.9928 11.8492 35.0234 12.0942 35.0844 12.5842C36.2613 22.0267 36.1246 27.9806 35.0626 37.7678C35.0081 38.2701 34.9809 38.5212 34.8649 38.7117C34.7631 38.879 34.6129 39.0137 34.4356 39.0969C34.2337 39.1917 33.981 39.1917 33.4754 39.1917H15.5205C15.0163 39.1917 14.7642 39.1917 14.5625 39.097C14.3855 39.0141 14.235 38.8791 14.1333 38.7123C14.0173 38.522 13.9899 38.2721 13.9351 37.7722C12.8741 28.0837 12.9082 22.1275 13.9372 12.614Z" fill="#8397B5"/>
<path d="M34.4035 25.5236C34.4227 25.084 34.4323 24.8642 34.3595 24.6719C34.2973 24.5077 34.1814 24.3496 34.0436 24.2409C33.8822 24.1135 33.6808 24.0595 33.2782 23.9514C30.1571 23.1137 27.9714 23.2186 24.6182 24.2972C21.7024 25.635 19.7574 25.7762 17.2106 25.0746C16.3731 24.8439 15.9544 24.7286 15.6766 24.8135C15.4208 24.8917 15.2342 25.0406 15.1012 25.2727C14.9568 25.5248 14.975 25.9272 15.0113 26.7322L15.4387 36.1898C15.4629 36.7269 15.475 36.9954 15.5873 37.1995C15.6861 37.3792 15.8377 37.5241 16.0216 37.6147C16.2306 37.7176 16.4994 37.7176 17.037 37.7176H32.3398C32.8781 37.7176 33.1473 37.7176 33.3564 37.6145C33.5405 37.5237 33.6922 37.3785 33.7909 37.1986C33.903 36.9942 33.9148 36.7252 33.9382 36.1874L34.4035 25.5236Z" fill="#B36840" fill-opacity="0.6"/>
<path d="M14.4796 25.416C14.49 25.022 14.4953 24.8249 14.5731 24.6464C14.6384 24.4966 14.7566 24.3466 14.8871 24.2481C15.0425 24.1308 15.2261 24.0815 15.5934 23.9829C18.8415 23.1112 21.373 23.2053 24.7676 24.2972C27.7549 25.6678 29.7401 25.3104 32.3873 24.3614C33.1147 24.1006 33.4784 23.9702 33.7653 24.037C34.0168 24.0955 34.2348 24.2481 34.376 24.4643C34.537 24.7109 34.5391 25.084 34.5432 25.8302C34.5636 29.505 34.4004 32.2616 33.977 36.2928C33.9244 36.7939 33.8981 37.0444 33.7823 37.2356C33.6807 37.4033 33.5301 37.539 33.3527 37.6225C33.1504 37.7176 32.8972 37.7176 32.3907 37.7176H16.9074C16.4134 37.7176 16.1663 37.7176 15.968 37.6268C15.7932 37.5468 15.6454 37.4183 15.5418 37.2562C15.4244 37.0725 15.39 36.8275 15.3213 36.3374C14.7468 32.24 14.3712 29.4939 14.4796 25.416Z" fill="#B36840"/>
</svg>
