<svg width="50" height="50" viewBox="0 0 50 50" fill="none" xmlns="http://www.w3.org/2000/svg">
<path d="M13.9372 12.4224C13.9914 11.9213 14.0185 11.6707 14.1344 11.4802C14.2362 11.313 14.3866 11.1779 14.5637 11.0948C14.7657 11 15.0182 11 15.5233 11H33.5037C34.0001 11 34.2483 11 34.4483 11.0927C34.6235 11.1739 34.7738 11.3067 34.8761 11.4705C34.9928 11.6575 35.0234 11.9025 35.0844 12.3926C36.2613 21.835 36.1246 27.789 35.0626 37.5761C35.0081 38.0784 34.9809 38.3296 34.8649 38.52C34.7631 38.6873 34.6129 38.8221 34.4356 38.9053C34.2337 39 33.981 39 33.4754 39H15.5205C15.0163 39 14.7642 39 14.5625 38.9054C14.3855 38.8224 14.235 38.6875 14.1333 38.5206C14.0173 38.3304 13.9899 38.0804 13.9351 37.5805C12.8741 27.892 12.9082 21.9359 13.9372 12.4224Z" fill="#CDD9EB"/>
<path d="M34.4035 25.332C34.4227 24.8923 34.4323 24.6725 34.3595 24.4802C34.2973 24.3161 34.1814 24.158 34.0436 24.0493C33.8822 23.9219 33.6808 23.8679 33.2782 23.7598C30.1571 22.922 27.9714 23.027 24.6182 24.1055C21.7024 25.4434 19.7574 25.5846 17.2106 24.883C16.3731 24.6523 15.9544 24.5369 15.6766 24.6218C15.4208 24.7 15.2342 24.849 15.1012 25.081C14.9568 25.3331 14.975 25.7356 15.0113 26.5405L15.4387 35.9982C15.4629 36.5353 15.475 36.8038 15.5873 37.0079C15.6861 37.1875 15.8377 37.3324 16.0216 37.423C16.2306 37.526 16.4994 37.526 17.037 37.526H32.3398C32.8781 37.526 33.1473 37.526 33.3564 37.4228C33.5405 37.3321 33.6922 37.1869 33.7909 37.0069C33.903 36.8025 33.9148 36.5336 33.9382 35.9957L34.4035 25.332Z" fill="#A7613B" fill-opacity="0.6"/>
<path d="M14.4796 25.2243C14.49 24.8303 14.4953 24.6333 14.5731 24.4548C14.6384 24.305 14.7566 24.155 14.8871 24.0565C15.0425 23.9391 15.2261 23.8898 15.5934 23.7913C18.8415 22.9196 21.373 23.0137 24.7676 24.1056C27.7549 25.4762 29.7401 25.1187 32.3873 24.1697C33.1147 23.909 33.4784 23.7786 33.7653 23.8453C34.0168 23.9039 34.2348 24.0564 34.376 24.2726C34.537 24.5193 34.5391 24.8924 34.5432 25.6386C34.5636 29.3134 34.4004 32.0699 33.977 36.1012C33.9244 36.6022 33.8981 36.8528 33.7823 37.044C33.6807 37.2117 33.5301 37.3473 33.3527 37.4308C33.1504 37.526 32.8972 37.526 32.3907 37.526H16.9074C16.4134 37.526 16.1663 37.526 15.968 37.4352C15.7932 37.3551 15.6454 37.2266 15.5418 37.0646C15.4244 36.8808 15.39 36.6358 15.3213 36.1458C14.7468 32.0483 14.3712 29.3023 14.4796 25.2243Z" fill="#A7613B"/>
</svg>
