<svg width="50" height="50" viewBox="0 0 50 50" fill="none" xmlns="http://www.w3.org/2000/svg">
<path d="M9.91156 35.7709L11.3462 38.3091C11.7943 39.1019 12.7198 39.4817 13.6113 39.2959C17.8215 38.4184 20.4437 39.0835 23.9701 41.588C24.7174 42.1187 25.7208 42.1152 26.47 41.5871C29.4061 39.5176 31.8764 38.7735 36.5738 39.4265C37.4274 39.5452 38.2795 39.1442 38.691 38.387L40.1519 35.699C40.5211 35.0198 40.461 34.1905 40.0224 33.5539C36.5361 28.4936 35.9214 25.0013 39.5281 18.7459C39.9261 18.0555 39.9124 17.1932 39.4594 16.5376L36.7338 12.5925C36.2965 11.9596 35.5352 11.6453 34.7696 11.7206C31.6184 12.0308 30.0698 11.265 28.7517 8.69774C28.3819 7.9775 27.6667 7.47998 26.8571 7.47998H23.3296C22.4814 7.47998 21.7441 8.02559 21.3827 8.79293C20.139 11.4333 18.4763 12.1078 15.2396 11.7378C14.4686 11.6496 13.6986 11.9648 13.2575 12.6032L10.5958 16.4557C10.1146 17.1521 10.1304 18.0738 10.5999 18.7781C14.3959 24.4713 14.218 28.0369 10.0822 33.5138C9.58752 34.1689 9.50761 35.0562 9.91156 35.7709Z" fill="#B6632F"/>
<path d="M13.8747 34.7208L14.0717 35.1016C14.7303 36.3746 16.1917 36.947 17.6134 36.7644C19.7338 36.492 21.3521 36.9164 23.197 38.1322C24.4265 38.9425 26.015 38.9267 27.2637 38.1462C28.8384 37.1619 30.4032 36.7589 32.7311 36.9597C34.0768 37.0757 35.4113 36.4542 36.0129 35.2448L36.3249 34.6175C36.804 33.6543 36.7169 32.5148 36.166 31.5909C33.9395 27.8569 33.5688 25.06 35.8294 20.4818C36.3204 19.4874 36.3082 18.3052 35.7154 17.3678L34.5503 15.5254C33.9016 14.4995 32.6985 14.0414 31.485 14.0205C30.0554 13.9959 29.1409 13.4897 28.387 12.2972C27.7204 11.2427 26.6743 10.4263 25.4267 10.4263H24.884C23.5821 10.4263 22.5177 11.3201 21.8297 12.4254C21.0873 13.6179 20.1255 14.0768 18.6491 14.0592C17.4244 14.0447 16.2078 14.5088 15.5532 15.544L14.4728 17.2525C13.8422 18.2498 13.8728 19.5162 14.4554 20.5422C16.8106 24.6905 16.6844 27.5211 14.0858 31.5257C13.4629 32.4857 13.3489 33.7043 13.8747 34.7208Z" stroke="#97451B" stroke-linecap="round" stroke-dasharray="2 2"/>
</svg>
