<svg width="50" height="50" viewBox="0 0 50 50" fill="none" xmlns="http://www.w3.org/2000/svg">
<path d="M26.673 24.4063C27.422 31.3121 28.0346 35.1261 29.1232 42.3092" stroke="#377D59" stroke-width="2.5" stroke-linecap="round" stroke-linejoin="round"/>
<path d="M23.1714 14.0777C20.3029 10.8655 16.1736 8.81866 13.8117 10.9279C11.4497 13.0371 12.6829 17.7289 15.5514 20.941C18.4198 24.1532 22.993 23.6372 24.1992 22.5601C25.4053 21.4831 26.0398 17.2898 23.1714 14.0777Z" fill="#9686F4"/>
<path d="M25.8374 14.0777C28.7059 10.8655 32.8352 8.81866 35.1971 10.9279C37.5591 13.0371 36.3258 17.7289 33.4574 20.941C30.589 24.1532 26.0158 23.6372 24.8096 22.5601C23.6035 21.4831 22.969 17.2898 25.8374 14.0777Z" fill="#8475DD"/>
<path d="M22.1339 31.6388C18.8402 34.4133 14.463 35.8559 12.423 33.434C10.3829 31.0121 12.2669 26.5417 15.5606 23.7673C18.8543 20.9928 23.3087 22.1501 24.3504 23.3868C25.3922 24.6236 25.4276 28.8644 22.1339 31.6388Z" fill="#A295F0"/>
<path d="M27.9416 31.837C31.3167 34.5119 35.7349 35.8232 37.7018 33.3415C39.6687 30.8598 37.6521 26.4476 34.2771 23.7727C30.902 21.0978 26.4842 22.3875 25.4798 23.6548C24.4754 24.9221 24.5666 29.1621 27.9416 31.837Z" fill="#8D7EE8"/>
<path d="M20.6934 30.5341C20.6934 34.2037 21.1879 38.7385 24.6681 38.7385C28.1482 38.7385 28.8164 34.2037 28.8164 30.5341C28.8164 26.8645 26.9594 25.4497 24.6681 25.4497C22.3767 25.4497 20.6934 26.8645 20.6934 30.5341Z" fill="#7261C1"/>
<circle cx="24.7553" cy="24.4218" r="2.69961" fill="#E1E8D3"/>
</svg>
