<svg width="50" height="51" viewBox="0 0 50 51" fill="none" xmlns="http://www.w3.org/2000/svg">
<path d="M25.6309 31.1602C25.9327 36.4285 26.6069 38.76 28.3747 42.1469" stroke="#C6DF82" stroke-width="2.5" stroke-linecap="round"/>
<path d="M10.6218 31.9436C13.5754 33.1711 18.5485 35.0172 22.5337 35.3912C25.834 35.7009 27.7929 35.4921 31.0034 34.6669C34.2003 33.8453 37.9959 31.9574 40.1663 30.793C40.876 30.4123 40.7876 29.3972 40.0312 29.1207C39.4961 28.9252 39.2505 28.3074 39.5053 27.7979L40.4591 25.8902C40.8302 25.1481 40.1881 24.3029 39.3736 24.4614L37.3209 24.861C36.7035 24.9812 36.1298 24.5084 36.1298 23.8794V23.3798C36.1298 22.6296 35.3343 22.1465 34.6686 22.4925L31.3277 24.2291C30.6183 24.5979 29.7844 24.0262 29.8726 23.2316L30.7742 15.1059C30.8666 14.273 29.9549 13.7026 29.2463 14.1501L27.8136 15.055C27.2756 15.3948 26.5612 15.1523 26.3413 14.5552L25.4665 12.1809C25.1342 11.2788 23.8446 11.3196 23.5699 12.2408L22.8454 14.6698C22.6778 15.2318 22.0648 15.5296 21.5195 15.314L19.7406 14.6107C18.9499 14.2981 18.1546 15.0523 18.4248 15.8585L20.8581 23.1184C21.1603 24.0201 20.1521 24.7948 19.3587 24.2705L16.0316 22.0722C15.3668 21.6329 14.4804 22.1096 14.4804 22.9065V24.0929C14.4804 24.6452 14.0326 25.0929 13.4804 25.0929H11.0318C10.2522 25.0929 9.77239 25.9454 10.177 26.6119L11.4161 28.6528C11.7658 29.2286 11.4479 29.9809 10.7943 30.1443C9.88464 30.3717 9.75602 31.5837 10.6218 31.9436Z" fill="#A7CA50"/>
<path d="M25 19.6702C25.106 27.3255 25.3428 30.7133 25.9639 35.6348" stroke="#C6DF82" stroke-linecap="round"/>
<path d="M15.2246 28.176C18.4504 31.8368 20.2151 32.6503 25.6309 35.3621" stroke="#C6DF82" stroke-linecap="round"/>
<path d="M35.8223 27.9875C33.3681 29.8819 30.694 31.0357 26.6465 35.3621" stroke="#C6DF82" stroke-linecap="round"/>
</svg>
