<svg width="51" height="51" viewBox="0 0 51 51" fill="none" xmlns="http://www.w3.org/2000/svg">
<path d="M15.1254 2.43121C11.4671 7.48135 10.2873 10.8977 9.88418 17.7516C9.48101 24.6055 13.2878 31.1975 23.5919 35.491V43.5544C20.2089 44.4034 18.6609 44.9973 16.738 46.3766C14.8152 47.7558 16.738 47.5861 16.738 47.5861H33.6428C33.6428 47.5861 35.5656 47.7558 33.6428 46.3766C31.7199 44.9973 30.1719 44.4034 26.7889 43.5544V35.491C37.093 31.1975 40.8998 24.6055 40.4966 17.7516C40.0935 10.8977 38.9137 7.48135 35.2554 2.43121H15.1254Z" fill="#CDD9EB"/>
<path d="M24.3658 18.1921C28.0946 14.4159 34.1846 12.5008 36.864 14.5638C42.516 18.9156 34.7312 31.4969 24.3658 31.4969C14.0004 31.4969 11.5646 21.0501 11.8677 18.9984C12.1707 16.9468 19.1838 20.6059 24.3658 18.1921Z" fill="#D7AEA3"/>
<path d="M25.9482 18.1918C21.1393 14.8478 15.1815 12.6497 13.45 14.5635C7.99652 20.5914 15.4658 32.3029 25.861 32.0644C36.2561 31.8259 39.254 21.4171 38.4464 18.9981C37.6387 16.5791 31.1302 20.6056 25.9482 18.1918Z" fill="#EDA28D"/>
</svg>
