<svg width="51" height="51" viewBox="0 0 51 51" fill="none" xmlns="http://www.w3.org/2000/svg">
<path d="M15.7865 2.85052C12.1282 7.90066 10.9485 11.3171 10.5453 18.1709C10.1421 25.0248 13.9489 31.6168 24.253 35.9103V43.9737C20.8701 44.8227 19.322 45.4166 17.3992 46.7959C15.4763 48.1751 17.3992 48.0054 17.3992 48.0054H34.3039C34.3039 48.0054 36.2268 48.1751 34.3039 46.7959C32.381 45.4166 30.833 44.8227 27.45 43.9737V35.9103C37.7542 31.6168 41.5609 25.0248 41.1578 18.1709C40.7546 11.3171 39.5749 7.90066 35.9166 2.85052H15.7865Z" fill="#CDD9EB"/>
<path d="M25.027 18.6114C28.7558 14.8352 34.8457 12.9201 37.5251 14.9831C43.1771 19.3349 35.3923 31.9162 25.0269 31.9162C14.6615 31.9162 12.2257 21.4694 12.5288 19.4177C12.8318 17.3661 19.8449 21.0252 25.027 18.6114Z" fill="#BFA369"/>
<path d="M26.6093 18.6111C21.8004 15.2671 15.8426 13.069 14.1111 14.9828C8.65766 21.0107 16.127 32.7222 26.5221 32.4837C36.9172 32.2453 39.9152 21.8365 39.1075 19.4174C38.2998 16.9984 31.7913 21.025 26.6093 18.6111Z" fill="#D9AD4E"/>
</svg>
