<svg width="50" height="50" viewBox="0 0 50 50" fill="none" xmlns="http://www.w3.org/2000/svg">
<path d="M10.3545 21.0359H39.9166V36.2C39.9166 37.8801 39.9166 38.7202 39.5897 39.3619C39.302 39.9264 38.8431 40.3854 38.2786 40.673C37.6369 41 36.7968 41 35.1166 41H15.1545C13.4743 41 12.6343 41 11.9925 40.673C11.428 40.3854 10.9691 39.9264 10.6815 39.3619C10.3545 38.7202 10.3545 37.8801 10.3545 36.2V21.0359Z" fill="#EEB65D"/>
<path d="M24.9694 8.7478L39.7503 21.0359H10.1885L24.9694 8.7478Z" fill="#EEB65D"/>
<path d="M6.63184 22.7838L25.1836 7L43.3663 22.7838" stroke="#EA943B" stroke-width="5" stroke-linecap="round" stroke-linejoin="round"/>
<path d="M34.5771 10.3478C34.5771 9.78775 34.5771 9.50772 34.6861 9.29381C34.782 9.10565 34.935 8.95267 35.1232 8.8568C35.3371 8.7478 35.6171 8.7478 36.1771 8.7478H38.3185C38.8785 8.7478 39.1586 8.7478 39.3725 8.8568C39.5606 8.95267 39.7136 9.10565 39.8095 9.29381C39.9185 9.50772 39.9185 9.78775 39.9185 10.3478V17.7915H34.5771V10.3478Z" fill="#EA943B"/>
<path d="M21 32C21 30.8954 21.8954 30 23 30H28C29.1046 30 30 30.8954 30 32V41H21V32Z" fill="#EA943B"/>
</svg>
