<svg width="50" height="50" viewBox="0 0 50 50" fill="none" xmlns="http://www.w3.org/2000/svg">
<path d="M15.0423 24.2948C15.6783 23.5317 16.8503 23.5317 17.4863 24.2948V24.2948C17.8068 24.6793 18.2935 24.8904 18.7935 24.8648V24.8648C19.651 24.8209 20.4003 25.4559 20.4886 26.31L20.576 27.1562C20.6224 27.6047 20.8189 28.0243 21.1338 28.3471L21.5213 28.7444C22.1064 29.3442 22.2556 30.245 21.8952 31.0013L21.5182 31.7923C21.3428 32.1605 21.2841 32.5734 21.35 32.9758L21.4896 33.8281C21.6386 34.7383 21.1459 35.6323 20.2968 35.9925L20.2516 36.0116C19.782 36.2108 19.4115 36.5896 19.2227 37.0635L19.0429 37.5148C18.7156 38.3363 17.745 38.6887 16.9669 38.2684V38.2684C16.5284 38.0316 16.0002 38.0316 15.5617 38.2684V38.2684C14.7836 38.6887 13.813 38.3363 13.4857 37.5148L13.3059 37.0635C13.1171 36.5896 12.7466 36.2108 12.277 36.0116L12.2318 35.9925C11.3827 35.6323 10.89 34.7383 11.039 33.8281L11.1786 32.9758C11.2444 32.5734 11.1857 32.1605 11.0103 31.7923L10.6334 31.0013C10.273 30.245 10.4222 29.3442 11.0072 28.7444L11.3948 28.3471C11.7096 28.0243 11.9062 27.6047 11.9525 27.1562L12.04 26.31C12.1283 25.4559 12.8775 24.8209 13.7351 24.8648V24.8648C14.2351 24.8904 14.7218 24.6793 15.0423 24.2948V24.2948Z" fill="#6F4235"/>
<path d="M35.4561 24.507C36.4226 24.2777 37.3606 24.9805 37.412 25.9725V25.9725C37.4379 26.4724 37.7009 26.9332 38.1163 27.2125V27.2125C38.829 27.6916 39.0478 28.649 38.6063 29.3855L38.1689 30.1151C37.9371 30.5018 37.8427 30.9555 37.9012 31.4026L37.9731 31.953C38.0816 32.7837 37.6609 33.5941 36.919 33.9832L36.143 34.3903C35.7819 34.5797 35.4873 34.875 35.2987 35.2365L34.8994 36.0023C34.4729 36.82 33.5425 37.2401 32.647 37.0192L32.5994 37.0074C32.1041 36.8852 31.5805 36.9662 31.1452 37.2322L30.7307 37.4856C29.9761 37.9468 28.9881 37.6468 28.6174 36.8439V36.8439C28.4086 36.3914 27.9858 36.0747 27.4929 36.0013V36.0013C26.6182 35.8711 26.0527 35.0071 26.2834 34.1534L26.4101 33.6844C26.5432 33.1919 26.4738 32.6667 26.2174 32.2256L26.1927 32.1832C25.7292 31.3859 25.871 30.3749 26.536 29.7359L27.1587 29.1375C27.4527 28.855 27.6534 28.4893 27.7337 28.0895L27.9064 27.2304C28.0715 26.4091 28.731 25.7776 29.5588 25.6485L30.1073 25.5629C30.5527 25.4934 30.9617 25.2754 31.2677 24.9442L31.845 24.3195C32.4279 23.6889 33.4082 23.63 34.0682 24.1793V24.1793C34.453 24.4996 34.9691 24.6226 35.4561 24.507V24.507Z" fill="#6F4235"/>
<path d="M21.5704 8.69405C22.0158 7.94101 23.0639 7.80478 23.6871 8.41891V8.41891C24.0378 8.76454 24.5556 8.88965 25.0239 8.73747V8.73747C25.7427 8.5039 26.5104 8.92101 26.7055 9.65117L26.8678 10.2584C27.006 10.7758 27.3584 11.2136 27.8328 11.4621V11.4621C28.6139 11.8713 29.0279 12.7589 28.8314 13.6185L28.7152 14.1264C28.6089 14.5915 28.6723 15.0792 28.894 15.5017L29.1361 15.963C29.5459 16.7437 29.3726 17.7077 28.7221 18.303V18.303C28.327 18.6646 28.0982 19.1779 28.0968 19.7135L28.0952 20.342C28.0932 21.0978 27.4577 21.6973 26.7031 21.6552V21.6552C26.2115 21.6278 25.7428 21.8812 25.4921 22.305V22.305C25.0466 23.058 23.9986 23.1943 23.3754 22.5801V22.5801C23.0247 22.2345 22.5069 22.1094 22.0385 22.2616V22.2616C21.3198 22.4951 20.5521 22.078 20.357 21.3479L20.1947 20.7407C20.0565 20.2233 19.7041 19.7855 19.2297 19.5369V19.5369C18.4486 19.1277 18.0346 18.2401 18.2311 17.3805L18.3472 16.8727C18.4536 16.4076 18.3902 15.9198 18.1685 15.4974L17.9264 15.0361C17.5166 14.2553 17.6899 13.2913 18.3404 12.696V12.696C18.7355 12.3345 18.9643 11.8211 18.9657 11.2856L18.9673 10.6571C18.9693 9.90128 19.6048 9.30178 20.3594 9.34382V9.34382C20.851 9.3712 21.3197 9.11788 21.5704 8.69405V8.69405Z" fill="#6F4235"/>
<path d="M21.8872 12.8977C21.6418 13.614 21.5874 13.9969 21.8872 14.5911M22.2978 17.9044C21.8315 18.7823 22.2479 19.268 22.7786 19.9058M24.5612 11.2043C25.1792 11.8603 25.3731 12.2269 25.096 12.8977M25.096 15.4825C25.8294 16.0461 25.9005 16.4484 25.6308 17.2651M15.1132 28.9414C14.696 29.6376 14.5809 30.0279 15.1132 30.724M17.7876 26.9805C18.155 27.6905 18.2333 27.8718 17.7876 28.9414M17.7876 32.061C18.9221 32.9355 18.388 33.5576 18.3224 34.111M15.3843 34.111C14.6432 34.6323 14.5895 34.9569 15.1131 35.8937M32.7981 26.9831C31.6298 27.1666 31.4123 27.4862 31.4611 28.4983M35.5053 27.7492C36.0966 28.4798 36.1113 29.504 35.024 29.9508M29.0098 32.5343C28.8029 31.6057 28.9296 30.819 30.1513 30.9008M32.1184 34.6501C32.9511 34.8166 33.57 34.2816 33.3555 33.2703" stroke="#470805" stroke-linecap="round" stroke-linejoin="round"/>
</svg>
