<svg width="51" height="51" viewBox="0 0 51 51" fill="none" xmlns="http://www.w3.org/2000/svg">
<path d="M15.7719 3.26984C12.1135 8.31997 10.9338 11.7364 10.5307 18.5902C10.1275 25.4441 13.9342 32.0361 24.2384 36.3296V44.393C20.8554 45.242 19.3074 45.836 17.3845 47.2152C15.4617 48.5944 17.3845 48.4247 17.3845 48.4247H34.2892C34.2892 48.4247 36.2121 48.5944 34.2892 47.2152C32.3664 45.836 30.8183 45.242 27.4354 44.393V36.3296C37.7395 32.0361 41.5463 25.4441 41.1431 18.5902C40.7399 11.7364 39.5602 8.31997 35.9019 3.26984H15.7719Z" fill="#CDD9EB"/>
<path d="M25.0123 19.0307C28.7411 15.2545 34.8311 13.3394 37.5105 15.4024C43.1625 19.7542 35.3777 32.3355 25.0123 32.3355C14.6468 32.3355 12.2111 21.8887 12.5141 19.837C12.8172 17.7854 19.8303 21.4446 25.0123 19.0307Z" fill="#E3C88E"/>
<path d="M26.5947 19.0304C21.7858 15.6865 15.8279 13.4883 14.0965 15.4021C8.64301 21.43 16.1123 33.1415 26.5074 32.903C36.9026 32.6646 39.9005 22.2558 39.0928 19.8368C38.2852 17.4177 31.7767 21.4443 26.5947 19.0304Z" fill="#F7D07A"/>
</svg>
