<svg width="51" height="51" viewBox="0 0 51 51" fill="none" xmlns="http://www.w3.org/2000/svg">
<path d="M15.1166 3.26984C11.4583 8.31997 10.2786 11.7364 9.87539 18.5902C9.47222 25.4441 13.279 32.0361 23.5831 36.3296V44.393C20.2002 45.242 18.6521 45.836 16.7293 47.2152C14.8064 48.5944 16.7293 48.4247 16.7293 48.4247H33.634C33.634 48.4247 35.5568 48.5944 33.634 47.2152C31.7111 45.836 30.1631 45.242 26.7801 44.393V36.3296C37.0842 32.0361 40.891 25.4441 40.4878 18.5902C40.0847 11.7364 38.905 8.31997 35.2466 3.26984H15.1166Z" fill="#CDD9EB"/>
<path d="M24.357 19.0307C28.0859 15.2545 34.1758 13.3394 36.8552 15.4024C42.5072 19.7542 34.7224 32.3355 24.357 32.3355C13.9916 32.3355 11.5558 21.8887 11.8589 19.837C12.1619 17.7854 19.175 21.4446 24.357 19.0307Z" fill="#E7DDA0"/>
<path d="M25.9394 19.0304C21.1305 15.6865 15.1727 13.4883 13.4412 15.4021C7.98773 21.43 15.457 33.1415 25.8522 32.903C36.2473 32.6646 39.2452 22.2558 38.4376 19.8368C37.6299 17.4177 31.1214 21.4443 25.9394 19.0304Z" fill="#FAEB8D"/>
</svg>
