<svg width="50" height="50" viewBox="0 0 50 50" fill="none" xmlns="http://www.w3.org/2000/svg">
<path d="M26.6982 12.7861H31.6453M36.0202 12.7861H31.6453M31.6453 12.7861V17.2295" stroke="#F2CF41" stroke-width="2.5" stroke-linecap="round" stroke-linejoin="round"/>
<path d="M29.6666 16.9441C24.8577 24.152 17.7326 27.702 9.28075 28.9463C7.95414 29.1416 7.61194 30.9841 8.86119 31.4714C14.7012 33.7492 20.8573 34.5405 26.6781 30.0544C30.8994 26.8009 32.4216 22.943 32.138 17.4511C32.0728 16.1898 30.3675 15.8934 29.6666 16.9441Z" fill="#F3C302"/>
<path d="M30.4165 16.6002C27.3755 25.9621 20.886 31.9937 12.3987 35.9124C11.1971 36.4672 11.3763 38.2921 12.6924 38.4318C19.2831 39.1309 25.8479 38.1797 30.6658 31.5358C34.1088 26.7879 34.6471 22.2301 32.9304 16.4789C32.564 15.2515 30.8122 15.382 30.4165 16.6002Z" fill="#F2CF41"/>
<path d="M31.6434 17.4687C31.3637 27.4918 26.4385 35.2156 18.7743 41.4302C17.7328 42.2748 18.3926 44.0258 19.7159 43.8093C26.785 42.6531 33.3445 39.9077 36.3584 32.087C38.539 26.4284 37.6659 21.8022 34.0119 16.6047C33.2855 15.5715 31.6786 16.2062 31.6434 17.4687Z" fill="#F7DC74"/>
</svg>
