<svg width="51" height="50" viewBox="0 0 51 50" fill="none" xmlns="http://www.w3.org/2000/svg">
<path d="M8.39174 27.1077L8.39172 21.4217C8.38852 21.2735 8.3923 21.1224 8.40334 20.9682C8.64789 17.5547 10.1898 16.1143 14.1633 14.4816C18.1321 12.851 26.2731 10.4265 34.4739 13.5316C39.0226 15.2539 41.8038 18.1989 41.9987 22.7698C42.0032 22.8771 42.0068 22.9835 42.0094 23.0891L42.0144 23.0894V29.231C42.052 33.1854 40.6219 35.9313 36.4624 38.1472C30.9313 40.0861 28.2047 37.4147 25.9235 35.1797C24.3781 33.6656 23.0371 32.3518 21.1672 32.8074C16.5956 33.9212 8.2798 32.303 8.39174 27.1077Z" fill="#DB5A65"/>
<path d="M21.1681 26.0674C16.5246 27.1987 8.01805 25.5114 8.40432 20.1197C8.64887 16.7061 10.1908 15.2657 14.1643 13.633C18.1331 12.0023 26.2741 9.57784 34.4749 12.683C39.0236 14.4053 41.8047 17.3503 41.9996 21.9212C42.1814 26.1842 40.8197 29.0865 36.4633 31.4073C27.1852 34.6597 25.7984 24.9393 21.1681 26.0674Z" fill="#EF8995"/>
<path d="M22.5198 23.7528C18.8601 24.6444 10.5886 23.7695 10.893 19.5202C11.0858 16.8299 13.8089 15.7279 16.9405 14.4412C20.0684 13.156 26.4845 11.2452 32.9477 13.6925C36.5326 15.0499 39.8812 17.3644 40.0348 20.9668C40.1781 24.3265 39.0212 27.1207 35.5879 28.9498C28.2756 31.5131 26.169 22.8637 22.5198 23.7528Z" fill="#CA4549"/>
<path d="M36.1619 24.9179C36.6728 23.3644 36.7285 21.4196 35.1271 21.0879C33.3495 20.7197 30.5831 22.816 30.9442 24.5951C31.234 26.0227 32.0727 26.8333 33.5186 26.656C34.6689 26.5149 35.7998 26.0188 36.1619 24.9179Z" fill="#EF8995"/>
</svg>
