<svg width="50" height="50" viewBox="0 0 50 50" fill="none" xmlns="http://www.w3.org/2000/svg">
<path d="M32.3469 19.4082C35.513 16.7928 36.7194 16.0464 35.5128 11.562" stroke="#AB6548" stroke-width="2.5" stroke-linecap="round"/>
<path d="M33.2255 36.744C28.6906 41.4729 19.2557 43.2751 11.4246 40.0747C8.17681 38.2154 6.89705 36.9715 6.88293 33.9836C6.88273 33.9406 6.88864 33.8956 6.90005 33.8542C7.88592 30.2707 10.9528 30.1896 12.5349 27.1557C16.1707 20.1833 16.0153 16.2215 24.4445 13.7321C29.1307 12.3481 32.9575 13.4815 36.3542 17.5674C40.9665 25.0122 39.727 29.2142 33.2255 36.744Z" fill="#F0CD46"/>
<path d="M29.102 16.1194C26.3311 15.2387 23.7634 12.4162 23.8782 11.817C23.9929 11.2178 28.085 10.4589 30.4507 11.4601C32.5678 12.356 35.0128 15.0764 34.6555 15.7942C34.2982 16.512 31.8728 17.0001 29.102 16.1194Z" fill="#377D59"/>
</svg>
