<svg width="50" height="51" viewBox="0 0 50 51" fill="none" xmlns="http://www.w3.org/2000/svg">
<path d="M19.9045 1.94177C19.3556 11.5043 20.0073 14.2139 20.8412 17.6808C21.0421 18.5161 21.2536 19.3953 21.4614 20.4249C21.7336 21.7736 22.0156 22.6566 22.2971 23.5377C22.7825 25.0574 23.2662 26.5715 23.6945 30.4601C23.6945 30.4616 23.6945 30.4631 23.6945 30.4645V45.3716C18.7531 46.635 17.7078 47.2887 17.3223 48.4077H32.678C32.2925 47.2887 31.2474 46.635 26.306 45.3716V30.4645C26.306 30.4631 26.306 30.4616 26.306 30.4601C26.7344 26.5715 27.218 25.0574 27.7035 23.5377C27.9849 22.6566 28.267 21.7736 28.5392 20.4249C28.747 19.3953 28.9585 18.5161 29.1594 17.6808C29.9933 14.2139 30.645 11.5043 30.0961 1.94177H19.9045Z" fill="#C6D3EC"/>
<path d="M21.3262 11.1168C22.1585 16.7736 23.962 25.6544 25.002 25.6544C26.0419 25.6544 27.9281 16.0514 28.4576 11.1168H21.3262Z" fill="#FCFBE2"/>
<circle cx="26.4047" cy="9.9468" r="0.6" fill="white"/>
<circle cx="27.8578" cy="6.94607" r="0.6" fill="white"/>
<circle cx="25.0004" cy="3.87039" r="0.6" fill="white"/>
</svg>
