<svg width="50" height="50" viewBox="0 0 50 50" fill="none" xmlns="http://www.w3.org/2000/svg">
<path d="M39.6144 10.8955C42.5162 9.19721 45.2676 12.5291 42.0102 15.2595L40.0819 16.6992L35.674 19.991L26.8582 26.5746L9.22656 39.7418" stroke="#9B7266" stroke-width="2.5" stroke-linecap="round"/>
<path d="M32.7394 11.4485C35.5791 9.86813 37.8079 12.4621 34.6125 14.9116L32.7394 16.3068L28.9931 19.0971L21.5006 24.6778L6.51562 35.8392" stroke="#9B7266" stroke-width="2.5" stroke-linecap="round"/>
<path d="M22.3315 18.1114C21.848 14.7542 24.9873 10.2659 26.0414 10.2583C27.0956 10.2507 30.2978 14.7451 29.8092 18.1114C29.4301 20.7228 28.4851 23.7204 26.0414 23.7204C23.5978 23.7204 22.7058 20.7108 22.3315 18.1114Z" fill="#FBEAB3"/>
<path d="M31.1912 18.6604C34.0413 16.8215 39.4296 17.8042 39.8759 18.7593C40.3223 19.7143 37.5717 24.4985 34.3081 25.4575C31.7764 26.2014 28.6576 26.5919 27.6391 24.3707C26.6205 22.1495 28.9844 20.0842 31.1912 18.6604Z" fill="#FBEAB3"/>
<path d="M18.2188 25.9325C14.8543 25.5032 11.3657 21.2807 11.6395 20.2627C11.9133 19.2447 17.0989 17.357 20.2129 18.7256C22.6287 19.7874 25.2658 21.4975 24.6141 23.8527C23.9625 26.2078 20.824 26.2649 18.2188 25.9325Z" fill="#FBEAB3"/>
<path d="M25.3267 32.0776C23.8299 35.1213 18.7046 37.0528 17.8303 36.4638C16.956 35.8748 16.8512 30.3573 19.1554 27.855C20.9429 25.9139 23.4155 23.9736 25.4323 25.3535C27.449 26.7334 26.4857 29.7209 25.3267 32.0776Z" fill="#FBEAB3"/>
<path d="M33.2545 28.1876C35.3656 30.8423 34.9195 36.3013 34.0132 36.8397C33.1068 37.3781 28.0746 35.1131 26.7982 31.9601C25.808 29.5142 25.1116 26.4492 27.2214 25.2164C29.3313 23.9835 31.6198 26.132 33.2545 28.1876Z" fill="#FBEAB3"/>
<circle cx="26.2295" cy="24.3354" r="2.30566" fill="#F7CF9C"/>
</svg>
