<svg width="50" height="50" viewBox="0 0 50 50" fill="none" xmlns="http://www.w3.org/2000/svg">
<path d="M12.4019 35.186C12.402 36.5726 11.6189 37.6111 12.4019 38.7366C13.9918 40.2845 15.0777 38.7353 16.6046 39.3888C21.6095 41.5306 28.7554 40.0287 33.5606 35.186C38.4293 30.2792 40.0149 23.7998 37.5459 17.9402C37.0864 16.8494 38.7965 15.5196 37.0387 14.0273C35.7053 12.3738 34.7362 14.5294 33.1258 14.0273C27.5174 12.2783 22.4231 11.198 16.2753 17.9402C8.18838 27.2483 12.4019 34.1888 12.4019 35.186Z" fill="#9DCD61"/>
<path d="M29.1097 11.1499C31.9058 11.6792 33.8807 13.6498 33.7566 14.3057C33.6324 14.9617 31.0738 16.074 28.2777 15.5446C25.4816 15.0153 23.5476 12.8285 23.6308 12.3888C23.7141 11.9491 26.3135 10.6205 29.1097 11.1499Z" fill="#75BD73"/>
</svg>
