<svg width="50" height="50" viewBox="0 0 50 50" fill="none" xmlns="http://www.w3.org/2000/svg">
<ellipse cx="25" cy="27.5131" rx="10.1084" ry="5.36611" fill="#D2D5DA"/>
<ellipse cx="25.0005" cy="27.1597" rx="4.79541" ry="2.15974" fill="#BCC0C5"/>
<path fill-rule="evenodd" clip-rule="evenodd" d="M30.351 20.7271L30.3538 20.2553C30.3538 20.2465 30.3539 20.2377 30.354 20.229C30.3543 20.2115 30.3545 20.194 30.3538 20.1766C30.2825 18.4817 27.913 17.1206 25.0018 17.1206C22.0907 17.1206 19.7212 18.4817 19.6499 20.1766C19.6492 20.194 19.6494 20.2115 19.6497 20.229C19.6498 20.2377 19.6499 20.2465 19.6499 20.2553L19.6675 23.2739C19.8892 26.1997 22.1926 28.5007 25.0018 28.5007C27.0237 28.5007 28.7836 27.3088 29.6939 25.5498C30.2979 25.4745 30.8636 25.3553 31.3101 25.086C31.5659 24.9319 31.7944 24.7223 31.9695 24.4354C32.1446 24.1488 32.2459 23.8185 32.2893 23.4567C32.3785 22.7137 32.2135 22.0361 31.7415 21.5206C31.3913 21.1381 30.9108 20.8886 30.351 20.7271ZM30.3428 22.1467L30.3362 23.2739C30.3155 23.5479 30.2764 23.8164 30.2205 24.0781C30.4502 24.0227 30.6271 23.9563 30.7624 23.8747C30.8822 23.8025 30.9544 23.7266 31.0023 23.648C31.0505 23.5692 31.0949 23.454 31.1171 23.2691C31.1618 22.8969 31.0828 22.6821 30.9283 22.5134C30.8106 22.3849 30.6237 22.2569 30.3428 22.1467Z" fill="#D7DADE"/>
<ellipse cx="24.9997" cy="20.365" rx="4.91178" ry="2.77199" fill="#BCC0C5"/>
<path d="M20.4629 21.4547C21.1912 20.4384 22.9563 19.7214 25.0182 19.7214C27.0454 19.7214 28.7857 20.4145 29.5358 21.4036C28.8075 22.4199 27.0424 23.1369 24.9805 23.1369C22.9534 23.1369 21.2131 22.4439 20.4629 21.4547Z" fill="#643F28"/>
</svg>
