<svg width="51" height="51" viewBox="0 0 51 51" fill="none" xmlns="http://www.w3.org/2000/svg">
<path d="M14.9935 2.85052C11.3352 7.90066 10.1555 11.3171 9.75234 18.1709C9.34918 25.0248 13.1559 31.6168 23.4601 35.9103V43.9737C20.0771 44.8227 18.5291 45.4166 16.6062 46.7959C14.6833 48.1751 16.6062 48.0054 16.6062 48.0054H33.5109C33.5109 48.0054 35.4338 48.1751 33.5109 46.7959C31.588 45.4166 30.04 44.8227 26.6571 43.9737V35.9103C36.9612 31.6168 40.768 25.0248 40.3648 18.1709C39.9616 11.3171 38.7819 7.90066 35.1236 2.85052H14.9935Z" fill="#CDD9EB"/>
<path d="M24.234 18.6114C27.9628 14.8352 34.0528 12.9201 36.7322 14.9831C42.3842 19.3349 34.5994 31.9162 24.2339 31.9162C13.8685 31.9162 11.4327 21.4694 11.7358 19.4177C12.0389 17.3661 19.0519 21.0252 24.234 18.6114Z" fill="#A25765"/>
<path d="M25.8163 18.6111C21.0075 15.2671 15.0496 13.069 13.3182 14.9828C7.86469 21.0107 15.334 32.7222 25.7291 32.4837C36.1243 32.2453 39.1222 21.8365 38.3145 19.4174C37.5068 16.9984 30.9984 21.025 25.8163 18.6111Z" fill="#BE3B54"/>
</svg>
