<svg width="50" height="51" viewBox="0 0 50 51" fill="none" xmlns="http://www.w3.org/2000/svg">
<path d="M9.04919 27.9445C10.3658 26.3389 11.8379 26.4833 14.1645 26.9091C13.3387 24.0565 12.3482 21.1609 13.3925 18.3424C13.9413 16.8613 14.032 16.7048 15.7542 15.851C17.7646 15.35 18.7689 15.3648 19.97 16.7495C21.0366 17.9323 21.0141 18.8336 20.8685 20.4815C22.3162 21.0495 23.1513 21.0681 24.6006 20.4815L23.9786 16.7495C23.7972 14.8371 23.8321 13.7926 25.4299 12.2571C27.0991 11.5585 28.0352 11.4294 29.7149 12.81C31.2139 15.4442 30.8594 17.9616 29.7149 22.9005L30.9589 22.2785C31.704 17.414 32.1896 14.9841 33.7234 13.7085C36.0506 12.3151 37.3542 12.1523 39.6671 14.3996C41.9751 17.3148 42.3878 20.7643 40.9111 24.421C38.8216 29.5948 34.4237 29.906 27.918 30.3647C28.9977 30.9237 29.3717 31.3903 29.7149 32.438C30.0189 34.6903 29.3131 35.5166 27.2268 36.5848C26.4573 38.2377 25.6208 38.9877 22.8036 39.764C19.7885 39.2939 19.44 38.0445 18.4782 36.5848C17.1652 36.9894 15.9455 37.5134 14.5102 37.1377C12.8888 36.2747 12.211 35.6108 11.6766 33.8894C10.1539 33.5666 9.2836 33.4214 8.49746 31.4705C8.12329 29.9061 7.98579 29.2407 9.04919 27.9445Z" fill="#E5C99E"/>
<path d="M14.8939 20.9666C17.8427 20.2597 17.6122 20.5307 19.7993 20.6524M25.0307 15.3234C26.56 14.67 27.4658 14.5498 29.1375 14.9812M33.1465 17.4258C35.683 16.4053 37.1939 16.3404 39.8444 17.0836M33.1465 22.5869C35.6767 21.5816 37.114 21.2726 39.8444 22.5869M22.6589 22.5869C24.448 24.7478 24.9823 26.1048 25.0307 28.8056M29.1375 25.1309C30.7513 26.1765 31.2548 27.0222 31.7044 28.8056M14.5656 28.4004C14.8926 31.3982 15.4733 32.891 17.4545 35.0972M20.015 36.0163C23.6888 35.2351 25.0791 34.2629 26.0552 31.7488M10.9546 29.5165C10.7635 30.2811 10.9516 30.571 11.5455 30.9609M18.2434 25.1309C20.4256 27.0053 21.0636 28.3584 21.5438 31.2321" stroke="#D5B584" stroke-linecap="round" stroke-linejoin="round"/>
<path d="M25.3945 18.3843C26.8962 17.6148 27.7393 17.5817 29.2451 18.3843" stroke="#D5B584" stroke-linecap="round" stroke-linejoin="round"/>
</svg>
