<svg width="51" height="51" viewBox="0 0 51 51" fill="none" xmlns="http://www.w3.org/2000/svg">
<path d="M15.3558 2.77643C11.6975 7.82656 10.5178 11.243 10.1146 18.0968C9.71148 24.9507 13.5182 31.5427 23.8224 35.8362V43.8996C20.4394 44.7486 18.8914 45.3426 16.9685 46.7218C15.0456 48.101 16.9685 47.9313 16.9685 47.9313H33.8732C33.8732 47.9313 35.7961 48.101 33.8732 46.7218C31.9504 45.3426 30.4023 44.7486 27.0194 43.8996V35.8362C37.3235 31.5427 41.1303 24.9507 40.7271 18.0968C40.3239 11.243 39.1442 7.82656 35.4859 2.77643H15.3558Z" fill="#8397B5"/>
<path d="M24.5963 18.5373C28.3251 14.7611 34.4151 12.846 37.0945 14.909C42.7465 19.2608 34.9617 31.8421 24.5963 31.8421C14.2308 31.8421 11.7951 21.3953 12.0981 19.3436C12.4012 17.292 19.4143 20.9511 24.5963 18.5373Z" fill="#8A4A5A"/>
<path d="M26.1786 18.537C21.3698 15.193 15.4119 12.9949 13.6805 14.9087C8.22699 20.9366 15.6963 32.6481 26.0914 32.4096C36.4866 32.1712 39.4845 21.7624 38.6768 19.3433C37.8691 16.9243 31.3607 20.9509 26.1786 18.537Z" fill="#A52F4D"/>
</svg>
