<svg width="50" height="50" viewBox="0 0 50 50" fill="none" xmlns="http://www.w3.org/2000/svg">
<path d="M25 27.1301V42.176" stroke="#377D59" stroke-width="2.5" stroke-linecap="round" stroke-linejoin="round"/>
<path d="M19.8983 26.4231C20.1932 32.9826 15.1781 34.8652 13.8172 33.9441C13.2474 33.5584 12.4143 29.7395 13.8171 27.0156C15.815 23.1364 19.844 21.3963 23.2449 21.0189C26.6458 20.6415 19.7593 23.3287 19.8983 26.4231Z" fill="#AD8EF8"/>
<path d="M27.7096 15.1505C27.7096 18.5238 26.5058 21.2584 25.0208 21.2584C23.5358 21.2584 22.332 18.5238 22.332 15.1505C22.332 11.7772 22.7481 9.62802 25.0208 9.51028C27.2935 9.39254 27.7096 11.7772 27.7096 15.1505Z" fill="#AD8EF8"/>
<path d="M22.3203 14.9588C22.2498 18.6115 26.1763 21.7044 22.8491 21.6108C19.2482 21.7609 12.9379 18.2107 14.3994 13.9238C15.6179 10.3498 18.2614 8.22581 21.6623 7.84841C25.0633 7.47102 23.0533 11.5386 22.3203 14.9588Z" fill="#CBA8F9"/>
<path d="M30.1026 26.4231C29.8078 32.9826 34.8229 34.8652 36.1838 33.9441C36.7536 33.5584 37.5867 29.7395 36.1839 27.0156C34.186 23.1364 30.157 21.3963 26.7561 21.0189C23.3552 20.6415 30.2417 23.3287 30.1026 26.4231Z" fill="#AD8EF8"/>
<path d="M27.6797 14.9588C27.7502 18.6115 23.8237 21.7044 27.1509 21.6108C30.7518 21.7609 37.0621 18.2107 35.6006 13.9238C34.3821 10.3498 31.7386 8.22581 28.3377 7.84841C24.9367 7.47102 26.9467 11.5386 27.6797 14.9588Z" fill="#CBA8F9"/>
<path d="M19.7312 26.9592C19.7312 23.5068 21.8769 20.7081 25.0203 20.7081C28.1637 20.7081 30.7119 23.5068 30.7119 26.9592C30.7119 30.4117 28.3163 35.5079 25.0203 35.5088C21.7243 35.5097 19.7312 30.4117 19.7312 26.9592Z" fill="#DEB5FA"/>
<path d="M23.9374 23.0868C23.9374 21.7732 24.3609 20.7083 24.9812 20.7083C25.6016 20.7083 26.1045 21.7732 26.1045 23.0868C26.1045 24.4004 25.6317 26.3395 24.9812 26.3398C24.3307 26.3402 23.9374 24.4004 23.9374 23.0868Z" fill="#ECDFB0"/>
</svg>
