<svg width="51" height="51" viewBox="0 0 51 51" fill="none" xmlns="http://www.w3.org/2000/svg">
<path d="M15.2064 2.85046C11.5481 7.9006 10.3684 11.317 9.96523 18.1709C9.56207 25.0247 13.3688 31.6167 23.673 35.9103V43.9736C20.29 44.8227 18.742 45.4166 16.8191 46.7958C14.8962 48.175 16.8191 48.0053 16.8191 48.0053H33.7238C33.7238 48.0053 35.6467 48.175 33.7238 46.7958C31.8009 45.4166 30.2529 44.8227 26.87 43.9736V35.9103C37.1741 31.6167 40.9808 25.0247 40.5777 18.1709C40.1745 11.317 38.9948 7.9006 35.3365 2.85046H15.2064Z" fill="#CDD9EB"/>
<path d="M24.4469 18.6113C28.1757 14.8351 34.2656 12.92 36.9451 14.983C42.5971 19.3348 34.8123 31.9161 24.4468 31.9161C14.0814 31.9161 11.6456 21.4693 11.9487 19.4177C12.2518 17.366 19.2648 21.0252 24.4469 18.6113Z" fill="#8A4A5A"/>
<path d="M26.0292 18.611C21.2204 15.2671 15.2625 13.0689 13.5311 14.9827C8.07758 21.0106 15.5469 32.7222 25.942 32.4837C36.3372 32.2452 39.3351 21.8364 38.5274 19.4174C37.7197 16.9984 31.2113 21.0249 26.0292 18.611Z" fill="#A52F4D"/>
</svg>
