<svg width="50" height="50" viewBox="0 0 50 50" fill="none" xmlns="http://www.w3.org/2000/svg">
<path d="M12.4225 20.6075C13.4916 16.0521 17.0526 13.1315 23.3753 13.1105C23.4205 13.1103 23.4678 13.1144 23.5124 13.122C32.8512 14.7157 36.3274 14.252 37.6706 20.5244C37.6821 20.5782 37.6882 20.6346 37.6879 20.6896C37.6376 30.4146 28.6712 42.8792 23.4441 43.1496C18.2023 43.4208 11.3496 25.1794 12.4225 20.6075Z" fill="#E25D57"/>
<path d="M25.4147 15.2507C23.6055 11.9781 23.3232 10.1429 24.5853 6.84717" stroke="#377D59" stroke-width="2.5" stroke-linecap="round"/>
<path d="M14.4595 16.1264C15.6034 15.005 17.2922 13.6056 19.0197 13.0877C20.9764 12.5012 24.1178 12.2484 24.3291 12.2319C24.3371 12.2313 24.3438 12.2306 24.3518 12.2298C24.5757 12.2067 28.0266 11.8603 30.0699 12.231C31.9656 12.5749 33.8451 14.0681 35.0152 15.1714C35.5102 15.6382 35.1685 16.4078 34.4881 16.4078H31.1423C30.6072 16.4078 30.223 16.9228 30.3754 17.4357L30.5618 18.0626C30.7509 18.699 30.1274 19.2755 29.5078 19.0373L24.7071 17.1913C24.4758 17.1023 24.2163 17.1256 24.0045 17.2544L21.3269 18.8818C20.7937 19.2059 20.1113 18.8221 20.1113 18.1982V17.3657C20.1113 16.8668 19.6597 16.4896 19.1687 16.5785L15.1139 17.3132C14.3869 17.4449 13.9319 16.6437 14.4595 16.1264Z" fill="#377D59"/>
<path d="M19.3926 22.1984C19.3926 23.0676 19.1084 23.7722 18.2461 23.7722C17.6129 23.7722 17.0996 23.0676 17.0996 22.1984C17.0996 21.3291 17.299 20.6245 18.2461 20.6245C19.1931 20.6245 19.3926 21.3291 19.3926 22.1984Z" fill="#BE4944"/>
<path d="M25.7598 23.1818C25.7598 24.051 25.4756 24.7556 24.6133 24.7556C23.9801 24.7556 23.4668 24.051 23.4668 23.1818C23.4668 22.3125 23.6662 21.6079 24.6133 21.6079C25.5603 21.6079 25.7598 22.3125 25.7598 23.1818Z" fill="#BE4944"/>
<path d="M32.125 22.1984C32.125 23.0676 31.8409 23.7722 30.9785 23.7722C30.3453 23.7722 29.832 23.0676 29.832 22.1984C29.832 21.3291 30.0315 20.6245 30.9785 20.6245C31.9256 20.6245 32.125 21.3291 32.125 22.1984Z" fill="#BE4944"/>
<path d="M21.6855 29.0822C21.6855 29.9514 21.4014 30.656 20.5391 30.656C19.9059 30.656 19.3926 29.9514 19.3926 29.0822C19.3926 28.2129 19.592 27.5083 20.5391 27.5083C21.4861 27.5083 21.6855 28.2129 21.6855 29.0822Z" fill="#BE4944"/>
<path d="M29.832 29.0822C29.832 29.9514 29.5479 30.656 28.6855 30.656C28.0524 30.656 27.5391 29.9514 27.5391 29.0822C27.5391 28.2129 27.7385 27.5083 28.6855 27.5083C29.6326 27.5083 29.832 28.2129 29.832 29.0822Z" fill="#BE4944"/>
<path d="M25.7598 35.1793C25.7598 36.0485 25.4756 36.7532 24.6133 36.7532C23.9801 36.7532 23.4668 36.0485 23.4668 35.1793C23.4668 34.3101 23.6662 33.6055 24.6133 33.6055C25.5603 33.6055 25.7598 34.3101 25.7598 35.1793Z" fill="#BE4944"/>
</svg>
